M48
;GenerationSoftware,Autodesk,EAGLE,9.6.2*%
;CreationDate,2026-08-26T13:42:32Z*%
FMAT,2
ICI,OFF
METRIC,TZ,000.000
T1C0.800

%
G90
M71
T1
X4000Y5000
X50000Y12000
X44000Y30000
X46000Y37000
X49175Y42080
X52350Y37000
X43000Y37000
X26000Y18000
X53730Y30000
X56270Y30000
X36270Y34000
X24102Y28102
X25898Y29898
X38810Y29000
X36270Y29000
X33730Y29000
X31190Y29000
X38810Y34000
X33730Y34000
X31190Y34000
X41000Y41000
X51700Y17300
X39200Y3500
X56000Y14000
X44300Y5000
X46840Y20240
X54460Y20240
X51920Y20240
X49380Y20240
X48700Y30300
X41760Y20240
X44300Y20240
X36680Y5000
X36680Y20240
X39220Y5000
X41760Y5000
X46840Y5000
X49380Y5000
X51920Y5000
X54460Y5000
X57000Y20240
X57000Y5000
X39220Y20240
X12440Y9350
X7052Y14738
X8848Y16534
X10644Y18330
X14236Y21922
X16032Y23718
X17828Y25514
X19624Y27311
X12440Y20126
X25012Y21922
X23216Y20126
X21420Y18330
X19624Y16534
X17828Y14738
X16032Y12942
X14236Y11146
M30