G04 EAGLE Gerber RS-274X export*
G75*
%MOMM*%
%FSLAX34Y34*%
%LPD*%
%INTop Copper*%
%IPPOS*%
%AMOC8*
5,1,8,0,0,1.08239X$1,22.5*%
G01*
%ADD10P,1.415766X8X157.500000*%
%ADD11P,1.415766X8X337.500000*%
%ADD12C,1.508000*%
%ADD13P,4.123906X8X292.500000*%
%ADD14C,1.524000*%
%ADD15R,0.600000X0.800000*%
%ADD16R,1.000000X1.250000*%
%ADD17R,1.300000X1.600000*%
%ADD18C,1.200000*%
%ADD19C,0.406400*%
%ADD20C,0.508000*%
%ADD21C,3.000000*%
%ADD22C,1.270000*%
%ADD23C,1.016000*%
%ADD24C,0.609600*%

G36*
X220618Y19307D02*
X220618Y19307D01*
X220645Y19305D01*
X220818Y19327D01*
X220992Y19345D01*
X221017Y19352D01*
X221044Y19356D01*
X221210Y19411D01*
X221377Y19463D01*
X221400Y19476D01*
X221426Y19484D01*
X221577Y19571D01*
X221731Y19655D01*
X221751Y19672D01*
X221775Y19685D01*
X222028Y19900D01*
X224032Y21904D01*
X224049Y21925D01*
X224070Y21943D01*
X224177Y22081D01*
X224287Y22216D01*
X224300Y22240D01*
X224316Y22261D01*
X224394Y22418D01*
X224476Y22572D01*
X224484Y22597D01*
X224496Y22621D01*
X224541Y22791D01*
X224591Y22958D01*
X224593Y22984D01*
X224600Y23010D01*
X224627Y23341D01*
X224627Y25944D01*
X226160Y29643D01*
X228991Y32474D01*
X232690Y34007D01*
X236694Y34007D01*
X240393Y32474D01*
X243224Y29643D01*
X244757Y25944D01*
X244757Y21876D01*
X244712Y21728D01*
X244711Y21715D01*
X244707Y21702D01*
X244692Y21514D01*
X244674Y21327D01*
X244675Y21314D01*
X244674Y21300D01*
X244696Y21113D01*
X244716Y20927D01*
X244720Y20914D01*
X244721Y20901D01*
X244779Y20722D01*
X244835Y20542D01*
X244842Y20531D01*
X244846Y20518D01*
X244938Y20354D01*
X245029Y20189D01*
X245037Y20179D01*
X245044Y20167D01*
X245166Y20026D01*
X245288Y19881D01*
X245298Y19873D01*
X245307Y19862D01*
X245454Y19748D01*
X245603Y19630D01*
X245615Y19624D01*
X245625Y19616D01*
X245793Y19532D01*
X245961Y19446D01*
X245974Y19442D01*
X245986Y19436D01*
X246168Y19387D01*
X246348Y19336D01*
X246361Y19335D01*
X246374Y19332D01*
X246705Y19305D01*
X255728Y19305D01*
X255759Y19308D01*
X255791Y19306D01*
X255960Y19328D01*
X256129Y19345D01*
X256159Y19354D01*
X256190Y19358D01*
X256506Y19459D01*
X258585Y20321D01*
X361509Y20321D01*
X361514Y20321D01*
X361518Y20321D01*
X361712Y20341D01*
X361910Y20361D01*
X361914Y20362D01*
X361919Y20362D01*
X362107Y20421D01*
X362295Y20479D01*
X362299Y20481D01*
X362303Y20482D01*
X362478Y20578D01*
X362649Y20671D01*
X362652Y20673D01*
X362656Y20676D01*
X362809Y20804D01*
X362958Y20928D01*
X362961Y20932D01*
X362964Y20935D01*
X363089Y21091D01*
X363211Y21242D01*
X363213Y21246D01*
X363215Y21249D01*
X363308Y21430D01*
X363396Y21599D01*
X363397Y21604D01*
X363399Y21608D01*
X363453Y21798D01*
X363507Y21986D01*
X363508Y21991D01*
X363509Y21995D01*
X363524Y22187D01*
X363540Y22388D01*
X363540Y22392D01*
X363540Y22396D01*
X363517Y22590D01*
X363493Y22787D01*
X363492Y22792D01*
X363491Y22796D01*
X363430Y22981D01*
X363369Y23170D01*
X363366Y23174D01*
X363365Y23178D01*
X363269Y23347D01*
X363171Y23521D01*
X363168Y23524D01*
X363165Y23528D01*
X363038Y23675D01*
X362907Y23825D01*
X362904Y23828D01*
X362901Y23832D01*
X362744Y23952D01*
X362589Y24072D01*
X362585Y24074D01*
X362582Y24077D01*
X362287Y24229D01*
X360226Y25082D01*
X356962Y28346D01*
X355195Y32612D01*
X355195Y41364D01*
X355193Y41382D01*
X355195Y41400D01*
X355174Y41582D01*
X355155Y41765D01*
X355150Y41782D01*
X355148Y41799D01*
X355091Y41974D01*
X355037Y42150D01*
X355029Y42165D01*
X355023Y42182D01*
X354933Y42342D01*
X354845Y42504D01*
X354834Y42517D01*
X354825Y42533D01*
X354705Y42672D01*
X354588Y42813D01*
X354574Y42824D01*
X354562Y42838D01*
X354417Y42950D01*
X354274Y43065D01*
X354258Y43073D01*
X354244Y43084D01*
X354079Y43166D01*
X353917Y43251D01*
X353900Y43256D01*
X353884Y43264D01*
X353705Y43311D01*
X353530Y43362D01*
X353512Y43364D01*
X353495Y43368D01*
X353164Y43395D01*
X202507Y43395D01*
X200080Y44401D01*
X197936Y46544D01*
X144220Y100261D01*
X144199Y100278D01*
X144181Y100298D01*
X144044Y100405D01*
X143908Y100516D01*
X143885Y100528D01*
X143863Y100545D01*
X143706Y100623D01*
X143552Y100705D01*
X143527Y100712D01*
X143503Y100724D01*
X143333Y100770D01*
X143167Y100819D01*
X143140Y100822D01*
X143114Y100829D01*
X142783Y100856D01*
X137968Y100856D01*
X131756Y107068D01*
X131756Y115853D01*
X137968Y122065D01*
X146753Y122065D01*
X152965Y115853D01*
X152965Y111038D01*
X152968Y111011D01*
X152966Y110984D01*
X152988Y110810D01*
X153005Y110637D01*
X153013Y110612D01*
X153016Y110585D01*
X153072Y110419D01*
X153123Y110252D01*
X153136Y110229D01*
X153145Y110203D01*
X153232Y110052D01*
X153315Y109898D01*
X153332Y109878D01*
X153345Y109854D01*
X153560Y109601D01*
X205962Y57200D01*
X205983Y57183D01*
X206000Y57162D01*
X206138Y57055D01*
X206273Y56945D01*
X206297Y56932D01*
X206318Y56916D01*
X206475Y56838D01*
X206629Y56756D01*
X206655Y56748D01*
X206679Y56736D01*
X206848Y56691D01*
X207015Y56641D01*
X207042Y56639D01*
X207067Y56632D01*
X207398Y56605D01*
X338420Y56605D01*
X338429Y56606D01*
X338438Y56605D01*
X338629Y56626D01*
X338820Y56645D01*
X338829Y56647D01*
X338838Y56648D01*
X339022Y56707D01*
X339205Y56763D01*
X339213Y56767D01*
X339222Y56770D01*
X339390Y56863D01*
X339559Y56955D01*
X339566Y56960D01*
X339574Y56965D01*
X339721Y57089D01*
X339868Y57212D01*
X339874Y57219D01*
X339881Y57225D01*
X340000Y57375D01*
X340121Y57526D01*
X340125Y57534D01*
X340131Y57541D01*
X340218Y57712D01*
X340306Y57883D01*
X340309Y57892D01*
X340313Y57900D01*
X340364Y58084D01*
X340418Y58270D01*
X340418Y58279D01*
X340421Y58288D01*
X340435Y58478D01*
X340451Y58672D01*
X340450Y58681D01*
X340450Y58689D01*
X340426Y58880D01*
X340404Y59071D01*
X340401Y59080D01*
X340400Y59089D01*
X340338Y59273D01*
X340279Y59454D01*
X340274Y59462D01*
X340272Y59471D01*
X340175Y59637D01*
X340081Y59805D01*
X340075Y59812D01*
X340071Y59819D01*
X339856Y60072D01*
X339620Y60308D01*
X339599Y60325D01*
X339582Y60346D01*
X339444Y60452D01*
X339308Y60563D01*
X339285Y60576D01*
X339264Y60592D01*
X339107Y60670D01*
X338953Y60752D01*
X338927Y60760D01*
X338903Y60772D01*
X338734Y60817D01*
X338567Y60867D01*
X338540Y60869D01*
X338514Y60876D01*
X338184Y60903D01*
X281787Y60903D01*
X279546Y61831D01*
X277771Y63607D01*
X277747Y63627D01*
X277726Y63650D01*
X277591Y63754D01*
X277459Y63862D01*
X277432Y63877D01*
X277407Y63896D01*
X277112Y64047D01*
X276259Y64401D01*
X226564Y114096D01*
X225558Y116523D01*
X225558Y174757D01*
X225557Y174766D01*
X225558Y174775D01*
X225537Y174967D01*
X225518Y175158D01*
X225516Y175166D01*
X225515Y175175D01*
X225457Y175357D01*
X225400Y175543D01*
X225396Y175551D01*
X225393Y175559D01*
X225300Y175727D01*
X225209Y175897D01*
X225203Y175904D01*
X225199Y175911D01*
X225074Y176058D01*
X224951Y176206D01*
X224944Y176212D01*
X224938Y176218D01*
X224787Y176337D01*
X224637Y176458D01*
X224629Y176462D01*
X224622Y176468D01*
X224449Y176556D01*
X224280Y176644D01*
X224271Y176646D01*
X224263Y176650D01*
X224077Y176702D01*
X223893Y176755D01*
X223884Y176756D01*
X223875Y176758D01*
X223683Y176772D01*
X223492Y176788D01*
X223483Y176787D01*
X223474Y176788D01*
X223281Y176763D01*
X223092Y176741D01*
X223083Y176738D01*
X223074Y176737D01*
X222892Y176676D01*
X222709Y176616D01*
X222701Y176612D01*
X222693Y176609D01*
X222526Y176513D01*
X222358Y176418D01*
X222352Y176413D01*
X222344Y176408D01*
X222091Y176193D01*
X218595Y172698D01*
X209810Y172698D01*
X203598Y178910D01*
X203598Y187695D01*
X209810Y193907D01*
X218595Y193907D01*
X222091Y190412D01*
X222098Y190406D01*
X222103Y190399D01*
X222253Y190278D01*
X222402Y190157D01*
X222410Y190152D01*
X222417Y190147D01*
X222588Y190058D01*
X222758Y189968D01*
X222767Y189965D01*
X222774Y189961D01*
X222959Y189908D01*
X223144Y189853D01*
X223153Y189852D01*
X223161Y189850D01*
X223353Y189834D01*
X223545Y189817D01*
X223554Y189818D01*
X223563Y189817D01*
X223752Y189839D01*
X223945Y189860D01*
X223954Y189863D01*
X223962Y189864D01*
X224144Y189923D01*
X224329Y189982D01*
X224337Y189986D01*
X224345Y189989D01*
X224514Y190084D01*
X224681Y190176D01*
X224688Y190182D01*
X224696Y190187D01*
X224842Y190313D01*
X224988Y190437D01*
X224994Y190444D01*
X225001Y190450D01*
X225118Y190601D01*
X225238Y190753D01*
X225242Y190761D01*
X225247Y190768D01*
X225333Y190939D01*
X225420Y191112D01*
X225423Y191120D01*
X225427Y191128D01*
X225476Y191313D01*
X225528Y191500D01*
X225529Y191509D01*
X225531Y191517D01*
X225558Y191848D01*
X225558Y192029D01*
X225556Y192056D01*
X225558Y192082D01*
X225536Y192256D01*
X225518Y192430D01*
X225511Y192455D01*
X225507Y192482D01*
X225452Y192648D01*
X225400Y192815D01*
X225388Y192838D01*
X225379Y192864D01*
X225292Y193015D01*
X225209Y193169D01*
X225191Y193189D01*
X225178Y193212D01*
X224963Y193465D01*
X221558Y196870D01*
X221558Y205656D01*
X227770Y211868D01*
X236556Y211868D01*
X242768Y205656D01*
X242768Y196870D01*
X239363Y193465D01*
X239346Y193445D01*
X239326Y193427D01*
X239219Y193289D01*
X239108Y193154D01*
X239095Y193130D01*
X239079Y193109D01*
X239001Y192952D01*
X238919Y192798D01*
X238911Y192773D01*
X238899Y192749D01*
X238854Y192579D01*
X238804Y192412D01*
X238802Y192386D01*
X238795Y192360D01*
X238768Y192029D01*
X238768Y188771D01*
X238768Y188767D01*
X238768Y188762D01*
X238788Y188568D01*
X238808Y188371D01*
X238809Y188366D01*
X238809Y188362D01*
X238867Y188176D01*
X238926Y187986D01*
X238928Y187982D01*
X238929Y187978D01*
X239023Y187806D01*
X239118Y187632D01*
X239120Y187628D01*
X239123Y187624D01*
X239250Y187473D01*
X239375Y187322D01*
X239379Y187320D01*
X239382Y187316D01*
X239536Y187193D01*
X239689Y187070D01*
X239693Y187068D01*
X239697Y187065D01*
X239871Y186976D01*
X240046Y186885D01*
X240051Y186883D01*
X240055Y186881D01*
X240242Y186828D01*
X240433Y186773D01*
X240438Y186773D01*
X240442Y186772D01*
X240635Y186757D01*
X240835Y186740D01*
X240839Y186741D01*
X240843Y186740D01*
X241037Y186764D01*
X241234Y186787D01*
X241239Y186789D01*
X241243Y186789D01*
X241428Y186850D01*
X241617Y186912D01*
X241621Y186914D01*
X241625Y186916D01*
X241797Y187014D01*
X241968Y187110D01*
X241971Y187113D01*
X241975Y187115D01*
X242126Y187246D01*
X242273Y187373D01*
X242275Y187377D01*
X242279Y187380D01*
X242399Y187536D01*
X242519Y187691D01*
X242521Y187695D01*
X242524Y187699D01*
X242676Y187994D01*
X243838Y190799D01*
X249201Y196162D01*
X254151Y198213D01*
X256208Y199065D01*
X263792Y199065D01*
X270799Y196162D01*
X276162Y190799D01*
X279065Y183792D01*
X279065Y176208D01*
X276162Y169201D01*
X270799Y163838D01*
X264755Y161334D01*
X263792Y160935D01*
X256208Y160935D01*
X249201Y163838D01*
X243838Y169201D01*
X242676Y172006D01*
X242674Y172010D01*
X242672Y172014D01*
X242579Y172187D01*
X242486Y172361D01*
X242483Y172364D01*
X242481Y172368D01*
X242357Y172517D01*
X242229Y172671D01*
X242226Y172674D01*
X242223Y172678D01*
X242070Y172800D01*
X241916Y172925D01*
X241912Y172927D01*
X241909Y172930D01*
X241736Y173020D01*
X241560Y173112D01*
X241556Y173113D01*
X241552Y173115D01*
X241363Y173170D01*
X241174Y173225D01*
X241169Y173226D01*
X241165Y173227D01*
X240967Y173243D01*
X240772Y173260D01*
X240768Y173259D01*
X240764Y173260D01*
X240569Y173237D01*
X240372Y173215D01*
X240368Y173213D01*
X240364Y173213D01*
X240178Y173152D01*
X239989Y173092D01*
X239985Y173089D01*
X239981Y173088D01*
X239808Y172991D01*
X239638Y172895D01*
X239634Y172892D01*
X239630Y172890D01*
X239481Y172762D01*
X239332Y172633D01*
X239329Y172630D01*
X239326Y172627D01*
X239206Y172472D01*
X239083Y172316D01*
X239081Y172312D01*
X239079Y172309D01*
X238990Y172131D01*
X238903Y171957D01*
X238902Y171952D01*
X238899Y171948D01*
X238848Y171756D01*
X238796Y171568D01*
X238796Y171564D01*
X238795Y171559D01*
X238768Y171229D01*
X238768Y121414D01*
X238770Y121388D01*
X238768Y121361D01*
X238790Y121187D01*
X238808Y121013D01*
X238816Y120988D01*
X238819Y120961D01*
X238875Y120796D01*
X238926Y120629D01*
X238939Y120605D01*
X238947Y120580D01*
X239034Y120428D01*
X239118Y120275D01*
X239135Y120254D01*
X239148Y120231D01*
X239363Y119978D01*
X285649Y73692D01*
X285670Y73675D01*
X285687Y73654D01*
X285825Y73547D01*
X285960Y73437D01*
X285984Y73424D01*
X286005Y73408D01*
X286162Y73330D01*
X286316Y73248D01*
X286342Y73240D01*
X286366Y73228D01*
X286535Y73183D01*
X286702Y73133D01*
X286729Y73131D01*
X286754Y73124D01*
X287085Y73097D01*
X337918Y73097D01*
X337936Y73099D01*
X337954Y73097D01*
X338136Y73118D01*
X338319Y73137D01*
X338336Y73142D01*
X338353Y73144D01*
X338528Y73201D01*
X338704Y73255D01*
X338719Y73263D01*
X338736Y73269D01*
X338896Y73359D01*
X339058Y73447D01*
X339071Y73458D01*
X339087Y73467D01*
X339226Y73587D01*
X339367Y73704D01*
X339378Y73718D01*
X339392Y73730D01*
X339504Y73875D01*
X339619Y74018D01*
X339627Y74034D01*
X339638Y74048D01*
X339720Y74213D01*
X339805Y74375D01*
X339810Y74392D01*
X339818Y74408D01*
X339865Y74587D01*
X339916Y74762D01*
X339918Y74780D01*
X339922Y74797D01*
X339949Y75128D01*
X339949Y190021D01*
X339979Y190051D01*
X357834Y190051D01*
X357843Y190052D01*
X357852Y190051D01*
X358043Y190072D01*
X358234Y190091D01*
X358243Y190093D01*
X358252Y190094D01*
X358434Y190152D01*
X358619Y190209D01*
X358627Y190213D01*
X358636Y190216D01*
X358804Y190309D01*
X358973Y190401D01*
X358980Y190406D01*
X358988Y190411D01*
X359134Y190534D01*
X359283Y190658D01*
X359288Y190665D01*
X359295Y190671D01*
X359414Y190822D01*
X359535Y190972D01*
X359539Y190980D01*
X359545Y190987D01*
X359632Y191160D01*
X359720Y191329D01*
X359723Y191338D01*
X359727Y191346D01*
X359779Y191532D01*
X359832Y191716D01*
X359833Y191725D01*
X359835Y191734D01*
X359849Y191927D01*
X359865Y192118D01*
X359864Y192126D01*
X359864Y192135D01*
X359840Y192327D01*
X359818Y192517D01*
X359815Y192526D01*
X359814Y192535D01*
X359753Y192717D01*
X359693Y192900D01*
X359689Y192908D01*
X359686Y192916D01*
X359590Y193082D01*
X359495Y193251D01*
X359489Y193258D01*
X359485Y193265D01*
X359270Y193518D01*
X356962Y195826D01*
X355195Y200092D01*
X355195Y219788D01*
X356962Y224054D01*
X360226Y227318D01*
X364492Y229085D01*
X369108Y229085D01*
X373374Y227318D01*
X376638Y224054D01*
X377623Y221675D01*
X377628Y221667D01*
X377630Y221658D01*
X377722Y221490D01*
X377814Y221320D01*
X377819Y221313D01*
X377824Y221305D01*
X377947Y221159D01*
X378070Y221009D01*
X378077Y221004D01*
X378083Y220997D01*
X378233Y220877D01*
X378383Y220756D01*
X378391Y220752D01*
X378397Y220746D01*
X378568Y220658D01*
X378739Y220569D01*
X378748Y220566D01*
X378756Y220562D01*
X378940Y220510D01*
X379126Y220456D01*
X379134Y220455D01*
X379143Y220452D01*
X379334Y220438D01*
X379527Y220421D01*
X379536Y220422D01*
X379544Y220421D01*
X379734Y220444D01*
X379927Y220466D01*
X379935Y220469D01*
X379944Y220470D01*
X380126Y220530D01*
X380310Y220589D01*
X380318Y220594D01*
X380326Y220596D01*
X380494Y220692D01*
X380662Y220786D01*
X380668Y220791D01*
X380676Y220796D01*
X380821Y220922D01*
X380967Y221047D01*
X380973Y221055D01*
X380980Y221060D01*
X381097Y221214D01*
X381216Y221364D01*
X381220Y221372D01*
X381225Y221380D01*
X381377Y221675D01*
X382362Y224054D01*
X385626Y227318D01*
X388781Y228625D01*
X388793Y228631D01*
X388806Y228635D01*
X388970Y228726D01*
X389136Y228815D01*
X389147Y228824D01*
X389158Y228830D01*
X389301Y228951D01*
X389446Y229071D01*
X389455Y229082D01*
X389465Y229090D01*
X389582Y229238D01*
X389700Y229384D01*
X389706Y229396D01*
X389715Y229406D01*
X389800Y229575D01*
X389887Y229741D01*
X389891Y229753D01*
X389897Y229765D01*
X389948Y229947D01*
X390000Y230127D01*
X390001Y230140D01*
X390005Y230153D01*
X390019Y230342D01*
X390035Y230528D01*
X390033Y230541D01*
X390034Y230555D01*
X390011Y230743D01*
X389990Y230928D01*
X389986Y230941D01*
X389984Y230954D01*
X389924Y231133D01*
X389867Y231311D01*
X389860Y231323D01*
X389856Y231336D01*
X389762Y231499D01*
X389670Y231663D01*
X389662Y231673D01*
X389655Y231685D01*
X389440Y231938D01*
X378070Y243308D01*
X378049Y243325D01*
X378031Y243346D01*
X377893Y243453D01*
X377758Y243563D01*
X377734Y243576D01*
X377713Y243592D01*
X377556Y243670D01*
X377402Y243752D01*
X377377Y243760D01*
X377353Y243772D01*
X377183Y243817D01*
X377016Y243867D01*
X376990Y243869D01*
X376964Y243876D01*
X376633Y243903D01*
X343367Y243903D01*
X343340Y243901D01*
X343313Y243903D01*
X343139Y243881D01*
X342966Y243863D01*
X342941Y243856D01*
X342914Y243852D01*
X342748Y243797D01*
X342581Y243745D01*
X342558Y243732D01*
X342532Y243724D01*
X342381Y243637D01*
X342227Y243553D01*
X342207Y243536D01*
X342183Y243523D01*
X341930Y243308D01*
X300660Y202038D01*
X300643Y202017D01*
X300622Y201999D01*
X300515Y201861D01*
X300405Y201726D01*
X300392Y201702D01*
X300376Y201681D01*
X300298Y201524D01*
X300216Y201370D01*
X300208Y201345D01*
X300196Y201321D01*
X300151Y201151D01*
X300101Y200984D01*
X300099Y200958D01*
X300092Y200932D01*
X300065Y200601D01*
X300065Y197998D01*
X298532Y194299D01*
X295701Y191468D01*
X292002Y189935D01*
X287998Y189935D01*
X284299Y191468D01*
X281468Y194299D01*
X279935Y197998D01*
X279935Y202002D01*
X281468Y205701D01*
X284299Y208532D01*
X287998Y210065D01*
X290601Y210065D01*
X290628Y210067D01*
X290655Y210065D01*
X290828Y210087D01*
X291002Y210105D01*
X291027Y210112D01*
X291054Y210116D01*
X291220Y210171D01*
X291387Y210223D01*
X291410Y210236D01*
X291436Y210244D01*
X291587Y210331D01*
X291741Y210415D01*
X291761Y210432D01*
X291785Y210445D01*
X292038Y210660D01*
X334546Y253168D01*
X336546Y255169D01*
X338787Y256097D01*
X381213Y256097D01*
X383454Y255169D01*
X410263Y228359D01*
X410280Y228345D01*
X410295Y228328D01*
X410436Y228218D01*
X410575Y228104D01*
X410594Y228094D01*
X410612Y228080D01*
X410772Y227999D01*
X410930Y227915D01*
X410952Y227909D01*
X410972Y227899D01*
X411144Y227852D01*
X411316Y227801D01*
X411338Y227799D01*
X411360Y227793D01*
X411539Y227780D01*
X411717Y227764D01*
X411739Y227767D01*
X411762Y227765D01*
X411939Y227788D01*
X412117Y227808D01*
X412139Y227814D01*
X412161Y227817D01*
X412477Y227919D01*
X415292Y229085D01*
X419908Y229085D01*
X424174Y227318D01*
X427438Y224054D01*
X428423Y221675D01*
X428428Y221667D01*
X428430Y221658D01*
X428522Y221491D01*
X428614Y221320D01*
X428619Y221313D01*
X428624Y221305D01*
X428747Y221158D01*
X428870Y221009D01*
X428877Y221004D01*
X428883Y220997D01*
X429033Y220877D01*
X429183Y220756D01*
X429191Y220752D01*
X429197Y220746D01*
X429368Y220658D01*
X429539Y220569D01*
X429548Y220566D01*
X429556Y220562D01*
X429739Y220510D01*
X429925Y220456D01*
X429935Y220455D01*
X429943Y220452D01*
X430134Y220438D01*
X430327Y220421D01*
X430336Y220422D01*
X430344Y220421D01*
X430534Y220444D01*
X430727Y220466D01*
X430735Y220469D01*
X430744Y220470D01*
X430924Y220530D01*
X431110Y220589D01*
X431118Y220594D01*
X431126Y220596D01*
X431292Y220691D01*
X431461Y220786D01*
X431468Y220791D01*
X431476Y220796D01*
X431621Y220922D01*
X431767Y221047D01*
X431773Y221054D01*
X431780Y221060D01*
X431897Y221213D01*
X432016Y221364D01*
X432020Y221372D01*
X432025Y221380D01*
X432177Y221675D01*
X433162Y224054D01*
X436426Y227318D01*
X440692Y229085D01*
X445308Y229085D01*
X449574Y227318D01*
X452838Y224054D01*
X453823Y221675D01*
X453828Y221667D01*
X453830Y221658D01*
X453923Y221489D01*
X454014Y221320D01*
X454019Y221313D01*
X454024Y221305D01*
X454147Y221158D01*
X454270Y221009D01*
X454277Y221004D01*
X454283Y220997D01*
X454434Y220876D01*
X454583Y220756D01*
X454590Y220752D01*
X454598Y220746D01*
X454771Y220657D01*
X454939Y220569D01*
X454948Y220566D01*
X454956Y220562D01*
X455142Y220509D01*
X455326Y220456D01*
X455335Y220455D01*
X455343Y220452D01*
X455534Y220438D01*
X455727Y220421D01*
X455736Y220422D01*
X455744Y220421D01*
X455936Y220445D01*
X456127Y220466D01*
X456135Y220469D01*
X456144Y220470D01*
X456327Y220530D01*
X456510Y220589D01*
X456518Y220594D01*
X456526Y220596D01*
X456693Y220692D01*
X456862Y220786D01*
X456868Y220791D01*
X456876Y220796D01*
X457020Y220921D01*
X457167Y221047D01*
X457173Y221055D01*
X457180Y221060D01*
X457297Y221213D01*
X457416Y221364D01*
X457420Y221372D01*
X457425Y221380D01*
X457577Y221675D01*
X458562Y224054D01*
X461826Y227318D01*
X466092Y229085D01*
X470708Y229085D01*
X474974Y227318D01*
X478238Y224054D01*
X479223Y221675D01*
X479228Y221667D01*
X479230Y221658D01*
X479323Y221489D01*
X479414Y221320D01*
X479419Y221313D01*
X479424Y221305D01*
X479547Y221158D01*
X479670Y221009D01*
X479677Y221004D01*
X479683Y220997D01*
X479834Y220876D01*
X479983Y220756D01*
X479990Y220752D01*
X479998Y220746D01*
X480171Y220657D01*
X480339Y220569D01*
X480348Y220566D01*
X480356Y220562D01*
X480542Y220509D01*
X480726Y220456D01*
X480735Y220455D01*
X480743Y220452D01*
X480934Y220438D01*
X481127Y220421D01*
X481136Y220422D01*
X481144Y220421D01*
X481336Y220445D01*
X481527Y220466D01*
X481535Y220469D01*
X481544Y220470D01*
X481727Y220530D01*
X481910Y220589D01*
X481918Y220594D01*
X481926Y220596D01*
X482093Y220692D01*
X482262Y220786D01*
X482268Y220791D01*
X482276Y220796D01*
X482420Y220921D01*
X482567Y221047D01*
X482573Y221055D01*
X482580Y221060D01*
X482697Y221213D01*
X482816Y221364D01*
X482820Y221372D01*
X482825Y221380D01*
X482977Y221675D01*
X483962Y224054D01*
X487108Y227200D01*
X487125Y227221D01*
X487146Y227238D01*
X487253Y227376D01*
X487363Y227511D01*
X487376Y227535D01*
X487392Y227556D01*
X487470Y227713D01*
X487552Y227867D01*
X487560Y227893D01*
X487572Y227917D01*
X487617Y228086D01*
X487667Y228253D01*
X487669Y228280D01*
X487676Y228306D01*
X487703Y228636D01*
X487703Y235801D01*
X487702Y235810D01*
X487703Y235819D01*
X487682Y236011D01*
X487663Y236202D01*
X487661Y236210D01*
X487660Y236219D01*
X487602Y236401D01*
X487545Y236587D01*
X487541Y236594D01*
X487538Y236603D01*
X487445Y236771D01*
X487353Y236941D01*
X487348Y236947D01*
X487343Y236955D01*
X487218Y237103D01*
X487096Y237250D01*
X487089Y237255D01*
X487083Y237262D01*
X486932Y237382D01*
X486782Y237502D01*
X486774Y237506D01*
X486767Y237512D01*
X486596Y237599D01*
X486425Y237688D01*
X486416Y237690D01*
X486408Y237694D01*
X486223Y237746D01*
X486038Y237799D01*
X486029Y237800D01*
X486020Y237802D01*
X485828Y237816D01*
X485636Y237832D01*
X485628Y237831D01*
X485619Y237832D01*
X485426Y237807D01*
X485237Y237785D01*
X485228Y237782D01*
X485219Y237781D01*
X485036Y237720D01*
X484854Y237660D01*
X484846Y237656D01*
X484838Y237653D01*
X484672Y237558D01*
X484503Y237462D01*
X484496Y237456D01*
X484489Y237452D01*
X484236Y237237D01*
X483302Y236304D01*
X481809Y235685D01*
X470191Y235685D01*
X468698Y236304D01*
X467554Y237448D01*
X466935Y238941D01*
X466935Y253059D01*
X467554Y254552D01*
X468701Y255700D01*
X468846Y255782D01*
X469004Y255866D01*
X469021Y255880D01*
X469041Y255891D01*
X469176Y256008D01*
X469315Y256123D01*
X469329Y256140D01*
X469346Y256154D01*
X469455Y256296D01*
X469568Y256435D01*
X469579Y256455D01*
X469592Y256473D01*
X469672Y256633D01*
X469755Y256792D01*
X469762Y256813D01*
X469772Y256833D01*
X469818Y257007D01*
X469868Y257178D01*
X469870Y257200D01*
X469876Y257222D01*
X469903Y257553D01*
X469903Y271345D01*
X469908Y271363D01*
X469935Y271694D01*
X469935Y278809D01*
X470554Y280302D01*
X471698Y281446D01*
X473191Y282065D01*
X487808Y282065D01*
X489223Y281479D01*
X489241Y281474D01*
X489252Y281468D01*
X489259Y281466D01*
X489272Y281459D01*
X489441Y281413D01*
X489608Y281363D01*
X489635Y281360D01*
X489661Y281353D01*
X489835Y281341D01*
X490009Y281324D01*
X490035Y281327D01*
X490062Y281325D01*
X490235Y281348D01*
X490409Y281366D01*
X490435Y281374D01*
X490461Y281377D01*
X490777Y281479D01*
X492191Y282065D01*
X501872Y282065D01*
X501890Y282067D01*
X501908Y282065D01*
X502090Y282086D01*
X502273Y282105D01*
X502290Y282110D01*
X502307Y282112D01*
X502482Y282169D01*
X502658Y282223D01*
X502673Y282231D01*
X502690Y282237D01*
X502850Y282327D01*
X503012Y282415D01*
X503025Y282426D01*
X503041Y282435D01*
X503180Y282555D01*
X503321Y282672D01*
X503332Y282686D01*
X503346Y282698D01*
X503458Y282843D01*
X503573Y282986D01*
X503581Y283002D01*
X503592Y283016D01*
X503674Y283181D01*
X503759Y283343D01*
X503764Y283360D01*
X503772Y283376D01*
X503819Y283555D01*
X503870Y283730D01*
X503872Y283748D01*
X503876Y283765D01*
X503903Y284096D01*
X503903Y286633D01*
X503901Y286660D01*
X503903Y286687D01*
X503881Y286860D01*
X503863Y287034D01*
X503856Y287059D01*
X503852Y287086D01*
X503797Y287252D01*
X503745Y287419D01*
X503732Y287442D01*
X503724Y287468D01*
X503637Y287619D01*
X503553Y287773D01*
X503536Y287793D01*
X503523Y287817D01*
X503308Y288070D01*
X496242Y295136D01*
X496228Y295147D01*
X496217Y295161D01*
X496072Y295275D01*
X495931Y295391D01*
X495915Y295399D01*
X495901Y295410D01*
X495737Y295494D01*
X495575Y295580D01*
X495558Y295585D01*
X495542Y295593D01*
X495365Y295642D01*
X495189Y295694D01*
X495171Y295696D01*
X495154Y295701D01*
X494971Y295714D01*
X494788Y295731D01*
X494770Y295729D01*
X494752Y295730D01*
X494571Y295707D01*
X494388Y295687D01*
X494371Y295682D01*
X494353Y295680D01*
X494180Y295621D01*
X494004Y295566D01*
X493988Y295557D01*
X493971Y295551D01*
X493812Y295459D01*
X493652Y295371D01*
X493638Y295359D01*
X493622Y295350D01*
X493369Y295136D01*
X492701Y294467D01*
X490041Y293365D01*
X489002Y292935D01*
X484998Y292935D01*
X481299Y294468D01*
X478468Y297299D01*
X476935Y300998D01*
X476935Y305002D01*
X478468Y308701D01*
X481299Y311532D01*
X484998Y313065D01*
X489002Y313065D01*
X492701Y311532D01*
X494542Y309692D01*
X494563Y309675D01*
X494580Y309654D01*
X494718Y309547D01*
X494854Y309437D01*
X494877Y309424D01*
X494898Y309408D01*
X495055Y309330D01*
X495209Y309248D01*
X495235Y309240D01*
X495259Y309228D01*
X495428Y309183D01*
X495595Y309133D01*
X495622Y309131D01*
X495648Y309124D01*
X495978Y309097D01*
X498213Y309097D01*
X500454Y308169D01*
X515169Y293454D01*
X516097Y291213D01*
X516097Y233367D01*
X516099Y233340D01*
X516097Y233313D01*
X516119Y233140D01*
X516137Y232966D01*
X516144Y232941D01*
X516148Y232914D01*
X516203Y232748D01*
X516255Y232581D01*
X516268Y232558D01*
X516276Y232532D01*
X516363Y232381D01*
X516447Y232227D01*
X516464Y232207D01*
X516477Y232183D01*
X516692Y231930D01*
X518169Y230454D01*
X518216Y230339D01*
X518227Y230319D01*
X518234Y230298D01*
X518322Y230142D01*
X518406Y229984D01*
X518420Y229967D01*
X518431Y229947D01*
X518549Y229811D01*
X518663Y229673D01*
X518680Y229659D01*
X518695Y229642D01*
X518836Y229533D01*
X518975Y229420D01*
X518995Y229409D01*
X519013Y229396D01*
X519173Y229316D01*
X519332Y229233D01*
X519353Y229226D01*
X519373Y229216D01*
X519547Y229170D01*
X519718Y229120D01*
X519740Y229118D01*
X519762Y229112D01*
X520093Y229085D01*
X521508Y229085D01*
X525774Y227318D01*
X529038Y224054D01*
X530909Y219536D01*
X530933Y219493D01*
X530949Y219446D01*
X530974Y219404D01*
X530985Y219378D01*
X531036Y219300D01*
X531099Y219181D01*
X531131Y219143D01*
X531156Y219101D01*
X531191Y219063D01*
X531205Y219041D01*
X531267Y218978D01*
X531356Y218871D01*
X531394Y218840D01*
X531428Y218803D01*
X531471Y218771D01*
X531487Y218754D01*
X531558Y218707D01*
X531668Y218617D01*
X531712Y218594D01*
X531752Y218565D01*
X531803Y218541D01*
X531821Y218529D01*
X531897Y218497D01*
X532025Y218430D01*
X532072Y218416D01*
X532117Y218395D01*
X532173Y218382D01*
X532192Y218374D01*
X532272Y218358D01*
X532411Y218317D01*
X532461Y218313D01*
X532509Y218301D01*
X532566Y218299D01*
X532587Y218295D01*
X532668Y218295D01*
X532812Y218282D01*
X532862Y218288D01*
X532911Y218286D01*
X532967Y218295D01*
X532990Y218295D01*
X533070Y218311D01*
X533213Y218328D01*
X533260Y218343D01*
X533309Y218351D01*
X533361Y218370D01*
X533385Y218375D01*
X533462Y218408D01*
X533596Y218451D01*
X533639Y218475D01*
X533685Y218492D01*
X533732Y218521D01*
X533756Y218531D01*
X533828Y218580D01*
X533947Y218647D01*
X533985Y218679D01*
X534027Y218705D01*
X534065Y218741D01*
X534089Y218757D01*
X534153Y218823D01*
X534253Y218909D01*
X534284Y218948D01*
X534320Y218982D01*
X534348Y219022D01*
X534371Y219045D01*
X534423Y219126D01*
X534501Y219226D01*
X534524Y219270D01*
X534552Y219311D01*
X534571Y219353D01*
X534590Y219382D01*
X534640Y219501D01*
X534682Y219586D01*
X534695Y219633D01*
X534715Y219679D01*
X534717Y219686D01*
X534718Y219689D01*
X535258Y221350D01*
X535978Y222764D01*
X536911Y224047D01*
X538033Y225169D01*
X539316Y226102D01*
X540730Y226822D01*
X542101Y227267D01*
X542101Y202868D01*
X542102Y202850D01*
X542101Y202833D01*
X542122Y202650D01*
X542141Y202468D01*
X542146Y202451D01*
X542148Y202433D01*
X542161Y202392D01*
X542134Y202298D01*
X542132Y202280D01*
X542128Y202263D01*
X542101Y201932D01*
X542101Y192613D01*
X540730Y193058D01*
X539316Y193778D01*
X538033Y194711D01*
X536911Y195833D01*
X535978Y197116D01*
X535258Y198530D01*
X534718Y200191D01*
X534703Y200226D01*
X534692Y200269D01*
X534670Y200313D01*
X534656Y200360D01*
X534597Y200467D01*
X534556Y200560D01*
X534537Y200588D01*
X534516Y200631D01*
X534486Y200670D01*
X534462Y200713D01*
X534380Y200811D01*
X534325Y200890D01*
X534303Y200911D01*
X534272Y200951D01*
X534235Y200984D01*
X534203Y201022D01*
X534099Y201104D01*
X534033Y201167D01*
X534010Y201182D01*
X533970Y201217D01*
X533927Y201242D01*
X533888Y201273D01*
X533766Y201335D01*
X533693Y201382D01*
X533669Y201391D01*
X533621Y201418D01*
X533574Y201434D01*
X533530Y201457D01*
X533394Y201495D01*
X533316Y201525D01*
X533293Y201529D01*
X533240Y201547D01*
X533190Y201553D01*
X533143Y201566D01*
X532999Y201577D01*
X532919Y201591D01*
X532897Y201590D01*
X532840Y201597D01*
X532791Y201594D01*
X532741Y201597D01*
X532597Y201580D01*
X532517Y201577D01*
X532496Y201572D01*
X532439Y201568D01*
X532391Y201555D01*
X532342Y201549D01*
X532204Y201503D01*
X532125Y201484D01*
X532105Y201475D01*
X532051Y201460D01*
X532006Y201438D01*
X531960Y201422D01*
X531834Y201351D01*
X531759Y201316D01*
X531741Y201303D01*
X531692Y201278D01*
X531653Y201247D01*
X531610Y201223D01*
X531502Y201129D01*
X531434Y201079D01*
X531417Y201062D01*
X531376Y201028D01*
X531344Y200991D01*
X531306Y200958D01*
X531222Y200848D01*
X531161Y200783D01*
X531148Y200760D01*
X531115Y200722D01*
X531091Y200678D01*
X531061Y200639D01*
X530984Y200490D01*
X530953Y200438D01*
X530943Y200411D01*
X530920Y200369D01*
X530916Y200357D01*
X530909Y200344D01*
X529038Y195826D01*
X525774Y192562D01*
X523941Y191803D01*
X521508Y190795D01*
X521128Y190795D01*
X521110Y190793D01*
X521092Y190795D01*
X520910Y190774D01*
X520727Y190755D01*
X520710Y190750D01*
X520693Y190748D01*
X520518Y190691D01*
X520342Y190637D01*
X520327Y190629D01*
X520310Y190623D01*
X520150Y190533D01*
X519988Y190445D01*
X519975Y190434D01*
X519959Y190425D01*
X519820Y190305D01*
X519679Y190188D01*
X519668Y190174D01*
X519654Y190162D01*
X519542Y190017D01*
X519427Y189874D01*
X519419Y189858D01*
X519408Y189844D01*
X519326Y189679D01*
X519241Y189517D01*
X519236Y189500D01*
X519228Y189484D01*
X519181Y189305D01*
X519130Y189130D01*
X519128Y189112D01*
X519124Y189095D01*
X519097Y188764D01*
X519097Y184383D01*
X519099Y184360D01*
X519097Y184338D01*
X519119Y184161D01*
X519137Y183982D01*
X519143Y183961D01*
X519146Y183939D01*
X519202Y183769D01*
X519255Y183597D01*
X519265Y183578D01*
X519272Y183556D01*
X519361Y183400D01*
X519447Y183243D01*
X519461Y183226D01*
X519472Y183207D01*
X519590Y183071D01*
X519704Y182934D01*
X519722Y182920D01*
X519736Y182903D01*
X519878Y182794D01*
X520018Y182682D01*
X520038Y182671D01*
X520056Y182658D01*
X520351Y182506D01*
X522701Y181532D01*
X525532Y178701D01*
X527065Y175002D01*
X527065Y170998D01*
X525532Y167299D01*
X522701Y164468D01*
X520041Y163365D01*
X519002Y162935D01*
X514998Y162935D01*
X511299Y164468D01*
X508468Y167299D01*
X506935Y170998D01*
X506935Y175306D01*
X506932Y175337D01*
X506934Y175368D01*
X506912Y175537D01*
X506903Y175627D01*
X506903Y194188D01*
X506902Y194197D01*
X506903Y194206D01*
X506882Y194397D01*
X506863Y194588D01*
X506861Y194597D01*
X506860Y194606D01*
X506802Y194788D01*
X506745Y194973D01*
X506741Y194981D01*
X506738Y194990D01*
X506645Y195158D01*
X506553Y195327D01*
X506548Y195334D01*
X506543Y195342D01*
X506419Y195489D01*
X506296Y195637D01*
X506289Y195642D01*
X506283Y195649D01*
X506132Y195768D01*
X505982Y195889D01*
X505974Y195893D01*
X505967Y195899D01*
X505794Y195986D01*
X505625Y196074D01*
X505616Y196077D01*
X505608Y196081D01*
X505422Y196133D01*
X505238Y196186D01*
X505229Y196187D01*
X505220Y196189D01*
X505027Y196203D01*
X504836Y196219D01*
X504828Y196218D01*
X504819Y196218D01*
X504626Y196194D01*
X504437Y196172D01*
X504428Y196169D01*
X504419Y196168D01*
X504236Y196107D01*
X504054Y196047D01*
X504046Y196043D01*
X504038Y196040D01*
X503871Y195944D01*
X503703Y195849D01*
X503696Y195843D01*
X503689Y195839D01*
X503436Y195624D01*
X500374Y192562D01*
X498541Y191803D01*
X496108Y190795D01*
X491492Y190795D01*
X487226Y192562D01*
X483962Y195826D01*
X482977Y198205D01*
X482972Y198213D01*
X482970Y198222D01*
X482878Y198389D01*
X482786Y198560D01*
X482781Y198567D01*
X482776Y198575D01*
X482653Y198722D01*
X482530Y198871D01*
X482523Y198876D01*
X482517Y198883D01*
X482367Y199003D01*
X482217Y199124D01*
X482209Y199128D01*
X482203Y199134D01*
X482032Y199222D01*
X481861Y199311D01*
X481852Y199314D01*
X481844Y199318D01*
X481661Y199370D01*
X481475Y199424D01*
X481465Y199425D01*
X481457Y199428D01*
X481266Y199442D01*
X481073Y199459D01*
X481064Y199458D01*
X481056Y199459D01*
X480866Y199436D01*
X480673Y199414D01*
X480665Y199411D01*
X480656Y199410D01*
X480476Y199350D01*
X480290Y199291D01*
X480282Y199286D01*
X480274Y199284D01*
X480108Y199189D01*
X479939Y199094D01*
X479932Y199089D01*
X479924Y199084D01*
X479779Y198958D01*
X479633Y198833D01*
X479627Y198826D01*
X479620Y198820D01*
X479503Y198666D01*
X479384Y198516D01*
X479380Y198508D01*
X479375Y198500D01*
X479223Y198205D01*
X478238Y195826D01*
X474974Y192562D01*
X473141Y191803D01*
X470708Y190795D01*
X466092Y190795D01*
X461826Y192562D01*
X458562Y195826D01*
X457577Y198205D01*
X457572Y198213D01*
X457570Y198222D01*
X457478Y198389D01*
X457386Y198560D01*
X457381Y198567D01*
X457376Y198575D01*
X457253Y198722D01*
X457130Y198871D01*
X457123Y198876D01*
X457117Y198883D01*
X456967Y199003D01*
X456817Y199124D01*
X456809Y199128D01*
X456803Y199134D01*
X456632Y199222D01*
X456461Y199311D01*
X456452Y199314D01*
X456444Y199318D01*
X456261Y199370D01*
X456075Y199424D01*
X456065Y199425D01*
X456057Y199428D01*
X455866Y199442D01*
X455673Y199459D01*
X455664Y199458D01*
X455656Y199459D01*
X455466Y199436D01*
X455273Y199414D01*
X455265Y199411D01*
X455256Y199410D01*
X455076Y199350D01*
X454890Y199291D01*
X454882Y199286D01*
X454874Y199284D01*
X454708Y199189D01*
X454539Y199094D01*
X454532Y199089D01*
X454524Y199084D01*
X454379Y198958D01*
X454233Y198833D01*
X454227Y198826D01*
X454220Y198820D01*
X454103Y198666D01*
X453984Y198516D01*
X453980Y198508D01*
X453975Y198500D01*
X453823Y198205D01*
X452838Y195826D01*
X449574Y192562D01*
X447741Y191803D01*
X445308Y190795D01*
X440692Y190795D01*
X436426Y192562D01*
X433162Y195826D01*
X432177Y198205D01*
X432172Y198213D01*
X432170Y198222D01*
X432077Y198391D01*
X431986Y198560D01*
X431981Y198567D01*
X431976Y198575D01*
X431853Y198722D01*
X431730Y198871D01*
X431723Y198876D01*
X431717Y198883D01*
X431566Y199004D01*
X431417Y199124D01*
X431410Y199128D01*
X431402Y199134D01*
X431229Y199223D01*
X431061Y199311D01*
X431052Y199314D01*
X431044Y199318D01*
X430858Y199371D01*
X430674Y199424D01*
X430665Y199425D01*
X430657Y199428D01*
X430466Y199442D01*
X430273Y199459D01*
X430264Y199458D01*
X430256Y199459D01*
X430064Y199435D01*
X429873Y199414D01*
X429865Y199411D01*
X429856Y199410D01*
X429673Y199350D01*
X429490Y199291D01*
X429482Y199286D01*
X429474Y199284D01*
X429307Y199188D01*
X429138Y199094D01*
X429132Y199089D01*
X429124Y199084D01*
X428980Y198959D01*
X428833Y198833D01*
X428827Y198825D01*
X428820Y198820D01*
X428703Y198666D01*
X428584Y198516D01*
X428580Y198508D01*
X428575Y198500D01*
X428423Y198205D01*
X427438Y195826D01*
X424174Y192562D01*
X422341Y191803D01*
X419908Y190795D01*
X415292Y190795D01*
X411026Y192562D01*
X407762Y195826D01*
X406777Y198205D01*
X406772Y198213D01*
X406770Y198222D01*
X406678Y198389D01*
X406586Y198560D01*
X406581Y198567D01*
X406576Y198575D01*
X406453Y198722D01*
X406330Y198871D01*
X406323Y198876D01*
X406317Y198883D01*
X406167Y199003D01*
X406017Y199124D01*
X406009Y199128D01*
X406003Y199134D01*
X405832Y199222D01*
X405661Y199311D01*
X405652Y199314D01*
X405644Y199318D01*
X405461Y199370D01*
X405275Y199424D01*
X405265Y199425D01*
X405257Y199428D01*
X405066Y199442D01*
X404873Y199459D01*
X404864Y199458D01*
X404856Y199459D01*
X404666Y199436D01*
X404473Y199414D01*
X404465Y199411D01*
X404456Y199410D01*
X404276Y199350D01*
X404090Y199291D01*
X404082Y199286D01*
X404074Y199284D01*
X403908Y199189D01*
X403739Y199094D01*
X403732Y199089D01*
X403724Y199084D01*
X403579Y198958D01*
X403433Y198833D01*
X403427Y198826D01*
X403420Y198820D01*
X403303Y198666D01*
X403184Y198516D01*
X403180Y198508D01*
X403175Y198500D01*
X403023Y198205D01*
X402038Y195826D01*
X399578Y193366D01*
X399567Y193353D01*
X399553Y193341D01*
X399439Y193197D01*
X399323Y193055D01*
X399314Y193039D01*
X399303Y193025D01*
X399220Y192861D01*
X399134Y192699D01*
X399129Y192682D01*
X399121Y192666D01*
X399072Y192490D01*
X399019Y192313D01*
X399018Y192295D01*
X399013Y192278D01*
X399000Y192095D01*
X398983Y191912D01*
X398985Y191895D01*
X398984Y191877D01*
X399007Y191695D01*
X399026Y191512D01*
X399032Y191495D01*
X399034Y191477D01*
X399092Y191304D01*
X399148Y191128D01*
X399157Y191113D01*
X399162Y191096D01*
X399254Y190937D01*
X399343Y190776D01*
X399354Y190762D01*
X399363Y190747D01*
X399578Y190494D01*
X400051Y190021D01*
X400051Y59402D01*
X400053Y59376D01*
X400051Y59349D01*
X400073Y59175D01*
X400091Y59002D01*
X400098Y58976D01*
X400102Y58949D01*
X400158Y58784D01*
X400209Y58617D01*
X400222Y58593D01*
X400230Y58568D01*
X400317Y58417D01*
X400401Y58263D01*
X400418Y58242D01*
X400431Y58219D01*
X400646Y57966D01*
X402038Y56574D01*
X403023Y54195D01*
X403028Y54187D01*
X403030Y54178D01*
X403122Y54011D01*
X403214Y53840D01*
X403219Y53833D01*
X403224Y53825D01*
X403347Y53678D01*
X403470Y53529D01*
X403477Y53524D01*
X403483Y53517D01*
X403633Y53397D01*
X403783Y53276D01*
X403791Y53272D01*
X403797Y53266D01*
X403968Y53178D01*
X404139Y53089D01*
X404148Y53086D01*
X404156Y53082D01*
X404339Y53030D01*
X404525Y52976D01*
X404535Y52975D01*
X404543Y52972D01*
X404734Y52958D01*
X404927Y52941D01*
X404936Y52942D01*
X404944Y52941D01*
X405134Y52964D01*
X405327Y52986D01*
X405335Y52989D01*
X405344Y52990D01*
X405524Y53050D01*
X405710Y53109D01*
X405718Y53114D01*
X405726Y53116D01*
X405892Y53211D01*
X406061Y53306D01*
X406068Y53311D01*
X406076Y53316D01*
X406221Y53442D01*
X406367Y53567D01*
X406373Y53574D01*
X406380Y53580D01*
X406497Y53733D01*
X406616Y53884D01*
X406620Y53892D01*
X406625Y53900D01*
X406777Y54195D01*
X407762Y56574D01*
X411026Y59838D01*
X415292Y61605D01*
X419908Y61605D01*
X424174Y59838D01*
X427438Y56574D01*
X428423Y54195D01*
X428428Y54187D01*
X428430Y54178D01*
X428522Y54011D01*
X428614Y53840D01*
X428619Y53833D01*
X428624Y53825D01*
X428747Y53678D01*
X428870Y53529D01*
X428877Y53524D01*
X428883Y53517D01*
X429033Y53397D01*
X429183Y53276D01*
X429191Y53272D01*
X429197Y53266D01*
X429368Y53178D01*
X429539Y53089D01*
X429548Y53086D01*
X429556Y53082D01*
X429739Y53030D01*
X429925Y52976D01*
X429935Y52975D01*
X429943Y52972D01*
X430134Y52958D01*
X430327Y52941D01*
X430336Y52942D01*
X430344Y52941D01*
X430534Y52964D01*
X430727Y52986D01*
X430735Y52989D01*
X430744Y52990D01*
X430924Y53050D01*
X431110Y53109D01*
X431118Y53114D01*
X431126Y53116D01*
X431292Y53211D01*
X431461Y53306D01*
X431468Y53311D01*
X431476Y53316D01*
X431621Y53442D01*
X431767Y53567D01*
X431773Y53574D01*
X431780Y53580D01*
X431897Y53733D01*
X432016Y53884D01*
X432020Y53892D01*
X432025Y53900D01*
X432177Y54195D01*
X433162Y56574D01*
X436426Y59838D01*
X440692Y61605D01*
X445308Y61605D01*
X449574Y59838D01*
X452838Y56574D01*
X453823Y54195D01*
X453828Y54187D01*
X453830Y54178D01*
X453922Y54011D01*
X454014Y53840D01*
X454019Y53833D01*
X454024Y53825D01*
X454147Y53678D01*
X454270Y53529D01*
X454277Y53524D01*
X454283Y53517D01*
X454433Y53397D01*
X454583Y53276D01*
X454591Y53272D01*
X454597Y53266D01*
X454768Y53178D01*
X454939Y53089D01*
X454948Y53086D01*
X454956Y53082D01*
X455139Y53030D01*
X455325Y52976D01*
X455335Y52975D01*
X455343Y52972D01*
X455534Y52958D01*
X455727Y52941D01*
X455736Y52942D01*
X455744Y52941D01*
X455934Y52964D01*
X456127Y52986D01*
X456135Y52989D01*
X456144Y52990D01*
X456324Y53050D01*
X456510Y53109D01*
X456518Y53114D01*
X456526Y53116D01*
X456692Y53211D01*
X456861Y53306D01*
X456868Y53311D01*
X456876Y53316D01*
X457021Y53442D01*
X457167Y53567D01*
X457173Y53574D01*
X457180Y53580D01*
X457297Y53733D01*
X457416Y53884D01*
X457420Y53892D01*
X457425Y53900D01*
X457577Y54195D01*
X458562Y56574D01*
X461826Y59838D01*
X466092Y61605D01*
X470708Y61605D01*
X474974Y59838D01*
X478238Y56574D01*
X479223Y54195D01*
X479228Y54187D01*
X479230Y54178D01*
X479322Y54010D01*
X479414Y53840D01*
X479419Y53833D01*
X479424Y53825D01*
X479547Y53678D01*
X479670Y53529D01*
X479677Y53524D01*
X479683Y53517D01*
X479833Y53397D01*
X479983Y53276D01*
X479991Y53272D01*
X479997Y53266D01*
X480168Y53178D01*
X480339Y53089D01*
X480348Y53086D01*
X480356Y53082D01*
X480540Y53030D01*
X480726Y52976D01*
X480734Y52975D01*
X480743Y52972D01*
X480934Y52958D01*
X481127Y52941D01*
X481136Y52942D01*
X481144Y52941D01*
X481334Y52964D01*
X481527Y52986D01*
X481535Y52989D01*
X481544Y52990D01*
X481726Y53050D01*
X481910Y53109D01*
X481918Y53114D01*
X481926Y53116D01*
X482094Y53212D01*
X482262Y53306D01*
X482268Y53311D01*
X482276Y53316D01*
X482421Y53442D01*
X482567Y53567D01*
X482573Y53575D01*
X482580Y53580D01*
X482697Y53734D01*
X482816Y53884D01*
X482820Y53892D01*
X482825Y53900D01*
X482977Y54195D01*
X483962Y56574D01*
X487226Y59838D01*
X491492Y61605D01*
X496108Y61605D01*
X500374Y59838D01*
X503638Y56574D01*
X504623Y54195D01*
X504628Y54187D01*
X504630Y54178D01*
X504722Y54010D01*
X504814Y53840D01*
X504819Y53833D01*
X504824Y53825D01*
X504947Y53678D01*
X505070Y53529D01*
X505077Y53524D01*
X505083Y53517D01*
X505233Y53397D01*
X505383Y53276D01*
X505391Y53272D01*
X505397Y53266D01*
X505568Y53178D01*
X505739Y53089D01*
X505748Y53086D01*
X505756Y53082D01*
X505940Y53030D01*
X506126Y52976D01*
X506134Y52975D01*
X506143Y52972D01*
X506334Y52958D01*
X506527Y52941D01*
X506536Y52942D01*
X506544Y52941D01*
X506734Y52964D01*
X506927Y52986D01*
X506935Y52989D01*
X506944Y52990D01*
X507126Y53050D01*
X507310Y53109D01*
X507318Y53114D01*
X507326Y53116D01*
X507494Y53212D01*
X507662Y53306D01*
X507668Y53311D01*
X507676Y53316D01*
X507821Y53442D01*
X507967Y53567D01*
X507973Y53575D01*
X507980Y53580D01*
X508097Y53734D01*
X508216Y53884D01*
X508220Y53892D01*
X508225Y53900D01*
X508377Y54195D01*
X509362Y56574D01*
X512626Y59838D01*
X516892Y61605D01*
X521508Y61605D01*
X525774Y59838D01*
X529038Y56574D01*
X530023Y54195D01*
X530028Y54187D01*
X530030Y54178D01*
X530122Y54010D01*
X530214Y53840D01*
X530219Y53833D01*
X530224Y53825D01*
X530347Y53678D01*
X530470Y53529D01*
X530477Y53524D01*
X530483Y53517D01*
X530633Y53397D01*
X530783Y53276D01*
X530791Y53272D01*
X530797Y53266D01*
X530968Y53178D01*
X531139Y53089D01*
X531148Y53086D01*
X531156Y53082D01*
X531340Y53030D01*
X531526Y52976D01*
X531534Y52975D01*
X531543Y52972D01*
X531734Y52958D01*
X531927Y52941D01*
X531936Y52942D01*
X531944Y52941D01*
X532134Y52964D01*
X532327Y52986D01*
X532335Y52989D01*
X532344Y52990D01*
X532526Y53050D01*
X532710Y53109D01*
X532718Y53114D01*
X532726Y53116D01*
X532894Y53212D01*
X533062Y53306D01*
X533068Y53311D01*
X533076Y53316D01*
X533221Y53442D01*
X533367Y53567D01*
X533373Y53575D01*
X533380Y53580D01*
X533497Y53734D01*
X533616Y53884D01*
X533620Y53892D01*
X533625Y53900D01*
X533777Y54195D01*
X534762Y56574D01*
X538026Y59838D01*
X542292Y61605D01*
X546908Y61605D01*
X551174Y59838D01*
X554438Y56574D01*
X555423Y54195D01*
X555428Y54187D01*
X555430Y54178D01*
X555522Y54010D01*
X555614Y53840D01*
X555619Y53833D01*
X555624Y53825D01*
X555747Y53678D01*
X555870Y53529D01*
X555877Y53524D01*
X555883Y53517D01*
X556033Y53397D01*
X556183Y53276D01*
X556191Y53272D01*
X556197Y53266D01*
X556368Y53178D01*
X556539Y53089D01*
X556548Y53086D01*
X556556Y53082D01*
X556740Y53030D01*
X556926Y52976D01*
X556934Y52975D01*
X556943Y52972D01*
X557134Y52958D01*
X557327Y52941D01*
X557336Y52942D01*
X557344Y52941D01*
X557534Y52964D01*
X557727Y52986D01*
X557735Y52989D01*
X557744Y52990D01*
X557926Y53050D01*
X558110Y53109D01*
X558118Y53114D01*
X558126Y53116D01*
X558294Y53212D01*
X558462Y53306D01*
X558468Y53311D01*
X558476Y53316D01*
X558621Y53442D01*
X558767Y53567D01*
X558773Y53575D01*
X558780Y53580D01*
X558897Y53734D01*
X559016Y53884D01*
X559020Y53892D01*
X559025Y53900D01*
X559177Y54195D01*
X560162Y56574D01*
X563426Y59838D01*
X567692Y61605D01*
X572308Y61605D01*
X576871Y59715D01*
X576884Y59711D01*
X576895Y59705D01*
X577076Y59653D01*
X577256Y59598D01*
X577269Y59597D01*
X577282Y59594D01*
X577470Y59578D01*
X577657Y59560D01*
X577670Y59562D01*
X577684Y59561D01*
X577871Y59583D01*
X578057Y59602D01*
X578070Y59606D01*
X578083Y59608D01*
X578263Y59666D01*
X578442Y59722D01*
X578453Y59728D01*
X578466Y59732D01*
X578631Y59825D01*
X578795Y59915D01*
X578805Y59924D01*
X578817Y59930D01*
X578959Y60053D01*
X579103Y60174D01*
X579111Y60185D01*
X579122Y60193D01*
X579237Y60342D01*
X579354Y60489D01*
X579360Y60501D01*
X579368Y60512D01*
X579452Y60680D01*
X579538Y60847D01*
X579542Y60860D01*
X579548Y60872D01*
X579597Y61055D01*
X579648Y61235D01*
X579649Y61248D01*
X579652Y61261D01*
X579679Y61592D01*
X579679Y109420D01*
X579677Y109447D01*
X579679Y109474D01*
X579657Y109648D01*
X579639Y109821D01*
X579632Y109847D01*
X579628Y109873D01*
X579573Y110039D01*
X579521Y110206D01*
X579508Y110230D01*
X579500Y110255D01*
X579413Y110407D01*
X579329Y110560D01*
X579312Y110580D01*
X579299Y110604D01*
X579084Y110857D01*
X553970Y135971D01*
X552887Y138585D01*
X552887Y141415D01*
X553241Y142268D01*
X553250Y142298D01*
X553264Y142326D01*
X553308Y142490D01*
X553357Y142653D01*
X553360Y142684D01*
X553368Y142715D01*
X553395Y143045D01*
X553395Y146177D01*
X553392Y146208D01*
X553394Y146239D01*
X553372Y146408D01*
X553355Y146578D01*
X553346Y146607D01*
X553342Y146638D01*
X553241Y146954D01*
X552935Y147691D01*
X552935Y157309D01*
X553554Y158802D01*
X554698Y159946D01*
X556191Y160565D01*
X563809Y160565D01*
X565302Y159946D01*
X566446Y158802D01*
X567065Y157309D01*
X567065Y147691D01*
X566759Y146954D01*
X566750Y146924D01*
X566736Y146896D01*
X566692Y146731D01*
X566643Y146569D01*
X566640Y146538D01*
X566632Y146508D01*
X566605Y146177D01*
X566605Y144296D01*
X566607Y144269D01*
X566605Y144242D01*
X566627Y144068D01*
X566645Y143895D01*
X566652Y143869D01*
X566656Y143843D01*
X566711Y143677D01*
X566763Y143510D01*
X566776Y143486D01*
X566784Y143461D01*
X566871Y143309D01*
X566955Y143156D01*
X566972Y143136D01*
X566985Y143112D01*
X567200Y142859D01*
X586372Y123687D01*
X586379Y123682D01*
X586384Y123675D01*
X586534Y123554D01*
X586683Y123432D01*
X586691Y123428D01*
X586698Y123422D01*
X586869Y123333D01*
X587039Y123244D01*
X587047Y123241D01*
X587055Y123237D01*
X587241Y123184D01*
X587425Y123129D01*
X587434Y123128D01*
X587442Y123125D01*
X587634Y123110D01*
X587826Y123092D01*
X587835Y123093D01*
X587844Y123093D01*
X588033Y123115D01*
X588226Y123136D01*
X588235Y123138D01*
X588243Y123139D01*
X588425Y123199D01*
X588610Y123257D01*
X588618Y123262D01*
X588626Y123264D01*
X588795Y123359D01*
X588962Y123452D01*
X588969Y123458D01*
X588977Y123462D01*
X589123Y123588D01*
X589269Y123713D01*
X589275Y123720D01*
X589282Y123725D01*
X589399Y123877D01*
X589519Y124028D01*
X589523Y124036D01*
X589528Y124043D01*
X589614Y124216D01*
X589701Y124387D01*
X589704Y124396D01*
X589708Y124404D01*
X589758Y124590D01*
X589809Y124775D01*
X589810Y124784D01*
X589812Y124793D01*
X589839Y125124D01*
X589839Y437808D01*
X589837Y437826D01*
X589839Y437844D01*
X589818Y438026D01*
X589799Y438209D01*
X589794Y438226D01*
X589792Y438243D01*
X589735Y438418D01*
X589681Y438594D01*
X589673Y438609D01*
X589667Y438626D01*
X589577Y438786D01*
X589489Y438948D01*
X589478Y438961D01*
X589469Y438977D01*
X589349Y439116D01*
X589232Y439257D01*
X589218Y439268D01*
X589206Y439282D01*
X589061Y439394D01*
X588918Y439509D01*
X588902Y439517D01*
X588888Y439528D01*
X588723Y439610D01*
X588561Y439695D01*
X588544Y439700D01*
X588528Y439708D01*
X588349Y439755D01*
X588174Y439806D01*
X588156Y439808D01*
X588139Y439812D01*
X587808Y439839D01*
X510304Y439839D01*
X510295Y439838D01*
X510286Y439839D01*
X510092Y439818D01*
X509903Y439799D01*
X509895Y439797D01*
X509886Y439796D01*
X509702Y439738D01*
X509518Y439681D01*
X509510Y439677D01*
X509502Y439674D01*
X509333Y439581D01*
X509164Y439489D01*
X509157Y439484D01*
X509149Y439479D01*
X509003Y439355D01*
X508855Y439232D01*
X508849Y439225D01*
X508843Y439219D01*
X508723Y439068D01*
X508603Y438918D01*
X508598Y438910D01*
X508593Y438903D01*
X508505Y438730D01*
X508417Y438561D01*
X508415Y438552D01*
X508411Y438544D01*
X508359Y438358D01*
X508306Y438174D01*
X508305Y438165D01*
X508303Y438156D01*
X508288Y437963D01*
X508273Y437772D01*
X508274Y437764D01*
X508273Y437755D01*
X508297Y437562D01*
X508320Y437373D01*
X508322Y437364D01*
X508324Y437355D01*
X508385Y437172D01*
X508445Y436990D01*
X508449Y436982D01*
X508452Y436974D01*
X508548Y436807D01*
X508642Y436639D01*
X508648Y436632D01*
X508653Y436625D01*
X508867Y436372D01*
X514865Y430374D01*
X514865Y411226D01*
X501324Y397685D01*
X482176Y397685D01*
X468635Y411226D01*
X468635Y430374D01*
X474633Y436372D01*
X474638Y436379D01*
X474645Y436384D01*
X474765Y436534D01*
X474888Y436683D01*
X474892Y436691D01*
X474897Y436698D01*
X474986Y436868D01*
X475076Y437039D01*
X475079Y437048D01*
X475083Y437055D01*
X475136Y437240D01*
X475191Y437425D01*
X475192Y437434D01*
X475194Y437442D01*
X475210Y437634D01*
X475227Y437826D01*
X475226Y437835D01*
X475227Y437844D01*
X475205Y438033D01*
X475184Y438226D01*
X475181Y438235D01*
X475180Y438243D01*
X475121Y438425D01*
X475063Y438610D01*
X475058Y438618D01*
X475055Y438626D01*
X474960Y438795D01*
X474868Y438962D01*
X474862Y438969D01*
X474858Y438977D01*
X474732Y439123D01*
X474607Y439269D01*
X474600Y439275D01*
X474594Y439282D01*
X474443Y439399D01*
X474291Y439519D01*
X474283Y439523D01*
X474276Y439528D01*
X474104Y439614D01*
X473932Y439701D01*
X473924Y439704D01*
X473916Y439708D01*
X473729Y439758D01*
X473544Y439809D01*
X473536Y439810D01*
X473527Y439812D01*
X473196Y439839D01*
X355050Y439839D01*
X355024Y439837D01*
X354997Y439839D01*
X354823Y439817D01*
X354649Y439799D01*
X354624Y439792D01*
X354597Y439788D01*
X354432Y439733D01*
X354265Y439681D01*
X354241Y439668D01*
X354216Y439660D01*
X354064Y439573D01*
X353911Y439489D01*
X353890Y439472D01*
X353867Y439459D01*
X353614Y439244D01*
X328252Y413882D01*
X328246Y413875D01*
X328239Y413870D01*
X328119Y413720D01*
X327997Y413571D01*
X327992Y413563D01*
X327987Y413556D01*
X327898Y413385D01*
X327808Y413215D01*
X327805Y413207D01*
X327801Y413199D01*
X327748Y413013D01*
X327693Y412829D01*
X327692Y412820D01*
X327690Y412812D01*
X327674Y412620D01*
X327657Y412428D01*
X327658Y412419D01*
X327657Y412410D01*
X327679Y412221D01*
X327700Y412028D01*
X327703Y412019D01*
X327704Y412011D01*
X327763Y411829D01*
X327822Y411644D01*
X327826Y411636D01*
X327829Y411628D01*
X327924Y411459D01*
X328017Y411292D01*
X328022Y411285D01*
X328027Y411277D01*
X328153Y411131D01*
X328277Y410985D01*
X328284Y410979D01*
X328290Y410972D01*
X328441Y410855D01*
X328593Y410735D01*
X328601Y410731D01*
X328608Y410726D01*
X328780Y410640D01*
X328952Y410553D01*
X328960Y410550D01*
X328969Y410546D01*
X329155Y410496D01*
X329340Y410445D01*
X329349Y410444D01*
X329357Y410442D01*
X329688Y410415D01*
X372072Y410415D01*
X375899Y408829D01*
X379115Y405614D01*
X403719Y381010D01*
X403740Y380993D01*
X403757Y380972D01*
X403895Y380865D01*
X404030Y380755D01*
X404054Y380742D01*
X404075Y380726D01*
X404232Y380648D01*
X404386Y380566D01*
X404412Y380558D01*
X404436Y380546D01*
X404605Y380501D01*
X404772Y380451D01*
X404799Y380449D01*
X404825Y380442D01*
X405155Y380415D01*
X412612Y380415D01*
X412638Y380417D01*
X412665Y380415D01*
X412839Y380437D01*
X413012Y380455D01*
X413038Y380462D01*
X413064Y380466D01*
X413230Y380521D01*
X413397Y380573D01*
X413421Y380586D01*
X413446Y380594D01*
X413598Y380681D01*
X413751Y380765D01*
X413772Y380782D01*
X413795Y380795D01*
X414048Y381010D01*
X419201Y386162D01*
X426208Y389065D01*
X433792Y389065D01*
X440842Y386145D01*
X440869Y386123D01*
X441011Y386007D01*
X441027Y385998D01*
X441041Y385987D01*
X441206Y385904D01*
X441367Y385818D01*
X441384Y385813D01*
X441400Y385805D01*
X441577Y385755D01*
X441753Y385703D01*
X441771Y385702D01*
X441788Y385697D01*
X441971Y385683D01*
X442154Y385667D01*
X442172Y385669D01*
X442190Y385667D01*
X442372Y385690D01*
X442554Y385710D01*
X442571Y385716D01*
X442589Y385718D01*
X442763Y385776D01*
X442938Y385832D01*
X442954Y385840D01*
X442971Y385846D01*
X443130Y385938D01*
X443290Y386026D01*
X443304Y386038D01*
X443320Y386047D01*
X443573Y386262D01*
X450426Y393115D01*
X469574Y393115D01*
X483115Y379574D01*
X483115Y360426D01*
X469574Y346885D01*
X450426Y346885D01*
X443573Y353738D01*
X443559Y353750D01*
X443547Y353763D01*
X443403Y353877D01*
X443261Y353993D01*
X443245Y354002D01*
X443231Y354013D01*
X443067Y354096D01*
X442905Y354182D01*
X442888Y354187D01*
X442872Y354195D01*
X442695Y354245D01*
X442519Y354297D01*
X442502Y354298D01*
X442484Y354303D01*
X442302Y354317D01*
X442118Y354333D01*
X442100Y354331D01*
X442083Y354333D01*
X441902Y354310D01*
X441718Y354290D01*
X441701Y354284D01*
X441683Y354282D01*
X441510Y354224D01*
X441334Y354168D01*
X441319Y354160D01*
X441302Y354154D01*
X441142Y354062D01*
X440982Y353973D01*
X440968Y353962D01*
X440953Y353953D01*
X440834Y353852D01*
X433792Y350935D01*
X426208Y350935D01*
X419201Y353838D01*
X414048Y358990D01*
X414027Y359007D01*
X414010Y359028D01*
X413872Y359135D01*
X413737Y359245D01*
X413713Y359258D01*
X413692Y359274D01*
X413535Y359352D01*
X413381Y359434D01*
X413355Y359442D01*
X413331Y359454D01*
X413162Y359499D01*
X412995Y359549D01*
X412968Y359551D01*
X412942Y359558D01*
X412612Y359585D01*
X397928Y359585D01*
X394101Y361171D01*
X366281Y388990D01*
X366260Y389007D01*
X366243Y389028D01*
X366105Y389134D01*
X365970Y389245D01*
X365946Y389258D01*
X365925Y389274D01*
X365768Y389352D01*
X365614Y389434D01*
X365588Y389442D01*
X365564Y389454D01*
X365395Y389499D01*
X365228Y389549D01*
X365201Y389551D01*
X365175Y389558D01*
X364845Y389585D01*
X328504Y389585D01*
X328477Y389583D01*
X328451Y389585D01*
X328277Y389563D01*
X328103Y389545D01*
X328078Y389538D01*
X328051Y389534D01*
X327886Y389479D01*
X327718Y389427D01*
X327695Y389414D01*
X327670Y389406D01*
X327518Y389319D01*
X327364Y389235D01*
X327344Y389218D01*
X327321Y389205D01*
X327068Y388990D01*
X292684Y354607D01*
X292667Y354586D01*
X292647Y354568D01*
X292540Y354431D01*
X292429Y354295D01*
X292416Y354272D01*
X292400Y354250D01*
X292322Y354093D01*
X292240Y353939D01*
X292233Y353914D01*
X292221Y353890D01*
X292175Y353720D01*
X292126Y353554D01*
X292123Y353527D01*
X292116Y353501D01*
X292089Y353170D01*
X292089Y323481D01*
X292092Y323454D01*
X292090Y323428D01*
X292112Y323254D01*
X292129Y323080D01*
X292137Y323055D01*
X292140Y323028D01*
X292196Y322863D01*
X292247Y322695D01*
X292260Y322672D01*
X292268Y322647D01*
X292356Y322494D01*
X292439Y322341D01*
X292456Y322321D01*
X292469Y322298D01*
X292684Y322045D01*
X298829Y315899D01*
X300415Y312072D01*
X300415Y307563D01*
X300416Y307554D01*
X300415Y307546D01*
X300436Y307354D01*
X300455Y307163D01*
X300457Y307154D01*
X300458Y307145D01*
X300516Y306963D01*
X300573Y306778D01*
X300577Y306770D01*
X300580Y306761D01*
X300673Y306593D01*
X300765Y306424D01*
X300770Y306417D01*
X300775Y306409D01*
X300900Y306261D01*
X301022Y306114D01*
X301029Y306109D01*
X301035Y306102D01*
X301187Y305982D01*
X301336Y305862D01*
X301344Y305858D01*
X301351Y305852D01*
X301523Y305765D01*
X301693Y305677D01*
X301702Y305674D01*
X301710Y305670D01*
X301896Y305618D01*
X302080Y305565D01*
X302089Y305565D01*
X302098Y305562D01*
X302290Y305548D01*
X302482Y305532D01*
X302490Y305533D01*
X302499Y305533D01*
X302692Y305557D01*
X302881Y305579D01*
X302890Y305582D01*
X302899Y305583D01*
X303082Y305645D01*
X303264Y305704D01*
X303272Y305709D01*
X303280Y305711D01*
X303446Y305807D01*
X303615Y305902D01*
X303622Y305908D01*
X303629Y305912D01*
X303882Y306127D01*
X305281Y307526D01*
X306185Y307900D01*
X309576Y309305D01*
X314224Y309305D01*
X318519Y307526D01*
X321806Y304239D01*
X322723Y302024D01*
X322728Y302016D01*
X322730Y302007D01*
X322822Y301839D01*
X322914Y301669D01*
X322919Y301662D01*
X322924Y301654D01*
X323047Y301507D01*
X323170Y301358D01*
X323177Y301353D01*
X323183Y301346D01*
X323333Y301226D01*
X323483Y301105D01*
X323491Y301101D01*
X323497Y301095D01*
X323668Y301007D01*
X323839Y300918D01*
X323848Y300915D01*
X323856Y300911D01*
X324039Y300859D01*
X324225Y300805D01*
X324235Y300804D01*
X324243Y300801D01*
X324434Y300787D01*
X324627Y300770D01*
X324636Y300771D01*
X324644Y300770D01*
X324834Y300793D01*
X325027Y300815D01*
X325035Y300818D01*
X325044Y300819D01*
X325226Y300879D01*
X325410Y300938D01*
X325418Y300943D01*
X325426Y300945D01*
X325594Y301041D01*
X325761Y301135D01*
X325768Y301140D01*
X325776Y301145D01*
X325921Y301271D01*
X326067Y301396D01*
X326073Y301404D01*
X326080Y301409D01*
X326197Y301562D01*
X326316Y301713D01*
X326320Y301722D01*
X326325Y301729D01*
X326477Y302024D01*
X327394Y304239D01*
X330681Y307526D01*
X331585Y307900D01*
X334976Y309305D01*
X339624Y309305D01*
X343919Y307526D01*
X347206Y304239D01*
X348123Y302024D01*
X348128Y302016D01*
X348130Y302007D01*
X348222Y301839D01*
X348314Y301669D01*
X348319Y301662D01*
X348324Y301654D01*
X348447Y301507D01*
X348570Y301358D01*
X348577Y301353D01*
X348583Y301346D01*
X348733Y301226D01*
X348883Y301105D01*
X348891Y301101D01*
X348897Y301095D01*
X349068Y301007D01*
X349239Y300918D01*
X349248Y300915D01*
X349256Y300911D01*
X349439Y300859D01*
X349625Y300805D01*
X349635Y300804D01*
X349643Y300801D01*
X349834Y300787D01*
X350027Y300770D01*
X350036Y300771D01*
X350044Y300770D01*
X350234Y300793D01*
X350427Y300815D01*
X350435Y300818D01*
X350444Y300819D01*
X350626Y300879D01*
X350810Y300938D01*
X350818Y300943D01*
X350826Y300945D01*
X350994Y301041D01*
X351161Y301135D01*
X351168Y301140D01*
X351176Y301145D01*
X351321Y301271D01*
X351467Y301396D01*
X351473Y301404D01*
X351480Y301409D01*
X351597Y301562D01*
X351716Y301713D01*
X351720Y301722D01*
X351725Y301729D01*
X351877Y302024D01*
X352794Y304239D01*
X356081Y307526D01*
X356985Y307900D01*
X360376Y309305D01*
X365024Y309305D01*
X369319Y307526D01*
X372606Y304239D01*
X374400Y299908D01*
X374442Y299830D01*
X374475Y299747D01*
X374537Y299652D01*
X374590Y299553D01*
X374647Y299484D01*
X374695Y299410D01*
X374775Y299330D01*
X374846Y299242D01*
X374915Y299187D01*
X374978Y299123D01*
X375071Y299060D01*
X375159Y298989D01*
X375238Y298947D01*
X375311Y298898D01*
X375416Y298854D01*
X375516Y298802D01*
X375601Y298777D01*
X375683Y298742D01*
X375794Y298720D01*
X375902Y298689D01*
X375991Y298681D01*
X376078Y298664D01*
X376190Y298664D01*
X376303Y298654D01*
X376391Y298664D01*
X376480Y298664D01*
X376591Y298686D01*
X376703Y298699D01*
X376788Y298726D01*
X376875Y298744D01*
X376979Y298788D01*
X377087Y298822D01*
X377164Y298866D01*
X377246Y298900D01*
X377339Y298963D01*
X377438Y299019D01*
X377505Y299076D01*
X377579Y299126D01*
X377658Y299207D01*
X377744Y299280D01*
X377799Y299350D01*
X377861Y299414D01*
X377922Y299508D01*
X377992Y299597D01*
X378032Y299677D01*
X378080Y299751D01*
X378135Y299882D01*
X378173Y299957D01*
X378185Y300002D01*
X378208Y300057D01*
X378684Y301520D01*
X379410Y302945D01*
X380350Y304239D01*
X381481Y305370D01*
X382775Y306310D01*
X384200Y307036D01*
X385561Y307479D01*
X385561Y290508D01*
X385562Y290490D01*
X385561Y290473D01*
X385582Y290290D01*
X385601Y290108D01*
X385606Y290091D01*
X385608Y290073D01*
X385633Y289995D01*
X385594Y289858D01*
X385592Y289840D01*
X385588Y289823D01*
X385561Y289492D01*
X385561Y272521D01*
X384200Y272964D01*
X382775Y273690D01*
X381481Y274630D01*
X380350Y275761D01*
X379410Y277055D01*
X378684Y278480D01*
X378208Y279943D01*
X378173Y280024D01*
X378146Y280109D01*
X378140Y280121D01*
X378139Y280123D01*
X378122Y280154D01*
X378092Y280208D01*
X378047Y280311D01*
X377996Y280384D01*
X377953Y280462D01*
X377880Y280548D01*
X377815Y280641D01*
X377751Y280702D01*
X377694Y280770D01*
X377606Y280840D01*
X377524Y280918D01*
X377448Y280966D01*
X377379Y281021D01*
X377279Y281073D01*
X377183Y281133D01*
X377100Y281164D01*
X377021Y281205D01*
X376912Y281236D01*
X376806Y281276D01*
X376719Y281290D01*
X376633Y281315D01*
X376521Y281323D01*
X376409Y281342D01*
X376320Y281339D01*
X376232Y281346D01*
X376120Y281332D01*
X376007Y281328D01*
X375920Y281308D01*
X375832Y281297D01*
X375725Y281262D01*
X375615Y281236D01*
X375534Y281198D01*
X375450Y281171D01*
X375352Y281115D01*
X375249Y281067D01*
X375178Y281015D01*
X375100Y280971D01*
X375015Y280897D01*
X374924Y280830D01*
X374864Y280765D01*
X374797Y280707D01*
X374728Y280617D01*
X374652Y280534D01*
X374606Y280458D01*
X374601Y280452D01*
X374571Y280415D01*
X374568Y280409D01*
X374551Y280387D01*
X374487Y280262D01*
X374443Y280189D01*
X374427Y280146D01*
X374400Y280092D01*
X372606Y275761D01*
X369319Y272474D01*
X365024Y270695D01*
X360376Y270695D01*
X356081Y272474D01*
X352794Y275761D01*
X351877Y277976D01*
X351872Y277984D01*
X351870Y277993D01*
X351777Y278162D01*
X351686Y278331D01*
X351681Y278338D01*
X351676Y278346D01*
X351553Y278493D01*
X351430Y278642D01*
X351423Y278647D01*
X351417Y278654D01*
X351267Y278774D01*
X351117Y278895D01*
X351110Y278899D01*
X351102Y278905D01*
X350930Y278994D01*
X350761Y279082D01*
X350752Y279085D01*
X350744Y279089D01*
X350558Y279142D01*
X350374Y279195D01*
X350365Y279196D01*
X350357Y279199D01*
X350166Y279213D01*
X349973Y279230D01*
X349964Y279229D01*
X349956Y279230D01*
X349764Y279206D01*
X349573Y279185D01*
X349565Y279182D01*
X349556Y279181D01*
X349373Y279121D01*
X349190Y279062D01*
X349182Y279057D01*
X349174Y279055D01*
X349007Y278959D01*
X348838Y278865D01*
X348832Y278859D01*
X348824Y278855D01*
X348680Y278729D01*
X348533Y278604D01*
X348527Y278596D01*
X348520Y278591D01*
X348403Y278438D01*
X348284Y278286D01*
X348280Y278279D01*
X348275Y278271D01*
X348123Y277976D01*
X347206Y275761D01*
X343919Y272474D01*
X339624Y270695D01*
X334976Y270695D01*
X330681Y272474D01*
X327394Y275761D01*
X326477Y277976D01*
X326472Y277984D01*
X326470Y277993D01*
X326377Y278162D01*
X326286Y278331D01*
X326281Y278338D01*
X326276Y278346D01*
X326153Y278493D01*
X326030Y278642D01*
X326023Y278647D01*
X326017Y278654D01*
X325867Y278774D01*
X325717Y278895D01*
X325710Y278899D01*
X325702Y278905D01*
X325530Y278994D01*
X325361Y279082D01*
X325352Y279085D01*
X325344Y279089D01*
X325158Y279142D01*
X324974Y279195D01*
X324965Y279196D01*
X324957Y279199D01*
X324766Y279213D01*
X324573Y279230D01*
X324564Y279229D01*
X324556Y279230D01*
X324364Y279206D01*
X324173Y279185D01*
X324165Y279182D01*
X324156Y279181D01*
X323973Y279121D01*
X323790Y279062D01*
X323782Y279057D01*
X323774Y279055D01*
X323607Y278959D01*
X323438Y278865D01*
X323432Y278859D01*
X323424Y278855D01*
X323280Y278729D01*
X323133Y278604D01*
X323127Y278596D01*
X323120Y278591D01*
X323003Y278438D01*
X322884Y278286D01*
X322880Y278279D01*
X322875Y278271D01*
X322723Y277976D01*
X321806Y275761D01*
X318519Y272474D01*
X314224Y270695D01*
X309576Y270695D01*
X305281Y272474D01*
X302612Y275143D01*
X302605Y275149D01*
X302600Y275156D01*
X302450Y275276D01*
X302301Y275398D01*
X302293Y275402D01*
X302286Y275408D01*
X302116Y275496D01*
X301945Y275587D01*
X301936Y275589D01*
X301929Y275593D01*
X301744Y275646D01*
X301559Y275701D01*
X301550Y275702D01*
X301542Y275705D01*
X301351Y275720D01*
X301158Y275738D01*
X301149Y275737D01*
X301140Y275738D01*
X300951Y275715D01*
X300758Y275694D01*
X300749Y275692D01*
X300741Y275691D01*
X300559Y275631D01*
X300374Y275573D01*
X300366Y275569D01*
X300358Y275566D01*
X300189Y275471D01*
X300022Y275378D01*
X300015Y275372D01*
X300007Y275368D01*
X299861Y275242D01*
X299715Y275118D01*
X299709Y275111D01*
X299702Y275105D01*
X299585Y274953D01*
X299465Y274802D01*
X299461Y274794D01*
X299456Y274787D01*
X299370Y274615D01*
X299283Y274443D01*
X299280Y274434D01*
X299276Y274426D01*
X299226Y274240D01*
X299175Y274055D01*
X299174Y274046D01*
X299172Y274037D01*
X299145Y273707D01*
X299145Y238181D01*
X297753Y234820D01*
X274404Y211471D01*
X271056Y210084D01*
X271055Y210084D01*
X271043Y210079D01*
X256818Y210079D01*
X256791Y210076D01*
X256764Y210078D01*
X256590Y210056D01*
X256417Y210039D01*
X256391Y210031D01*
X256365Y210028D01*
X256199Y209972D01*
X256032Y209921D01*
X256008Y209908D01*
X255983Y209900D01*
X255831Y209812D01*
X255678Y209729D01*
X255658Y209712D01*
X255634Y209699D01*
X255381Y209484D01*
X254516Y208619D01*
X245731Y208619D01*
X239519Y214831D01*
X239519Y223616D01*
X245731Y229828D01*
X254516Y229828D01*
X255381Y228963D01*
X255402Y228946D01*
X255419Y228926D01*
X255557Y228819D01*
X255693Y228708D01*
X255716Y228696D01*
X255738Y228679D01*
X255894Y228601D01*
X256048Y228520D01*
X256074Y228512D01*
X256098Y228500D01*
X256267Y228454D01*
X256434Y228405D01*
X256461Y228402D01*
X256487Y228395D01*
X256818Y228368D01*
X264594Y228368D01*
X264621Y228371D01*
X264648Y228369D01*
X264821Y228391D01*
X264995Y228408D01*
X265020Y228416D01*
X265047Y228419D01*
X265212Y228475D01*
X265380Y228526D01*
X265403Y228539D01*
X265429Y228548D01*
X265580Y228635D01*
X265734Y228718D01*
X265754Y228735D01*
X265778Y228749D01*
X266031Y228963D01*
X266535Y229468D01*
X266541Y229475D01*
X266548Y229480D01*
X266668Y229630D01*
X266790Y229779D01*
X266794Y229787D01*
X266800Y229794D01*
X266888Y229964D01*
X266979Y230135D01*
X266981Y230144D01*
X266985Y230151D01*
X267038Y230335D01*
X267094Y230521D01*
X267094Y230530D01*
X267097Y230538D01*
X267112Y230729D01*
X267130Y230922D01*
X267129Y230931D01*
X267130Y230940D01*
X267107Y231129D01*
X267087Y231322D01*
X267084Y231331D01*
X267083Y231339D01*
X267023Y231523D01*
X266965Y231706D01*
X266961Y231714D01*
X266958Y231722D01*
X266863Y231891D01*
X266770Y232058D01*
X266764Y232065D01*
X266760Y232073D01*
X266634Y232218D01*
X266510Y232365D01*
X266503Y232371D01*
X266497Y232378D01*
X266346Y232495D01*
X266194Y232615D01*
X266186Y232619D01*
X266179Y232624D01*
X266007Y232710D01*
X265835Y232797D01*
X265826Y232800D01*
X265818Y232804D01*
X265630Y232854D01*
X265447Y232905D01*
X265438Y232906D01*
X265430Y232908D01*
X265099Y232935D01*
X264998Y232935D01*
X261299Y234468D01*
X258468Y237299D01*
X256935Y240998D01*
X256935Y241872D01*
X256933Y241890D01*
X256935Y241908D01*
X256914Y242090D01*
X256895Y242273D01*
X256890Y242290D01*
X256888Y242307D01*
X256831Y242482D01*
X256777Y242658D01*
X256769Y242673D01*
X256763Y242690D01*
X256673Y242850D01*
X256585Y243012D01*
X256574Y243025D01*
X256565Y243041D01*
X256445Y243180D01*
X256328Y243321D01*
X256314Y243332D01*
X256302Y243346D01*
X256157Y243458D01*
X256014Y243573D01*
X255998Y243581D01*
X255984Y243592D01*
X255819Y243674D01*
X255657Y243759D01*
X255640Y243764D01*
X255624Y243772D01*
X255445Y243819D01*
X255270Y243870D01*
X255252Y243872D01*
X255235Y243876D01*
X254904Y243903D01*
X233367Y243903D01*
X233340Y243901D01*
X233313Y243903D01*
X233140Y243881D01*
X232966Y243863D01*
X232941Y243856D01*
X232914Y243852D01*
X232748Y243797D01*
X232581Y243745D01*
X232558Y243732D01*
X232532Y243724D01*
X232381Y243637D01*
X232227Y243553D01*
X232207Y243536D01*
X232183Y243523D01*
X231930Y243308D01*
X126692Y138070D01*
X126675Y138049D01*
X126654Y138031D01*
X126547Y137893D01*
X126437Y137758D01*
X126424Y137734D01*
X126408Y137713D01*
X126330Y137556D01*
X126248Y137402D01*
X126240Y137377D01*
X126228Y137353D01*
X126183Y137183D01*
X126133Y137016D01*
X126131Y136990D01*
X126124Y136964D01*
X126097Y136633D01*
X126097Y106136D01*
X126099Y106118D01*
X126097Y106100D01*
X126118Y105918D01*
X126137Y105735D01*
X126142Y105718D01*
X126144Y105701D01*
X126201Y105526D01*
X126255Y105350D01*
X126263Y105335D01*
X126269Y105318D01*
X126359Y105158D01*
X126447Y104996D01*
X126458Y104983D01*
X126467Y104967D01*
X126587Y104828D01*
X126704Y104687D01*
X126718Y104676D01*
X126730Y104662D01*
X126875Y104550D01*
X127018Y104435D01*
X127034Y104427D01*
X127048Y104416D01*
X127213Y104334D01*
X127375Y104249D01*
X127392Y104244D01*
X127408Y104236D01*
X127587Y104188D01*
X127762Y104138D01*
X127780Y104136D01*
X127797Y104132D01*
X128128Y104105D01*
X128793Y104105D01*
X135005Y97893D01*
X135005Y89107D01*
X128793Y82895D01*
X120007Y82895D01*
X113795Y89107D01*
X113795Y98211D01*
X113817Y98292D01*
X113867Y98459D01*
X113869Y98485D01*
X113876Y98511D01*
X113903Y98842D01*
X113903Y141213D01*
X114831Y143454D01*
X224546Y253168D01*
X226546Y255169D01*
X228787Y256097D01*
X261213Y256097D01*
X263454Y255169D01*
X264962Y253660D01*
X264983Y253643D01*
X265001Y253622D01*
X265139Y253515D01*
X265274Y253405D01*
X265298Y253392D01*
X265319Y253376D01*
X265476Y253298D01*
X265630Y253216D01*
X265655Y253208D01*
X265679Y253196D01*
X265849Y253151D01*
X266016Y253101D01*
X266042Y253099D01*
X266068Y253092D01*
X266399Y253065D01*
X269002Y253065D01*
X272701Y251532D01*
X275532Y248701D01*
X276947Y245285D01*
X276949Y245281D01*
X276951Y245277D01*
X277044Y245104D01*
X277138Y244930D01*
X277140Y244927D01*
X277143Y244923D01*
X277267Y244774D01*
X277394Y244620D01*
X277397Y244617D01*
X277400Y244614D01*
X277553Y244491D01*
X277707Y244366D01*
X277711Y244364D01*
X277714Y244361D01*
X277889Y244271D01*
X278063Y244179D01*
X278067Y244178D01*
X278071Y244176D01*
X278261Y244121D01*
X278450Y244066D01*
X278454Y244066D01*
X278458Y244065D01*
X278656Y244048D01*
X278851Y244032D01*
X278855Y244032D01*
X278860Y244032D01*
X279057Y244055D01*
X279251Y244077D01*
X279255Y244078D01*
X279259Y244079D01*
X279448Y244140D01*
X279634Y244200D01*
X279638Y244202D01*
X279642Y244203D01*
X279815Y244301D01*
X279986Y244396D01*
X279989Y244399D01*
X279993Y244401D01*
X280142Y244530D01*
X280291Y244658D01*
X280294Y244662D01*
X280298Y244664D01*
X280416Y244817D01*
X280540Y244975D01*
X280542Y244979D01*
X280544Y244983D01*
X280631Y245158D01*
X280720Y245335D01*
X280722Y245339D01*
X280724Y245343D01*
X280775Y245536D01*
X280827Y245723D01*
X280827Y245728D01*
X280828Y245732D01*
X280855Y246063D01*
X280855Y303575D01*
X280853Y303601D01*
X280855Y303628D01*
X280833Y303802D01*
X280815Y303975D01*
X280808Y304001D01*
X280804Y304027D01*
X280749Y304193D01*
X280697Y304360D01*
X280684Y304384D01*
X280676Y304409D01*
X280589Y304561D01*
X280505Y304714D01*
X280488Y304735D01*
X280475Y304758D01*
X280260Y305011D01*
X272845Y312426D01*
X271260Y316254D01*
X271260Y351986D01*
X271259Y351995D01*
X271260Y352004D01*
X271239Y352197D01*
X271220Y352387D01*
X271217Y352395D01*
X271216Y352404D01*
X271158Y352588D01*
X271102Y352772D01*
X271097Y352780D01*
X271095Y352788D01*
X271002Y352957D01*
X270910Y353126D01*
X270904Y353133D01*
X270900Y353141D01*
X270775Y353288D01*
X270652Y353435D01*
X270645Y353441D01*
X270639Y353448D01*
X270488Y353567D01*
X270338Y353687D01*
X270330Y353692D01*
X270323Y353697D01*
X270151Y353785D01*
X269981Y353873D01*
X269972Y353875D01*
X269964Y353880D01*
X269778Y353931D01*
X269594Y353984D01*
X269585Y353985D01*
X269577Y353988D01*
X269384Y354002D01*
X269193Y354017D01*
X269184Y354016D01*
X269175Y354017D01*
X268983Y353993D01*
X268793Y353970D01*
X268785Y353968D01*
X268776Y353966D01*
X268593Y353905D01*
X268410Y353846D01*
X268402Y353841D01*
X268394Y353838D01*
X268227Y353742D01*
X268060Y353648D01*
X268053Y353642D01*
X268045Y353637D01*
X267792Y353423D01*
X200793Y286424D01*
X200782Y286410D01*
X200768Y286398D01*
X200655Y286255D01*
X200538Y286112D01*
X200530Y286097D01*
X200519Y286083D01*
X200435Y285918D01*
X200350Y285757D01*
X200344Y285740D01*
X200336Y285724D01*
X200287Y285546D01*
X200235Y285371D01*
X200233Y285353D01*
X200228Y285336D01*
X200215Y285153D01*
X200198Y284970D01*
X200200Y284952D01*
X200199Y284934D01*
X200222Y284752D01*
X200242Y284569D01*
X200247Y284552D01*
X200249Y284535D01*
X200308Y284361D01*
X200363Y284186D01*
X200372Y284170D01*
X200378Y284153D01*
X200469Y283994D01*
X200558Y283833D01*
X200570Y283820D01*
X200579Y283804D01*
X200793Y283551D01*
X206847Y277498D01*
X206847Y268712D01*
X200635Y262500D01*
X191849Y262500D01*
X185796Y268554D01*
X185782Y268565D01*
X185771Y268579D01*
X185764Y268584D01*
X185758Y268591D01*
X185622Y268696D01*
X185484Y268809D01*
X185469Y268817D01*
X185455Y268828D01*
X185446Y268833D01*
X185440Y268838D01*
X185289Y268913D01*
X185129Y268998D01*
X185112Y269003D01*
X185096Y269011D01*
X185086Y269013D01*
X185079Y269017D01*
X184920Y269060D01*
X184918Y269060D01*
X184743Y269112D01*
X184725Y269114D01*
X184708Y269119D01*
X184698Y269120D01*
X184691Y269121D01*
X184360Y269148D01*
X184359Y269148D01*
X184352Y269148D01*
X184342Y269149D01*
X184324Y269147D01*
X184306Y269148D01*
X184124Y269125D01*
X184113Y269124D01*
X183959Y269109D01*
X183952Y269106D01*
X183942Y269105D01*
X183925Y269100D01*
X183907Y269098D01*
X183733Y269039D01*
X183732Y269039D01*
X183574Y268990D01*
X183567Y268987D01*
X183558Y268984D01*
X183542Y268975D01*
X183525Y268970D01*
X183369Y268880D01*
X183220Y268799D01*
X183213Y268793D01*
X183205Y268789D01*
X183192Y268778D01*
X183176Y268769D01*
X182923Y268554D01*
X182833Y268463D01*
X182821Y268449D01*
X182808Y268438D01*
X182694Y268294D01*
X182578Y268152D01*
X182569Y268136D01*
X182558Y268122D01*
X182475Y267958D01*
X182389Y267796D01*
X182384Y267779D01*
X182376Y267763D01*
X182326Y267586D01*
X182274Y267410D01*
X182273Y267392D01*
X182268Y267375D01*
X182254Y267192D01*
X182238Y267009D01*
X182240Y266991D01*
X182238Y266974D01*
X182261Y266792D01*
X182281Y266609D01*
X182287Y266592D01*
X182289Y266574D01*
X182347Y266400D01*
X182403Y266225D01*
X182411Y266209D01*
X182417Y266193D01*
X182509Y266033D01*
X182598Y265873D01*
X182609Y265859D01*
X182618Y265844D01*
X182833Y265591D01*
X188886Y259537D01*
X188886Y250752D01*
X182674Y244540D01*
X173889Y244540D01*
X167835Y250593D01*
X167822Y250605D01*
X167810Y250618D01*
X167666Y250732D01*
X167524Y250848D01*
X167508Y250857D01*
X167494Y250868D01*
X167330Y250951D01*
X167168Y251037D01*
X167151Y251042D01*
X167135Y251050D01*
X166958Y251100D01*
X166782Y251152D01*
X166765Y251153D01*
X166747Y251158D01*
X166564Y251172D01*
X166381Y251188D01*
X166364Y251186D01*
X166346Y251188D01*
X166164Y251165D01*
X165981Y251145D01*
X165964Y251139D01*
X165946Y251137D01*
X165773Y251079D01*
X165597Y251023D01*
X165582Y251015D01*
X165565Y251009D01*
X165405Y250917D01*
X165245Y250829D01*
X165231Y250817D01*
X165216Y250808D01*
X164963Y250593D01*
X164872Y250503D01*
X164861Y250489D01*
X164847Y250477D01*
X164733Y250333D01*
X164617Y250191D01*
X164609Y250176D01*
X164598Y250162D01*
X164514Y249997D01*
X164429Y249836D01*
X164423Y249819D01*
X164415Y249803D01*
X164366Y249625D01*
X164314Y249450D01*
X164312Y249432D01*
X164307Y249415D01*
X164294Y249232D01*
X164277Y249049D01*
X164279Y249031D01*
X164278Y249013D01*
X164301Y248831D01*
X164321Y248648D01*
X164326Y248631D01*
X164328Y248614D01*
X164387Y248440D01*
X164442Y248265D01*
X164451Y248249D01*
X164457Y248232D01*
X164548Y248073D01*
X164637Y247912D01*
X164649Y247899D01*
X164658Y247883D01*
X164872Y247630D01*
X170926Y241577D01*
X170926Y232791D01*
X164714Y226579D01*
X155928Y226579D01*
X149875Y232633D01*
X149861Y232644D01*
X149850Y232658D01*
X149705Y232772D01*
X149563Y232888D01*
X149548Y232896D01*
X149534Y232907D01*
X149369Y232991D01*
X149208Y233077D01*
X149191Y233082D01*
X149175Y233090D01*
X148997Y233139D01*
X148822Y233191D01*
X148804Y233193D01*
X148787Y233198D01*
X148604Y233211D01*
X148421Y233228D01*
X148403Y233226D01*
X148385Y233227D01*
X148203Y233204D01*
X148021Y233184D01*
X148004Y233179D01*
X147986Y233177D01*
X147812Y233118D01*
X147637Y233063D01*
X147621Y233054D01*
X147604Y233048D01*
X147445Y232957D01*
X147284Y232868D01*
X147271Y232857D01*
X147255Y232848D01*
X147002Y232633D01*
X145834Y231465D01*
X145823Y231451D01*
X145809Y231439D01*
X145695Y231295D01*
X145579Y231153D01*
X145571Y231138D01*
X145560Y231123D01*
X145476Y230958D01*
X145390Y230797D01*
X145385Y230781D01*
X145377Y230764D01*
X145328Y230586D01*
X145276Y230412D01*
X145274Y230394D01*
X145269Y230377D01*
X145256Y230193D01*
X145239Y230011D01*
X145241Y229993D01*
X145240Y229975D01*
X145263Y229793D01*
X145283Y229610D01*
X145288Y229593D01*
X145290Y229576D01*
X145349Y229402D01*
X145404Y229226D01*
X145413Y229211D01*
X145418Y229194D01*
X145510Y229034D01*
X145599Y228874D01*
X145610Y228861D01*
X145619Y228845D01*
X145834Y228592D01*
X147345Y227081D01*
X140924Y220660D01*
X134503Y214239D01*
X132992Y215750D01*
X132978Y215761D01*
X132967Y215775D01*
X132963Y215778D01*
X132946Y215791D01*
X132822Y215889D01*
X132681Y216005D01*
X132665Y216013D01*
X132651Y216024D01*
X132487Y216108D01*
X132325Y216194D01*
X132308Y216199D01*
X132292Y216207D01*
X132115Y216256D01*
X131939Y216308D01*
X131921Y216310D01*
X131904Y216315D01*
X131721Y216328D01*
X131538Y216345D01*
X131520Y216343D01*
X131502Y216344D01*
X131320Y216321D01*
X131138Y216301D01*
X131121Y216296D01*
X131103Y216294D01*
X130929Y216236D01*
X130754Y216180D01*
X130738Y216171D01*
X130721Y216166D01*
X130562Y216074D01*
X130401Y215985D01*
X130388Y215974D01*
X130372Y215965D01*
X130119Y215750D01*
X127874Y213504D01*
X127862Y213490D01*
X127849Y213479D01*
X127734Y213334D01*
X127619Y213193D01*
X127610Y213177D01*
X127599Y213163D01*
X127515Y212998D01*
X127430Y212837D01*
X127425Y212820D01*
X127417Y212804D01*
X127367Y212626D01*
X127315Y212451D01*
X127314Y212433D01*
X127309Y212416D01*
X127295Y212233D01*
X127279Y212050D01*
X127281Y212032D01*
X127279Y212015D01*
X127302Y211833D01*
X127322Y211650D01*
X127328Y211633D01*
X127330Y211615D01*
X127388Y211441D01*
X127444Y211266D01*
X127452Y211250D01*
X127458Y211233D01*
X127550Y211074D01*
X127638Y210914D01*
X127650Y210900D01*
X127659Y210885D01*
X127874Y210632D01*
X129385Y209121D01*
X122964Y202700D01*
X122964Y202699D01*
X122963Y202699D01*
X116543Y196278D01*
X115032Y197789D01*
X115018Y197801D01*
X115006Y197814D01*
X114862Y197928D01*
X114720Y198045D01*
X114704Y198053D01*
X114690Y198064D01*
X114526Y198147D01*
X114364Y198233D01*
X114347Y198238D01*
X114331Y198246D01*
X114154Y198296D01*
X113978Y198348D01*
X113961Y198350D01*
X113943Y198354D01*
X113760Y198368D01*
X113577Y198384D01*
X113560Y198382D01*
X113542Y198384D01*
X113360Y198361D01*
X113177Y198341D01*
X113160Y198336D01*
X113142Y198333D01*
X112969Y198275D01*
X112793Y198219D01*
X112778Y198211D01*
X112761Y198205D01*
X112601Y198113D01*
X112441Y198025D01*
X112427Y198013D01*
X112412Y198004D01*
X112159Y197789D01*
X110991Y196621D01*
X110979Y196607D01*
X110966Y196596D01*
X110852Y196452D01*
X110736Y196310D01*
X110727Y196294D01*
X110716Y196280D01*
X110633Y196116D01*
X110547Y195954D01*
X110542Y195937D01*
X110534Y195921D01*
X110484Y195743D01*
X110432Y195568D01*
X110431Y195550D01*
X110426Y195533D01*
X110412Y195350D01*
X110396Y195167D01*
X110398Y195149D01*
X110396Y195132D01*
X110419Y194949D01*
X110439Y194767D01*
X110445Y194750D01*
X110447Y194732D01*
X110505Y194558D01*
X110561Y194383D01*
X110569Y194367D01*
X110575Y194351D01*
X110667Y194191D01*
X110756Y194031D01*
X110767Y194017D01*
X110776Y194002D01*
X110991Y193749D01*
X117044Y187695D01*
X117044Y178910D01*
X110832Y172698D01*
X102047Y172698D01*
X95993Y178751D01*
X95980Y178763D01*
X95968Y178776D01*
X95824Y178890D01*
X95682Y179006D01*
X95666Y179015D01*
X95652Y179026D01*
X95488Y179109D01*
X95326Y179195D01*
X95309Y179200D01*
X95293Y179208D01*
X95116Y179258D01*
X94940Y179310D01*
X94922Y179311D01*
X94905Y179316D01*
X94722Y179330D01*
X94539Y179346D01*
X94522Y179344D01*
X94504Y179346D01*
X94322Y179323D01*
X94139Y179303D01*
X94122Y179297D01*
X94104Y179295D01*
X93931Y179237D01*
X93755Y179181D01*
X93739Y179173D01*
X93723Y179167D01*
X93563Y179075D01*
X93403Y178986D01*
X93389Y178975D01*
X93374Y178966D01*
X93121Y178751D01*
X93030Y178661D01*
X93019Y178647D01*
X93005Y178635D01*
X92892Y178492D01*
X92775Y178349D01*
X92767Y178334D01*
X92756Y178319D01*
X92672Y178155D01*
X92586Y177994D01*
X92581Y177977D01*
X92573Y177961D01*
X92524Y177782D01*
X92472Y177608D01*
X92470Y177590D01*
X92465Y177573D01*
X92452Y177389D01*
X92435Y177207D01*
X92437Y177189D01*
X92436Y177171D01*
X92459Y176989D01*
X92479Y176806D01*
X92484Y176789D01*
X92486Y176772D01*
X92545Y176597D01*
X92600Y176423D01*
X92609Y176407D01*
X92615Y176390D01*
X92706Y176231D01*
X92795Y176070D01*
X92807Y176057D01*
X92815Y176041D01*
X93030Y175788D01*
X99084Y169735D01*
X99084Y160949D01*
X92872Y154737D01*
X84086Y154737D01*
X78033Y160791D01*
X78019Y160802D01*
X78007Y160816D01*
X77863Y160930D01*
X77721Y161046D01*
X77705Y161054D01*
X77691Y161066D01*
X77527Y161149D01*
X77366Y161235D01*
X77348Y161240D01*
X77332Y161248D01*
X77155Y161297D01*
X76980Y161349D01*
X76962Y161351D01*
X76944Y161356D01*
X76762Y161369D01*
X76579Y161386D01*
X76561Y161384D01*
X76543Y161385D01*
X76362Y161362D01*
X76179Y161342D01*
X76161Y161337D01*
X76143Y161335D01*
X75970Y161276D01*
X75795Y161221D01*
X75779Y161212D01*
X75762Y161206D01*
X75602Y161114D01*
X75442Y161026D01*
X75429Y161014D01*
X75413Y161005D01*
X75160Y160791D01*
X75069Y160700D01*
X75058Y160686D01*
X75045Y160675D01*
X74931Y160531D01*
X74814Y160388D01*
X74806Y160373D01*
X74795Y160359D01*
X74712Y160195D01*
X74626Y160033D01*
X74621Y160016D01*
X74613Y160000D01*
X74563Y159823D01*
X74511Y159647D01*
X74510Y159629D01*
X74505Y159612D01*
X74491Y159428D01*
X74475Y159246D01*
X74477Y159228D01*
X74475Y159211D01*
X74499Y159027D01*
X74518Y158846D01*
X74524Y158829D01*
X74526Y158811D01*
X74585Y158636D01*
X74640Y158462D01*
X74648Y158446D01*
X74654Y158429D01*
X74746Y158270D01*
X74835Y158109D01*
X74846Y158096D01*
X74855Y158081D01*
X75070Y157828D01*
X81123Y151774D01*
X81123Y142989D01*
X74911Y136777D01*
X69377Y136777D01*
X69351Y136774D01*
X69324Y136776D01*
X69150Y136754D01*
X68977Y136737D01*
X68951Y136729D01*
X68924Y136726D01*
X68759Y136670D01*
X68592Y136619D01*
X68568Y136606D01*
X68543Y136598D01*
X68391Y136510D01*
X68238Y136427D01*
X68217Y136410D01*
X68194Y136397D01*
X67941Y136182D01*
X56692Y124933D01*
X56675Y124912D01*
X56654Y124894D01*
X56547Y124757D01*
X56437Y124621D01*
X56424Y124597D01*
X56408Y124576D01*
X56330Y124419D01*
X56248Y124265D01*
X56240Y124240D01*
X56228Y124216D01*
X56183Y124046D01*
X56133Y123880D01*
X56131Y123853D01*
X56124Y123827D01*
X56097Y123496D01*
X56097Y123367D01*
X56099Y123340D01*
X56097Y123313D01*
X56119Y123139D01*
X56137Y122966D01*
X56144Y122941D01*
X56148Y122914D01*
X56203Y122748D01*
X56255Y122581D01*
X56268Y122558D01*
X56276Y122532D01*
X56363Y122381D01*
X56447Y122227D01*
X56464Y122207D01*
X56477Y122183D01*
X56692Y121930D01*
X158722Y19900D01*
X158743Y19883D01*
X158761Y19862D01*
X158899Y19755D01*
X159034Y19645D01*
X159058Y19632D01*
X159079Y19616D01*
X159236Y19538D01*
X159390Y19456D01*
X159415Y19448D01*
X159439Y19436D01*
X159609Y19391D01*
X159776Y19341D01*
X159802Y19339D01*
X159828Y19332D01*
X160159Y19305D01*
X220591Y19305D01*
X220618Y19307D01*
G37*
%LPC*%
G36*
X309576Y320695D02*
X309576Y320695D01*
X305281Y322474D01*
X301994Y325761D01*
X300215Y330056D01*
X300215Y349944D01*
X301994Y354239D01*
X305281Y357526D01*
X309576Y359305D01*
X314224Y359305D01*
X318519Y357526D01*
X321806Y354239D01*
X322723Y352024D01*
X322728Y352016D01*
X322730Y352007D01*
X322822Y351839D01*
X322914Y351669D01*
X322919Y351662D01*
X322924Y351654D01*
X323047Y351508D01*
X323170Y351359D01*
X323177Y351353D01*
X323183Y351346D01*
X323333Y351226D01*
X323483Y351105D01*
X323491Y351101D01*
X323497Y351095D01*
X323668Y351007D01*
X323839Y350918D01*
X323848Y350915D01*
X323856Y350911D01*
X324040Y350859D01*
X324226Y350805D01*
X324234Y350804D01*
X324243Y350801D01*
X324434Y350787D01*
X324627Y350770D01*
X324636Y350771D01*
X324644Y350770D01*
X324834Y350793D01*
X325027Y350815D01*
X325035Y350818D01*
X325044Y350819D01*
X325226Y350879D01*
X325410Y350938D01*
X325418Y350943D01*
X325426Y350945D01*
X325594Y351041D01*
X325762Y351135D01*
X325768Y351140D01*
X325776Y351145D01*
X325921Y351271D01*
X326067Y351397D01*
X326073Y351404D01*
X326080Y351409D01*
X326197Y351563D01*
X326316Y351714D01*
X326320Y351721D01*
X326325Y351729D01*
X326477Y352024D01*
X327394Y354239D01*
X330681Y357526D01*
X334976Y359305D01*
X339624Y359305D01*
X343919Y357526D01*
X347206Y354239D01*
X348123Y352024D01*
X348128Y352016D01*
X348130Y352007D01*
X348223Y351837D01*
X348314Y351669D01*
X348319Y351662D01*
X348324Y351654D01*
X348448Y351506D01*
X348570Y351358D01*
X348577Y351353D01*
X348583Y351346D01*
X348733Y351226D01*
X348883Y351105D01*
X348891Y351101D01*
X348898Y351095D01*
X349067Y351008D01*
X349239Y350918D01*
X349248Y350915D01*
X349256Y350911D01*
X349438Y350859D01*
X349626Y350805D01*
X349635Y350804D01*
X349643Y350801D01*
X349834Y350787D01*
X350027Y350770D01*
X350036Y350771D01*
X350044Y350770D01*
X350235Y350794D01*
X350427Y350815D01*
X350435Y350818D01*
X350444Y350819D01*
X350626Y350879D01*
X350810Y350938D01*
X350818Y350943D01*
X350826Y350946D01*
X350994Y351041D01*
X351162Y351135D01*
X351168Y351140D01*
X351176Y351145D01*
X351322Y351272D01*
X351467Y351397D01*
X351473Y351404D01*
X351480Y351409D01*
X351597Y351562D01*
X351716Y351714D01*
X351720Y351722D01*
X351725Y351729D01*
X351877Y352024D01*
X352794Y354239D01*
X356081Y357526D01*
X360376Y359305D01*
X365024Y359305D01*
X369319Y357526D01*
X372606Y354239D01*
X374400Y349908D01*
X374442Y349830D01*
X374475Y349747D01*
X374537Y349652D01*
X374590Y349553D01*
X374647Y349484D01*
X374695Y349410D01*
X374775Y349330D01*
X374846Y349242D01*
X374915Y349187D01*
X374978Y349123D01*
X375071Y349060D01*
X375159Y348989D01*
X375238Y348947D01*
X375311Y348898D01*
X375416Y348854D01*
X375516Y348802D01*
X375601Y348777D01*
X375683Y348742D01*
X375794Y348720D01*
X375902Y348689D01*
X375991Y348681D01*
X376078Y348664D01*
X376190Y348664D01*
X376303Y348654D01*
X376391Y348664D01*
X376480Y348664D01*
X376591Y348686D01*
X376703Y348699D01*
X376788Y348726D01*
X376875Y348744D01*
X376979Y348788D01*
X377087Y348822D01*
X377164Y348866D01*
X377246Y348900D01*
X377339Y348963D01*
X377438Y349019D01*
X377505Y349076D01*
X377579Y349126D01*
X377658Y349207D01*
X377744Y349280D01*
X377799Y349350D01*
X377861Y349414D01*
X377922Y349508D01*
X377992Y349597D01*
X378032Y349677D01*
X378080Y349751D01*
X378135Y349882D01*
X378173Y349957D01*
X378185Y350002D01*
X378208Y350057D01*
X378684Y351520D01*
X379410Y352945D01*
X380350Y354239D01*
X381481Y355370D01*
X382775Y356310D01*
X384200Y357036D01*
X385561Y357479D01*
X385561Y340508D01*
X385562Y340490D01*
X385561Y340473D01*
X385582Y340290D01*
X385601Y340108D01*
X385606Y340091D01*
X385608Y340073D01*
X385633Y339995D01*
X385594Y339858D01*
X385592Y339840D01*
X385588Y339823D01*
X385561Y339492D01*
X385561Y322521D01*
X384200Y322964D01*
X382775Y323690D01*
X381481Y324630D01*
X380350Y325761D01*
X379410Y327055D01*
X378684Y328480D01*
X378208Y329943D01*
X378173Y330024D01*
X378146Y330109D01*
X378092Y330208D01*
X378047Y330311D01*
X377996Y330384D01*
X377953Y330462D01*
X377880Y330548D01*
X377815Y330641D01*
X377751Y330702D01*
X377694Y330770D01*
X377606Y330840D01*
X377524Y330918D01*
X377448Y330966D01*
X377379Y331021D01*
X377279Y331073D01*
X377183Y331133D01*
X377100Y331164D01*
X377021Y331205D01*
X376912Y331236D01*
X376806Y331276D01*
X376719Y331290D01*
X376633Y331315D01*
X376521Y331323D01*
X376409Y331342D01*
X376320Y331339D01*
X376232Y331346D01*
X376120Y331332D01*
X376007Y331328D01*
X375920Y331308D01*
X375832Y331297D01*
X375725Y331262D01*
X375615Y331236D01*
X375534Y331198D01*
X375450Y331171D01*
X375352Y331115D01*
X375249Y331067D01*
X375178Y331015D01*
X375100Y330971D01*
X375015Y330897D01*
X374924Y330830D01*
X374864Y330765D01*
X374797Y330707D01*
X374728Y330617D01*
X374652Y330534D01*
X374606Y330458D01*
X374551Y330387D01*
X374487Y330262D01*
X374443Y330189D01*
X374427Y330146D01*
X374400Y330092D01*
X372606Y325761D01*
X369319Y322474D01*
X365024Y320695D01*
X360376Y320695D01*
X356081Y322474D01*
X352794Y325761D01*
X351877Y327976D01*
X351872Y327984D01*
X351870Y327993D01*
X351778Y328161D01*
X351686Y328331D01*
X351681Y328338D01*
X351676Y328346D01*
X351553Y328492D01*
X351430Y328641D01*
X351423Y328647D01*
X351417Y328654D01*
X351267Y328774D01*
X351117Y328895D01*
X351109Y328899D01*
X351103Y328905D01*
X350932Y328993D01*
X350761Y329082D01*
X350752Y329085D01*
X350744Y329089D01*
X350560Y329141D01*
X350374Y329195D01*
X350366Y329196D01*
X350357Y329199D01*
X350166Y329213D01*
X349973Y329230D01*
X349964Y329229D01*
X349956Y329230D01*
X349766Y329207D01*
X349573Y329185D01*
X349565Y329182D01*
X349556Y329181D01*
X349374Y329121D01*
X349190Y329062D01*
X349182Y329057D01*
X349174Y329055D01*
X349006Y328959D01*
X348838Y328865D01*
X348832Y328860D01*
X348824Y328855D01*
X348679Y328729D01*
X348533Y328603D01*
X348527Y328596D01*
X348520Y328591D01*
X348403Y328437D01*
X348284Y328286D01*
X348280Y328279D01*
X348275Y328271D01*
X348123Y327976D01*
X347206Y325761D01*
X343919Y322474D01*
X339624Y320695D01*
X334976Y320695D01*
X330681Y322474D01*
X327394Y325761D01*
X326477Y327976D01*
X326472Y327984D01*
X326470Y327993D01*
X326377Y328163D01*
X326286Y328331D01*
X326281Y328338D01*
X326276Y328346D01*
X326152Y328494D01*
X326030Y328642D01*
X326023Y328647D01*
X326017Y328654D01*
X325867Y328774D01*
X325717Y328895D01*
X325709Y328899D01*
X325702Y328905D01*
X325533Y328992D01*
X325361Y329082D01*
X325352Y329085D01*
X325344Y329089D01*
X325162Y329141D01*
X324974Y329195D01*
X324965Y329196D01*
X324957Y329199D01*
X324766Y329213D01*
X324573Y329230D01*
X324564Y329229D01*
X324556Y329230D01*
X324365Y329206D01*
X324173Y329185D01*
X324165Y329182D01*
X324156Y329181D01*
X323974Y329121D01*
X323790Y329062D01*
X323782Y329057D01*
X323774Y329054D01*
X323606Y328959D01*
X323438Y328865D01*
X323432Y328860D01*
X323424Y328855D01*
X323278Y328728D01*
X323133Y328603D01*
X323127Y328596D01*
X323120Y328591D01*
X323003Y328438D01*
X322884Y328286D01*
X322880Y328278D01*
X322875Y328271D01*
X322723Y327976D01*
X321806Y325761D01*
X318519Y322474D01*
X314224Y320695D01*
X309576Y320695D01*
G37*
%LPD*%
%LPC*%
G36*
X436688Y274839D02*
X436688Y274839D01*
X430288Y276554D01*
X424551Y279866D01*
X419866Y284551D01*
X416554Y290288D01*
X414839Y296688D01*
X414839Y303312D01*
X416554Y309712D01*
X419866Y315449D01*
X424551Y320134D01*
X430288Y323446D01*
X436688Y325161D01*
X443312Y325161D01*
X449712Y323446D01*
X455449Y320134D01*
X460134Y315449D01*
X463446Y309712D01*
X465161Y303312D01*
X465161Y296688D01*
X463446Y290288D01*
X460134Y284551D01*
X455449Y279866D01*
X449712Y276554D01*
X443312Y274839D01*
X436688Y274839D01*
G37*
%LPD*%
%LPC*%
G36*
X496688Y94839D02*
X496688Y94839D01*
X490288Y96554D01*
X484551Y99866D01*
X479866Y104551D01*
X476554Y110288D01*
X474839Y116688D01*
X474839Y123312D01*
X476554Y129712D01*
X479866Y135449D01*
X484551Y140134D01*
X490288Y143446D01*
X496688Y145161D01*
X503312Y145161D01*
X509712Y143446D01*
X515449Y140134D01*
X520134Y135449D01*
X523446Y129712D01*
X525161Y123312D01*
X525161Y116688D01*
X523446Y110288D01*
X520134Y104551D01*
X515449Y99866D01*
X509712Y96554D01*
X503312Y94839D01*
X496688Y94839D01*
G37*
%LPD*%
%LPC*%
G36*
X534976Y280695D02*
X534976Y280695D01*
X530681Y282474D01*
X527394Y285761D01*
X525615Y290056D01*
X525615Y309944D01*
X527394Y314239D01*
X530681Y317526D01*
X531962Y318056D01*
X531962Y318057D01*
X534976Y319305D01*
X539624Y319305D01*
X543919Y317526D01*
X547206Y314239D01*
X548123Y312024D01*
X548128Y312016D01*
X548130Y312007D01*
X548223Y311837D01*
X548314Y311669D01*
X548319Y311662D01*
X548324Y311654D01*
X548448Y311506D01*
X548570Y311358D01*
X548577Y311353D01*
X548583Y311346D01*
X548733Y311226D01*
X548883Y311105D01*
X548891Y311101D01*
X548898Y311095D01*
X549067Y311008D01*
X549239Y310918D01*
X549248Y310915D01*
X549256Y310911D01*
X549438Y310859D01*
X549626Y310805D01*
X549635Y310804D01*
X549643Y310801D01*
X549834Y310787D01*
X550027Y310770D01*
X550036Y310771D01*
X550044Y310770D01*
X550235Y310794D01*
X550427Y310815D01*
X550435Y310818D01*
X550444Y310819D01*
X550626Y310879D01*
X550810Y310938D01*
X550818Y310943D01*
X550826Y310946D01*
X550994Y311041D01*
X551162Y311135D01*
X551168Y311140D01*
X551176Y311145D01*
X551322Y311272D01*
X551467Y311397D01*
X551473Y311404D01*
X551480Y311409D01*
X551597Y311562D01*
X551716Y311714D01*
X551720Y311722D01*
X551725Y311729D01*
X551877Y312024D01*
X552794Y314239D01*
X556081Y317526D01*
X557362Y318056D01*
X557362Y318057D01*
X560376Y319305D01*
X565024Y319305D01*
X569319Y317526D01*
X572606Y314239D01*
X574385Y309944D01*
X574385Y290056D01*
X572606Y285761D01*
X569319Y282474D01*
X566190Y281178D01*
X565024Y280695D01*
X560376Y280695D01*
X556081Y282474D01*
X552794Y285761D01*
X551877Y287976D01*
X551872Y287984D01*
X551870Y287993D01*
X551778Y288161D01*
X551686Y288331D01*
X551681Y288338D01*
X551676Y288346D01*
X551553Y288492D01*
X551430Y288641D01*
X551423Y288647D01*
X551417Y288654D01*
X551267Y288774D01*
X551117Y288895D01*
X551109Y288899D01*
X551103Y288905D01*
X550932Y288993D01*
X550761Y289082D01*
X550752Y289085D01*
X550744Y289089D01*
X550560Y289141D01*
X550374Y289195D01*
X550366Y289196D01*
X550357Y289199D01*
X550166Y289213D01*
X549973Y289230D01*
X549964Y289229D01*
X549956Y289230D01*
X549766Y289207D01*
X549573Y289185D01*
X549565Y289182D01*
X549556Y289181D01*
X549374Y289121D01*
X549190Y289062D01*
X549182Y289057D01*
X549174Y289055D01*
X549006Y288959D01*
X548838Y288865D01*
X548832Y288860D01*
X548824Y288855D01*
X548679Y288729D01*
X548533Y288603D01*
X548527Y288596D01*
X548520Y288591D01*
X548403Y288437D01*
X548284Y288286D01*
X548280Y288279D01*
X548275Y288271D01*
X548123Y287976D01*
X547206Y285761D01*
X543919Y282474D01*
X540790Y281178D01*
X539624Y280695D01*
X534976Y280695D01*
G37*
%LPD*%
%LPC*%
G36*
X244084Y263947D02*
X244084Y263947D01*
X239789Y265726D01*
X225726Y279789D01*
X223947Y284084D01*
X223947Y288732D01*
X225726Y293027D01*
X229013Y296314D01*
X232466Y297744D01*
X233307Y298093D01*
X237956Y298093D01*
X240171Y297175D01*
X240179Y297172D01*
X240187Y297168D01*
X240372Y297114D01*
X240556Y297059D01*
X240565Y297058D01*
X240574Y297055D01*
X240765Y297039D01*
X240957Y297020D01*
X240966Y297021D01*
X240975Y297021D01*
X241165Y297042D01*
X241358Y297062D01*
X241366Y297065D01*
X241375Y297066D01*
X241558Y297125D01*
X241742Y297182D01*
X241750Y297186D01*
X241758Y297189D01*
X241926Y297283D01*
X242095Y297375D01*
X242102Y297381D01*
X242110Y297385D01*
X242255Y297510D01*
X242403Y297634D01*
X242409Y297641D01*
X242416Y297647D01*
X242534Y297798D01*
X242654Y297949D01*
X242658Y297957D01*
X242664Y297964D01*
X242750Y298136D01*
X242838Y298307D01*
X242841Y298316D01*
X242845Y298324D01*
X242896Y298511D01*
X242948Y298695D01*
X242949Y298703D01*
X242951Y298712D01*
X242964Y298906D01*
X242979Y299096D01*
X242978Y299105D01*
X242979Y299114D01*
X242954Y299306D01*
X242930Y299496D01*
X242928Y299504D01*
X242926Y299513D01*
X242825Y299829D01*
X241907Y302044D01*
X241907Y306693D01*
X243686Y310987D01*
X246973Y314274D01*
X251201Y316025D01*
X251268Y316053D01*
X255916Y316053D01*
X260211Y314274D01*
X274274Y300211D01*
X276053Y295916D01*
X276053Y291268D01*
X274274Y286973D01*
X270987Y283686D01*
X266693Y281907D01*
X262044Y281907D01*
X259829Y282825D01*
X259820Y282828D01*
X259813Y282832D01*
X259628Y282886D01*
X259444Y282941D01*
X259435Y282942D01*
X259426Y282945D01*
X259235Y282961D01*
X259043Y282980D01*
X259034Y282979D01*
X259025Y282979D01*
X258835Y282958D01*
X258642Y282938D01*
X258634Y282935D01*
X258625Y282934D01*
X258442Y282875D01*
X258258Y282818D01*
X258250Y282814D01*
X258242Y282811D01*
X258074Y282717D01*
X257905Y282625D01*
X257898Y282619D01*
X257890Y282615D01*
X257745Y282490D01*
X257597Y282366D01*
X257591Y282359D01*
X257584Y282353D01*
X257466Y282201D01*
X257346Y282051D01*
X257342Y282043D01*
X257336Y282036D01*
X257249Y281862D01*
X257162Y281693D01*
X257159Y281684D01*
X257155Y281676D01*
X257104Y281489D01*
X257052Y281305D01*
X257051Y281296D01*
X257049Y281288D01*
X257036Y281094D01*
X257021Y280904D01*
X257022Y280895D01*
X257021Y280886D01*
X257046Y280694D01*
X257070Y280504D01*
X257072Y280496D01*
X257073Y280487D01*
X257175Y280171D01*
X258093Y277956D01*
X258093Y273307D01*
X256314Y269013D01*
X253027Y265726D01*
X248732Y263947D01*
X244084Y263947D01*
G37*
%LPD*%
%LPC*%
G36*
X556191Y169435D02*
X556191Y169435D01*
X554698Y170054D01*
X553554Y171198D01*
X552935Y172691D01*
X552935Y182309D01*
X553554Y183802D01*
X554698Y184946D01*
X556191Y185565D01*
X557883Y185565D01*
X557909Y185567D01*
X557936Y185565D01*
X558110Y185587D01*
X558284Y185605D01*
X558309Y185612D01*
X558336Y185616D01*
X558501Y185672D01*
X558668Y185723D01*
X558692Y185736D01*
X558717Y185744D01*
X558869Y185831D01*
X559022Y185915D01*
X559043Y185932D01*
X559066Y185945D01*
X559319Y186160D01*
X562800Y189641D01*
X562817Y189662D01*
X562838Y189679D01*
X562944Y189817D01*
X563055Y189952D01*
X563068Y189976D01*
X563084Y189997D01*
X563162Y190153D01*
X563244Y190308D01*
X563252Y190334D01*
X563264Y190358D01*
X563309Y190527D01*
X563359Y190694D01*
X563361Y190721D01*
X563368Y190746D01*
X563395Y191077D01*
X563395Y191752D01*
X563393Y191778D01*
X563395Y191805D01*
X563373Y191979D01*
X563355Y192152D01*
X563348Y192178D01*
X563344Y192205D01*
X563289Y192370D01*
X563237Y192537D01*
X563224Y192561D01*
X563216Y192586D01*
X563129Y192738D01*
X563045Y192891D01*
X563028Y192912D01*
X563015Y192935D01*
X562800Y193188D01*
X560162Y195826D01*
X558291Y200344D01*
X558267Y200387D01*
X558251Y200434D01*
X558226Y200476D01*
X558215Y200502D01*
X558164Y200580D01*
X558101Y200699D01*
X558069Y200737D01*
X558044Y200779D01*
X558009Y200817D01*
X557995Y200839D01*
X557933Y200902D01*
X557844Y201009D01*
X557806Y201040D01*
X557772Y201077D01*
X557729Y201109D01*
X557713Y201126D01*
X557642Y201173D01*
X557532Y201263D01*
X557488Y201286D01*
X557448Y201315D01*
X557397Y201339D01*
X557379Y201351D01*
X557303Y201383D01*
X557175Y201450D01*
X557128Y201464D01*
X557083Y201485D01*
X557027Y201498D01*
X557008Y201506D01*
X556928Y201522D01*
X556789Y201563D01*
X556739Y201567D01*
X556691Y201579D01*
X556634Y201581D01*
X556613Y201585D01*
X556532Y201585D01*
X556388Y201598D01*
X556338Y201592D01*
X556289Y201594D01*
X556233Y201585D01*
X556210Y201585D01*
X556130Y201569D01*
X555987Y201552D01*
X555940Y201537D01*
X555891Y201529D01*
X555839Y201510D01*
X555815Y201505D01*
X555738Y201472D01*
X555604Y201429D01*
X555561Y201405D01*
X555515Y201388D01*
X555468Y201359D01*
X555444Y201349D01*
X555372Y201300D01*
X555253Y201233D01*
X555215Y201201D01*
X555173Y201175D01*
X555135Y201139D01*
X555111Y201123D01*
X555047Y201057D01*
X554947Y200971D01*
X554916Y200932D01*
X554880Y200898D01*
X554852Y200858D01*
X554829Y200835D01*
X554777Y200754D01*
X554699Y200654D01*
X554676Y200610D01*
X554648Y200569D01*
X554629Y200527D01*
X554610Y200498D01*
X554560Y200379D01*
X554518Y200294D01*
X554505Y200247D01*
X554485Y200201D01*
X554483Y200194D01*
X554482Y200191D01*
X553942Y198530D01*
X553222Y197116D01*
X552289Y195833D01*
X551167Y194711D01*
X549884Y193778D01*
X548470Y193058D01*
X547099Y192613D01*
X547099Y201932D01*
X547097Y201950D01*
X547099Y201967D01*
X547078Y202149D01*
X547059Y202332D01*
X547054Y202349D01*
X547052Y202367D01*
X547039Y202408D01*
X547066Y202502D01*
X547068Y202520D01*
X547072Y202537D01*
X547099Y202868D01*
X547099Y227267D01*
X548470Y226822D01*
X549884Y226102D01*
X551167Y225169D01*
X552289Y224047D01*
X553222Y222764D01*
X553942Y221350D01*
X554482Y219689D01*
X554497Y219654D01*
X554508Y219611D01*
X554530Y219567D01*
X554544Y219520D01*
X554603Y219413D01*
X554644Y219320D01*
X554663Y219292D01*
X554684Y219249D01*
X554714Y219210D01*
X554738Y219167D01*
X554820Y219069D01*
X554875Y218990D01*
X554897Y218969D01*
X554928Y218929D01*
X554965Y218896D01*
X554997Y218858D01*
X555101Y218776D01*
X555167Y218713D01*
X555190Y218698D01*
X555230Y218663D01*
X555273Y218638D01*
X555312Y218607D01*
X555434Y218545D01*
X555507Y218498D01*
X555531Y218489D01*
X555579Y218462D01*
X555626Y218446D01*
X555670Y218423D01*
X555806Y218385D01*
X555884Y218355D01*
X555907Y218351D01*
X555960Y218333D01*
X556010Y218327D01*
X556057Y218314D01*
X556201Y218303D01*
X556281Y218289D01*
X556303Y218290D01*
X556360Y218283D01*
X556409Y218286D01*
X556459Y218283D01*
X556603Y218300D01*
X556683Y218303D01*
X556704Y218308D01*
X556761Y218312D01*
X556809Y218325D01*
X556858Y218331D01*
X556996Y218377D01*
X557075Y218396D01*
X557095Y218405D01*
X557149Y218420D01*
X557194Y218442D01*
X557240Y218458D01*
X557366Y218529D01*
X557441Y218564D01*
X557459Y218577D01*
X557508Y218602D01*
X557547Y218633D01*
X557590Y218657D01*
X557698Y218751D01*
X557766Y218801D01*
X557783Y218818D01*
X557824Y218852D01*
X557856Y218889D01*
X557894Y218922D01*
X557978Y219032D01*
X558039Y219097D01*
X558052Y219120D01*
X558085Y219158D01*
X558109Y219202D01*
X558139Y219241D01*
X558216Y219390D01*
X558247Y219442D01*
X558257Y219469D01*
X558280Y219511D01*
X558284Y219523D01*
X558291Y219536D01*
X560162Y224054D01*
X563426Y227318D01*
X567692Y229085D01*
X572308Y229085D01*
X576574Y227318D01*
X579838Y224054D01*
X581605Y219788D01*
X581605Y200092D01*
X579838Y195826D01*
X577200Y193188D01*
X577183Y193167D01*
X577162Y193150D01*
X577055Y193012D01*
X576945Y192877D01*
X576932Y192853D01*
X576916Y192832D01*
X576838Y192675D01*
X576756Y192521D01*
X576748Y192495D01*
X576736Y192471D01*
X576691Y192302D01*
X576641Y192135D01*
X576639Y192108D01*
X576632Y192082D01*
X576605Y191752D01*
X576605Y186186D01*
X575599Y183759D01*
X573456Y181615D01*
X567660Y175819D01*
X567643Y175798D01*
X567622Y175781D01*
X567515Y175643D01*
X567405Y175508D01*
X567392Y175484D01*
X567376Y175463D01*
X567298Y175306D01*
X567216Y175152D01*
X567208Y175126D01*
X567196Y175102D01*
X567151Y174933D01*
X567101Y174766D01*
X567099Y174739D01*
X567092Y174714D01*
X567065Y174383D01*
X567065Y172691D01*
X566446Y171198D01*
X565302Y170054D01*
X563809Y169435D01*
X556191Y169435D01*
G37*
%LPD*%
%LPC*%
G36*
X155928Y118816D02*
X155928Y118816D01*
X149716Y125028D01*
X149716Y133814D01*
X155928Y140026D01*
X164714Y140026D01*
X170926Y133814D01*
X170926Y125028D01*
X164714Y118816D01*
X155928Y118816D01*
G37*
%LPD*%
%LPC*%
G36*
X407998Y399935D02*
X407998Y399935D01*
X404299Y401468D01*
X401468Y404299D01*
X399935Y407998D01*
X399935Y412002D01*
X401468Y415701D01*
X404299Y418532D01*
X406922Y419619D01*
X407998Y420065D01*
X412002Y420065D01*
X415701Y418532D01*
X418532Y415701D01*
X420065Y412002D01*
X420065Y407998D01*
X418532Y404299D01*
X415701Y401468D01*
X412002Y399935D01*
X407998Y399935D01*
G37*
%LPD*%
%LPC*%
G36*
X527563Y374063D02*
X527563Y374063D01*
X527563Y391591D01*
X532443Y391591D01*
X545091Y378943D01*
X545091Y374063D01*
X527563Y374063D01*
G37*
%LPD*%
%LPC*%
G36*
X501909Y374063D02*
X501909Y374063D01*
X501909Y378943D01*
X514557Y391591D01*
X519437Y391591D01*
X519437Y374063D01*
X501909Y374063D01*
G37*
%LPD*%
%LPC*%
G36*
X527563Y348409D02*
X527563Y348409D01*
X527563Y365937D01*
X545091Y365937D01*
X545091Y361057D01*
X532443Y348409D01*
X527563Y348409D01*
G37*
%LPD*%
%LPC*%
G36*
X514557Y348409D02*
X514557Y348409D01*
X501909Y361057D01*
X501909Y365937D01*
X519437Y365937D01*
X519437Y348409D01*
X514557Y348409D01*
G37*
%LPD*%
%LPC*%
G36*
X390639Y342539D02*
X390639Y342539D01*
X390639Y357479D01*
X392000Y357036D01*
X393425Y356310D01*
X394719Y355370D01*
X395850Y354239D01*
X396790Y352945D01*
X397516Y351520D01*
X398011Y349999D01*
X398261Y348420D01*
X398261Y342539D01*
X390639Y342539D01*
G37*
%LPD*%
%LPC*%
G36*
X390639Y292539D02*
X390639Y292539D01*
X390639Y307479D01*
X392000Y307036D01*
X393425Y306310D01*
X394719Y305370D01*
X395850Y304239D01*
X396790Y302945D01*
X397516Y301520D01*
X398011Y299999D01*
X398261Y298420D01*
X398261Y292539D01*
X390639Y292539D01*
G37*
%LPD*%
%LPC*%
G36*
X390639Y337461D02*
X390639Y337461D01*
X398261Y337461D01*
X398261Y331580D01*
X398011Y330001D01*
X397516Y328480D01*
X396790Y327055D01*
X395850Y325761D01*
X394719Y324630D01*
X393425Y323690D01*
X392000Y322964D01*
X390639Y322521D01*
X390639Y337461D01*
G37*
%LPD*%
%LPC*%
G36*
X390639Y287461D02*
X390639Y287461D01*
X398261Y287461D01*
X398261Y281580D01*
X398011Y280001D01*
X397516Y278480D01*
X396790Y277055D01*
X395850Y275761D01*
X394719Y274630D01*
X393425Y273690D01*
X392000Y272964D01*
X390639Y272521D01*
X390639Y287461D01*
G37*
%LPD*%
%LPC*%
G36*
X145233Y219224D02*
X145233Y219224D01*
X150218Y224208D01*
X151441Y222985D01*
X151441Y215462D01*
X150218Y214239D01*
X145233Y219224D01*
G37*
%LPD*%
%LPC*%
G36*
X127273Y201263D02*
X127273Y201263D01*
X132257Y206248D01*
X133481Y205024D01*
X133481Y197502D01*
X132257Y196278D01*
X127273Y201263D01*
G37*
%LPD*%
%LPC*%
G36*
X191257Y173199D02*
X191257Y173199D01*
X192481Y174423D01*
X200003Y174423D01*
X201227Y173199D01*
X196242Y168215D01*
X191257Y173199D01*
G37*
%LPD*%
%LPC*%
G36*
X199115Y165342D02*
X199115Y165342D01*
X204099Y170327D01*
X205323Y169103D01*
X205323Y161581D01*
X204099Y160357D01*
X199115Y165342D01*
G37*
%LPD*%
%LPC*%
G36*
X173297Y155239D02*
X173297Y155239D01*
X174520Y156462D01*
X182043Y156462D01*
X183266Y155239D01*
X178282Y150254D01*
X173297Y155239D01*
G37*
%LPD*%
%LPC*%
G36*
X181154Y147382D02*
X181154Y147382D01*
X186139Y152366D01*
X187362Y151143D01*
X187362Y143620D01*
X186139Y142397D01*
X181154Y147382D01*
G37*
%LPD*%
%LPC*%
G36*
X138599Y210143D02*
X138599Y210143D01*
X137376Y211366D01*
X142360Y216351D01*
X147345Y211366D01*
X146122Y210143D01*
X138599Y210143D01*
G37*
%LPD*%
%LPC*%
G36*
X120639Y192182D02*
X120639Y192182D01*
X119415Y193406D01*
X124400Y198390D01*
X129385Y193406D01*
X128161Y192182D01*
X120639Y192182D01*
G37*
%LPD*%
%LPC*%
G36*
X187161Y161581D02*
X187161Y161581D01*
X187161Y169103D01*
X188385Y170327D01*
X193369Y165342D01*
X188385Y160357D01*
X187161Y161581D01*
G37*
%LPD*%
%LPC*%
G36*
X192481Y156261D02*
X192481Y156261D01*
X191257Y157485D01*
X196242Y162469D01*
X201227Y157485D01*
X200003Y156261D01*
X192481Y156261D01*
G37*
%LPD*%
%LPC*%
G36*
X169201Y143620D02*
X169201Y143620D01*
X169201Y151143D01*
X170424Y152366D01*
X175409Y147382D01*
X170424Y142397D01*
X169201Y143620D01*
G37*
%LPD*%
%LPC*%
G36*
X174520Y138301D02*
X174520Y138301D01*
X173297Y139524D01*
X178282Y144509D01*
X183266Y139524D01*
X182043Y138301D01*
X174520Y138301D01*
G37*
%LPD*%
%LPC*%
G36*
X523499Y369999D02*
X523499Y369999D01*
X523499Y370001D01*
X523501Y370001D01*
X523501Y369999D01*
X523499Y369999D01*
G37*
%LPD*%
D10*
X124400Y93500D03*
X142361Y111461D03*
X160321Y129421D03*
X178282Y147382D03*
X196242Y165342D03*
X214203Y183303D03*
X232163Y201263D03*
X250124Y219224D03*
D11*
X196242Y273105D03*
X178282Y255145D03*
X160321Y237184D03*
X142361Y219224D03*
X124400Y201263D03*
X106439Y183303D03*
X88479Y165342D03*
X70518Y147382D03*
D12*
X544600Y202400D02*
X544600Y217480D01*
X519200Y217480D02*
X519200Y202400D01*
X493800Y202400D02*
X493800Y217480D01*
X468400Y217480D02*
X468400Y202400D01*
X417600Y202400D02*
X417600Y217480D01*
X443000Y217480D02*
X443000Y202400D01*
X366800Y50000D02*
X366800Y34920D01*
X366800Y202400D02*
X366800Y217480D01*
X392200Y50000D02*
X392200Y34920D01*
X417600Y34920D02*
X417600Y50000D01*
X443000Y50000D02*
X443000Y34920D01*
X468400Y34920D02*
X468400Y50000D01*
X493800Y50000D02*
X493800Y34920D01*
X519200Y34920D02*
X519200Y50000D01*
X544600Y50000D02*
X544600Y34920D01*
X570000Y202400D02*
X570000Y217480D01*
X570000Y50000D02*
X570000Y34920D01*
X392200Y202400D02*
X392200Y217480D01*
D13*
X460000Y370000D03*
X523500Y370000D03*
X491750Y420800D03*
D14*
X562700Y307620D02*
X562700Y292380D01*
X537300Y292380D02*
X537300Y307620D01*
X311900Y332380D02*
X311900Y347620D01*
X337300Y347620D02*
X337300Y332380D01*
X362700Y332380D02*
X362700Y347620D01*
X388100Y347620D02*
X388100Y332380D01*
X311900Y297620D02*
X311900Y282380D01*
X337300Y282380D02*
X337300Y297620D01*
X362700Y297620D02*
X362700Y282380D01*
X388100Y282380D02*
X388100Y297620D01*
X264368Y293592D02*
X253592Y304368D01*
X235632Y286408D02*
X246408Y275632D01*
D15*
X560000Y177500D03*
X560000Y152500D03*
D16*
X476000Y246000D03*
X496000Y246000D03*
D17*
X480500Y270000D03*
X499500Y270000D03*
D18*
X487000Y303000D03*
X410000Y410000D03*
X517000Y173000D03*
D19*
X510000Y290000D02*
X497000Y303000D01*
X487000Y303000D01*
X510000Y230000D02*
X513000Y227000D01*
X513000Y177000D01*
X517000Y173000D01*
X510000Y270000D02*
X510000Y290000D01*
X510000Y270000D02*
X510000Y230000D01*
X510000Y270000D02*
X499500Y270000D01*
D20*
X232163Y201263D02*
X232163Y117837D01*
X280000Y70000D01*
D19*
X283000Y67000D01*
X384000Y67000D01*
X392200Y58800D01*
X392200Y50000D01*
D20*
X203821Y50000D02*
X142361Y111461D01*
X203821Y50000D02*
X366800Y50000D01*
D21*
X430000Y370000D03*
X260000Y180000D03*
D22*
X400000Y370000D02*
X430000Y370000D01*
X400000Y370000D02*
X370000Y400000D01*
X323349Y400000D02*
X281674Y358326D01*
X281674Y318326D01*
X290000Y310000D01*
X323349Y400000D02*
X370000Y400000D01*
D23*
X290000Y310000D02*
X290000Y240000D01*
X269224Y219224D02*
X250124Y219224D01*
X269224Y219224D02*
X290000Y240000D01*
D24*
X70518Y147382D02*
X70518Y147382D01*
X560000Y140000D02*
X586792Y113208D01*
X586792Y30000D01*
X570000Y13208D01*
X260000Y13208D01*
D19*
X223958Y13208D01*
X156792Y13208D01*
X50000Y120000D01*
X50000Y126863D01*
X70518Y147382D01*
D18*
X234692Y23942D03*
D19*
X223958Y13208D01*
D20*
X560000Y140000D02*
X560000Y152500D01*
D19*
X417600Y202400D02*
X417600Y212400D01*
X380000Y250000D01*
X340000Y250000D01*
X124400Y93500D02*
X120000Y97900D01*
X120000Y140000D01*
X230000Y250000D01*
X260000Y250000D01*
D18*
X267000Y243000D03*
X290000Y200000D03*
D19*
X340000Y250000D01*
X267000Y243000D02*
X260000Y250000D01*
D20*
X560000Y177500D02*
X570000Y187500D01*
X570000Y202400D01*
D19*
X480500Y270000D02*
X476000Y270000D01*
X476000Y246000D01*
X493800Y243800D02*
X496000Y246000D01*
X493800Y243800D02*
X493800Y202400D01*
M02*
