G04 EAGLE Gerber RS-274X export*
G75*
%MOMM*%
%FSLAX34Y34*%
%LPD*%
%IN*%
%IPPOS*%
%AMOC8*
5,1,8,0,0,1.08239X$1,22.5*%
G01*
%ADD10C,0.254000*%


D10*
X0Y0D02*
X600000Y0D01*
X600000Y450000D01*
X350000Y450000D01*
X0Y100000D01*
X0Y0D01*
X55000Y49464D02*
X54924Y48396D01*
X54771Y47335D01*
X54543Y46288D01*
X54241Y45260D01*
X53867Y44256D01*
X53422Y43281D01*
X52908Y42341D01*
X52329Y41440D01*
X51687Y40582D01*
X50985Y39772D01*
X50228Y39015D01*
X49418Y38313D01*
X48560Y37671D01*
X47659Y37092D01*
X46719Y36578D01*
X45744Y36133D01*
X44740Y35759D01*
X43712Y35457D01*
X42665Y35229D01*
X41604Y35076D01*
X40536Y35000D01*
X39464Y35000D01*
X38396Y35076D01*
X37335Y35229D01*
X36288Y35457D01*
X35260Y35759D01*
X34256Y36133D01*
X33281Y36578D01*
X32341Y37092D01*
X31440Y37671D01*
X30582Y38313D01*
X29772Y39015D01*
X29015Y39772D01*
X28313Y40582D01*
X27671Y41440D01*
X27092Y42341D01*
X26578Y43281D01*
X26133Y44256D01*
X25759Y45260D01*
X25457Y46288D01*
X25229Y47335D01*
X25076Y48396D01*
X25000Y49464D01*
X25000Y50536D01*
X25076Y51604D01*
X25229Y52665D01*
X25457Y53712D01*
X25759Y54740D01*
X26133Y55744D01*
X26578Y56719D01*
X27092Y57659D01*
X27671Y58560D01*
X28313Y59418D01*
X29015Y60228D01*
X29772Y60985D01*
X30582Y61687D01*
X31440Y62329D01*
X32341Y62908D01*
X33281Y63422D01*
X34256Y63867D01*
X35260Y64241D01*
X36288Y64543D01*
X37335Y64771D01*
X38396Y64924D01*
X39464Y65000D01*
X40536Y65000D01*
X41604Y64924D01*
X42665Y64771D01*
X43712Y64543D01*
X44740Y64241D01*
X45744Y63867D01*
X46719Y63422D01*
X47659Y62908D01*
X48560Y62329D01*
X49418Y61687D01*
X50228Y60985D01*
X50985Y60228D01*
X51687Y59418D01*
X52329Y58560D01*
X52908Y57659D01*
X53422Y56719D01*
X53867Y55744D01*
X54241Y54740D01*
X54543Y53712D01*
X54771Y52665D01*
X54924Y51604D01*
X55000Y50536D01*
X55000Y49464D01*
X515000Y119464D02*
X514924Y118396D01*
X514771Y117335D01*
X514543Y116288D01*
X514241Y115260D01*
X513867Y114256D01*
X513422Y113281D01*
X512908Y112341D01*
X512329Y111440D01*
X511687Y110582D01*
X510985Y109772D01*
X510228Y109015D01*
X509418Y108313D01*
X508560Y107671D01*
X507659Y107092D01*
X506719Y106578D01*
X505744Y106133D01*
X504740Y105759D01*
X503712Y105457D01*
X502665Y105229D01*
X501604Y105076D01*
X500536Y105000D01*
X499464Y105000D01*
X498396Y105076D01*
X497335Y105229D01*
X496288Y105457D01*
X495260Y105759D01*
X494256Y106133D01*
X493281Y106578D01*
X492341Y107092D01*
X491440Y107671D01*
X490582Y108313D01*
X489772Y109015D01*
X489015Y109772D01*
X488313Y110582D01*
X487671Y111440D01*
X487092Y112341D01*
X486578Y113281D01*
X486133Y114256D01*
X485759Y115260D01*
X485457Y116288D01*
X485229Y117335D01*
X485076Y118396D01*
X485000Y119464D01*
X485000Y120536D01*
X485076Y121604D01*
X485229Y122665D01*
X485457Y123712D01*
X485759Y124740D01*
X486133Y125744D01*
X486578Y126719D01*
X487092Y127659D01*
X487671Y128560D01*
X488313Y129418D01*
X489015Y130228D01*
X489772Y130985D01*
X490582Y131687D01*
X491440Y132329D01*
X492341Y132908D01*
X493281Y133422D01*
X494256Y133867D01*
X495260Y134241D01*
X496288Y134543D01*
X497335Y134771D01*
X498396Y134924D01*
X499464Y135000D01*
X500536Y135000D01*
X501604Y134924D01*
X502665Y134771D01*
X503712Y134543D01*
X504740Y134241D01*
X505744Y133867D01*
X506719Y133422D01*
X507659Y132908D01*
X508560Y132329D01*
X509418Y131687D01*
X510228Y130985D01*
X510985Y130228D01*
X511687Y129418D01*
X512329Y128560D01*
X512908Y127659D01*
X513422Y126719D01*
X513867Y125744D01*
X514241Y124740D01*
X514543Y123712D01*
X514771Y122665D01*
X514924Y121604D01*
X515000Y120536D01*
X515000Y119464D01*
X455000Y299464D02*
X454924Y298396D01*
X454771Y297335D01*
X454543Y296288D01*
X454241Y295260D01*
X453867Y294256D01*
X453422Y293281D01*
X452908Y292341D01*
X452329Y291440D01*
X451687Y290582D01*
X450985Y289772D01*
X450228Y289015D01*
X449418Y288313D01*
X448560Y287671D01*
X447659Y287092D01*
X446719Y286578D01*
X445744Y286133D01*
X444740Y285759D01*
X443712Y285457D01*
X442665Y285229D01*
X441604Y285076D01*
X440536Y285000D01*
X439464Y285000D01*
X438396Y285076D01*
X437335Y285229D01*
X436288Y285457D01*
X435260Y285759D01*
X434256Y286133D01*
X433281Y286578D01*
X432341Y287092D01*
X431440Y287671D01*
X430582Y288313D01*
X429772Y289015D01*
X429015Y289772D01*
X428313Y290582D01*
X427671Y291440D01*
X427092Y292341D01*
X426578Y293281D01*
X426133Y294256D01*
X425759Y295260D01*
X425457Y296288D01*
X425229Y297335D01*
X425076Y298396D01*
X425000Y299464D01*
X425000Y300536D01*
X425076Y301604D01*
X425229Y302665D01*
X425457Y303712D01*
X425759Y304740D01*
X426133Y305744D01*
X426578Y306719D01*
X427092Y307659D01*
X427671Y308560D01*
X428313Y309418D01*
X429015Y310228D01*
X429772Y310985D01*
X430582Y311687D01*
X431440Y312329D01*
X432341Y312908D01*
X433281Y313422D01*
X434256Y313867D01*
X435260Y314241D01*
X436288Y314543D01*
X437335Y314771D01*
X438396Y314924D01*
X439464Y315000D01*
X440536Y315000D01*
X441604Y314924D01*
X442665Y314771D01*
X443712Y314543D01*
X444740Y314241D01*
X445744Y313867D01*
X446719Y313422D01*
X447659Y312908D01*
X448560Y312329D01*
X449418Y311687D01*
X450228Y310985D01*
X450985Y310228D01*
X451687Y309418D01*
X452329Y308560D01*
X452908Y307659D01*
X453422Y306719D01*
X453867Y305744D01*
X454241Y304740D01*
X454543Y303712D01*
X454771Y302665D01*
X454924Y301604D01*
X455000Y300536D01*
X455000Y299464D01*
M02*
