G04 EAGLE Gerber RS-274X export*
G75*
%MOMM*%
%FSLAX34Y34*%
%LPD*%
%INSilkscreen Bottom*%
%IPPOS*%
%AMOC8*
5,1,8,0,0,1.08239X$1,22.5*%
G01*
%ADD10C,0.101600*%
%ADD11C,0.152400*%
%ADD12C,0.127000*%
%ADD13C,0.050800*%


D10*
X234599Y148508D02*
X237196Y148508D01*
X237295Y148510D01*
X237395Y148516D01*
X237494Y148525D01*
X237592Y148538D01*
X237690Y148555D01*
X237788Y148576D01*
X237884Y148601D01*
X237979Y148629D01*
X238073Y148661D01*
X238166Y148696D01*
X238258Y148735D01*
X238348Y148778D01*
X238436Y148823D01*
X238523Y148873D01*
X238607Y148925D01*
X238690Y148981D01*
X238770Y149039D01*
X238848Y149101D01*
X238923Y149166D01*
X238996Y149234D01*
X239066Y149304D01*
X239134Y149377D01*
X239199Y149452D01*
X239261Y149530D01*
X239319Y149610D01*
X239375Y149693D01*
X239427Y149777D01*
X239477Y149864D01*
X239522Y149952D01*
X239565Y150042D01*
X239604Y150134D01*
X239639Y150227D01*
X239671Y150321D01*
X239699Y150416D01*
X239724Y150512D01*
X239745Y150610D01*
X239762Y150708D01*
X239775Y150806D01*
X239784Y150905D01*
X239790Y151005D01*
X239792Y151104D01*
X239792Y157596D01*
X239790Y157695D01*
X239784Y157795D01*
X239775Y157894D01*
X239762Y157992D01*
X239745Y158090D01*
X239724Y158188D01*
X239699Y158284D01*
X239671Y158379D01*
X239639Y158473D01*
X239604Y158566D01*
X239565Y158658D01*
X239522Y158748D01*
X239477Y158836D01*
X239427Y158923D01*
X239375Y159007D01*
X239319Y159090D01*
X239261Y159170D01*
X239199Y159248D01*
X239134Y159323D01*
X239066Y159396D01*
X238996Y159466D01*
X238923Y159534D01*
X238848Y159599D01*
X238770Y159661D01*
X238690Y159719D01*
X238607Y159775D01*
X238523Y159827D01*
X238436Y159877D01*
X238348Y159922D01*
X238258Y159965D01*
X238166Y160004D01*
X238073Y160039D01*
X237979Y160071D01*
X237884Y160099D01*
X237788Y160124D01*
X237690Y160145D01*
X237592Y160162D01*
X237494Y160175D01*
X237395Y160184D01*
X237295Y160190D01*
X237196Y160192D01*
X234599Y160192D01*
X230234Y157596D02*
X226988Y160192D01*
X226988Y148508D01*
X223743Y148508D02*
X230234Y148508D01*
X271864Y9808D02*
X274461Y9808D01*
X274560Y9810D01*
X274660Y9816D01*
X274759Y9825D01*
X274857Y9838D01*
X274955Y9855D01*
X275053Y9876D01*
X275149Y9901D01*
X275244Y9929D01*
X275338Y9961D01*
X275431Y9996D01*
X275523Y10035D01*
X275613Y10078D01*
X275701Y10123D01*
X275788Y10173D01*
X275872Y10225D01*
X275955Y10281D01*
X276035Y10339D01*
X276113Y10401D01*
X276188Y10466D01*
X276261Y10534D01*
X276331Y10604D01*
X276399Y10677D01*
X276464Y10752D01*
X276526Y10830D01*
X276584Y10910D01*
X276640Y10993D01*
X276692Y11077D01*
X276742Y11164D01*
X276787Y11252D01*
X276830Y11342D01*
X276869Y11434D01*
X276904Y11527D01*
X276936Y11621D01*
X276964Y11716D01*
X276989Y11812D01*
X277010Y11910D01*
X277027Y12008D01*
X277040Y12106D01*
X277049Y12205D01*
X277055Y12305D01*
X277057Y12404D01*
X277057Y18896D01*
X277055Y18995D01*
X277049Y19095D01*
X277040Y19194D01*
X277027Y19292D01*
X277010Y19390D01*
X276989Y19488D01*
X276964Y19584D01*
X276936Y19679D01*
X276904Y19773D01*
X276869Y19866D01*
X276830Y19958D01*
X276787Y20048D01*
X276742Y20136D01*
X276692Y20223D01*
X276640Y20307D01*
X276584Y20390D01*
X276526Y20470D01*
X276464Y20548D01*
X276399Y20623D01*
X276331Y20696D01*
X276261Y20766D01*
X276188Y20834D01*
X276113Y20899D01*
X276035Y20961D01*
X275955Y21019D01*
X275872Y21075D01*
X275788Y21127D01*
X275701Y21177D01*
X275613Y21222D01*
X275523Y21265D01*
X275431Y21304D01*
X275338Y21339D01*
X275244Y21371D01*
X275149Y21399D01*
X275053Y21424D01*
X274955Y21445D01*
X274857Y21462D01*
X274759Y21475D01*
X274660Y21484D01*
X274560Y21490D01*
X274461Y21492D01*
X271864Y21492D01*
X263929Y21492D02*
X263822Y21490D01*
X263716Y21484D01*
X263610Y21474D01*
X263504Y21461D01*
X263398Y21443D01*
X263294Y21422D01*
X263190Y21397D01*
X263087Y21368D01*
X262986Y21336D01*
X262886Y21299D01*
X262787Y21259D01*
X262689Y21216D01*
X262593Y21169D01*
X262499Y21118D01*
X262407Y21064D01*
X262317Y21007D01*
X262229Y20947D01*
X262144Y20883D01*
X262061Y20816D01*
X261980Y20746D01*
X261902Y20674D01*
X261826Y20598D01*
X261754Y20520D01*
X261684Y20439D01*
X261617Y20356D01*
X261553Y20271D01*
X261493Y20183D01*
X261436Y20093D01*
X261382Y20001D01*
X261331Y19907D01*
X261284Y19811D01*
X261241Y19713D01*
X261201Y19614D01*
X261164Y19514D01*
X261132Y19413D01*
X261103Y19310D01*
X261078Y19206D01*
X261057Y19102D01*
X261039Y18996D01*
X261026Y18890D01*
X261016Y18784D01*
X261010Y18678D01*
X261008Y18571D01*
X263929Y21492D02*
X264050Y21490D01*
X264171Y21484D01*
X264291Y21474D01*
X264412Y21461D01*
X264531Y21443D01*
X264651Y21422D01*
X264769Y21397D01*
X264886Y21368D01*
X265003Y21335D01*
X265118Y21299D01*
X265232Y21258D01*
X265345Y21215D01*
X265457Y21167D01*
X265566Y21116D01*
X265674Y21061D01*
X265781Y21003D01*
X265885Y20942D01*
X265987Y20877D01*
X266087Y20809D01*
X266185Y20738D01*
X266281Y20664D01*
X266374Y20587D01*
X266464Y20506D01*
X266552Y20423D01*
X266637Y20337D01*
X266720Y20248D01*
X266799Y20157D01*
X266876Y20063D01*
X266949Y19967D01*
X267019Y19869D01*
X267086Y19768D01*
X267150Y19665D01*
X267211Y19560D01*
X267268Y19453D01*
X267321Y19345D01*
X267371Y19235D01*
X267417Y19123D01*
X267460Y19010D01*
X267499Y18895D01*
X261982Y16299D02*
X261903Y16377D01*
X261827Y16457D01*
X261754Y16540D01*
X261684Y16626D01*
X261617Y16713D01*
X261553Y16804D01*
X261493Y16896D01*
X261435Y16990D01*
X261381Y17087D01*
X261331Y17185D01*
X261284Y17285D01*
X261240Y17386D01*
X261200Y17489D01*
X261164Y17594D01*
X261132Y17699D01*
X261103Y17806D01*
X261078Y17913D01*
X261056Y18022D01*
X261039Y18131D01*
X261025Y18240D01*
X261016Y18350D01*
X261010Y18461D01*
X261008Y18571D01*
X261982Y16299D02*
X267499Y9808D01*
X261008Y9808D01*
X384455Y385708D02*
X384455Y397392D01*
X381210Y397392D01*
X381097Y397390D01*
X380984Y397384D01*
X380871Y397374D01*
X380758Y397360D01*
X380646Y397343D01*
X380535Y397321D01*
X380425Y397296D01*
X380315Y397266D01*
X380207Y397233D01*
X380100Y397196D01*
X379994Y397156D01*
X379890Y397111D01*
X379787Y397063D01*
X379686Y397012D01*
X379587Y396957D01*
X379490Y396899D01*
X379395Y396837D01*
X379302Y396772D01*
X379212Y396704D01*
X379124Y396633D01*
X379038Y396558D01*
X378955Y396481D01*
X378875Y396401D01*
X378798Y396318D01*
X378723Y396232D01*
X378652Y396144D01*
X378584Y396054D01*
X378519Y395961D01*
X378457Y395866D01*
X378399Y395769D01*
X378344Y395670D01*
X378293Y395569D01*
X378245Y395466D01*
X378200Y395362D01*
X378160Y395256D01*
X378123Y395149D01*
X378090Y395041D01*
X378060Y394931D01*
X378035Y394821D01*
X378013Y394710D01*
X377996Y394598D01*
X377982Y394485D01*
X377972Y394372D01*
X377966Y394259D01*
X377964Y394146D01*
X377966Y394033D01*
X377972Y393920D01*
X377982Y393807D01*
X377996Y393694D01*
X378013Y393582D01*
X378035Y393471D01*
X378060Y393361D01*
X378090Y393251D01*
X378123Y393143D01*
X378160Y393036D01*
X378200Y392930D01*
X378245Y392826D01*
X378293Y392723D01*
X378344Y392622D01*
X378399Y392523D01*
X378457Y392426D01*
X378519Y392331D01*
X378584Y392238D01*
X378652Y392148D01*
X378723Y392060D01*
X378798Y391974D01*
X378875Y391891D01*
X378955Y391811D01*
X379038Y391734D01*
X379124Y391659D01*
X379212Y391588D01*
X379302Y391520D01*
X379395Y391455D01*
X379490Y391393D01*
X379587Y391335D01*
X379686Y391280D01*
X379787Y391229D01*
X379890Y391181D01*
X379994Y391136D01*
X380100Y391096D01*
X380207Y391059D01*
X380315Y391026D01*
X380425Y390996D01*
X380535Y390971D01*
X380646Y390949D01*
X380758Y390932D01*
X380871Y390918D01*
X380984Y390908D01*
X381097Y390902D01*
X381210Y390900D01*
X381210Y390901D02*
X384455Y390901D01*
X380561Y390901D02*
X377964Y385708D01*
X366608Y394471D02*
X366610Y394578D01*
X366616Y394684D01*
X366626Y394790D01*
X366639Y394896D01*
X366657Y395002D01*
X366678Y395106D01*
X366703Y395210D01*
X366732Y395313D01*
X366764Y395414D01*
X366801Y395514D01*
X366841Y395613D01*
X366884Y395711D01*
X366931Y395807D01*
X366982Y395901D01*
X367036Y395993D01*
X367093Y396083D01*
X367153Y396171D01*
X367217Y396256D01*
X367284Y396339D01*
X367354Y396420D01*
X367426Y396498D01*
X367502Y396574D01*
X367580Y396646D01*
X367661Y396716D01*
X367744Y396783D01*
X367829Y396847D01*
X367917Y396907D01*
X368007Y396964D01*
X368099Y397018D01*
X368193Y397069D01*
X368289Y397116D01*
X368387Y397159D01*
X368486Y397199D01*
X368586Y397236D01*
X368687Y397268D01*
X368790Y397297D01*
X368894Y397322D01*
X368998Y397343D01*
X369104Y397361D01*
X369210Y397374D01*
X369316Y397384D01*
X369422Y397390D01*
X369529Y397392D01*
X369650Y397390D01*
X369771Y397384D01*
X369891Y397374D01*
X370012Y397361D01*
X370131Y397343D01*
X370251Y397322D01*
X370369Y397297D01*
X370486Y397268D01*
X370603Y397235D01*
X370718Y397199D01*
X370832Y397158D01*
X370945Y397115D01*
X371057Y397067D01*
X371166Y397016D01*
X371274Y396961D01*
X371381Y396903D01*
X371485Y396842D01*
X371587Y396777D01*
X371687Y396709D01*
X371785Y396638D01*
X371881Y396564D01*
X371974Y396487D01*
X372064Y396406D01*
X372152Y396323D01*
X372237Y396237D01*
X372320Y396148D01*
X372399Y396057D01*
X372476Y395963D01*
X372549Y395867D01*
X372619Y395769D01*
X372686Y395668D01*
X372750Y395565D01*
X372811Y395460D01*
X372868Y395353D01*
X372921Y395245D01*
X372971Y395135D01*
X373017Y395023D01*
X373060Y394910D01*
X373099Y394795D01*
X367582Y392199D02*
X367503Y392277D01*
X367427Y392357D01*
X367354Y392440D01*
X367284Y392526D01*
X367217Y392613D01*
X367153Y392704D01*
X367093Y392796D01*
X367035Y392890D01*
X366981Y392987D01*
X366931Y393085D01*
X366884Y393185D01*
X366840Y393286D01*
X366800Y393389D01*
X366764Y393494D01*
X366732Y393599D01*
X366703Y393706D01*
X366678Y393813D01*
X366656Y393922D01*
X366639Y394031D01*
X366625Y394140D01*
X366616Y394250D01*
X366610Y394361D01*
X366608Y394471D01*
X367582Y392199D02*
X373099Y385708D01*
X366608Y385708D01*
X533708Y255345D02*
X545392Y255345D01*
X545392Y258590D01*
X545390Y258703D01*
X545384Y258816D01*
X545374Y258929D01*
X545360Y259042D01*
X545343Y259154D01*
X545321Y259265D01*
X545296Y259375D01*
X545266Y259485D01*
X545233Y259593D01*
X545196Y259700D01*
X545156Y259806D01*
X545111Y259910D01*
X545063Y260013D01*
X545012Y260114D01*
X544957Y260213D01*
X544899Y260310D01*
X544837Y260405D01*
X544772Y260498D01*
X544704Y260588D01*
X544633Y260676D01*
X544558Y260762D01*
X544481Y260845D01*
X544401Y260925D01*
X544318Y261002D01*
X544232Y261077D01*
X544144Y261148D01*
X544054Y261216D01*
X543961Y261281D01*
X543866Y261343D01*
X543769Y261401D01*
X543670Y261456D01*
X543569Y261507D01*
X543466Y261555D01*
X543362Y261600D01*
X543256Y261640D01*
X543149Y261677D01*
X543041Y261710D01*
X542931Y261740D01*
X542821Y261765D01*
X542710Y261787D01*
X542598Y261804D01*
X542485Y261818D01*
X542372Y261828D01*
X542259Y261834D01*
X542146Y261836D01*
X542033Y261834D01*
X541920Y261828D01*
X541807Y261818D01*
X541694Y261804D01*
X541582Y261787D01*
X541471Y261765D01*
X541361Y261740D01*
X541251Y261710D01*
X541143Y261677D01*
X541036Y261640D01*
X540930Y261600D01*
X540826Y261555D01*
X540723Y261507D01*
X540622Y261456D01*
X540523Y261401D01*
X540426Y261343D01*
X540331Y261281D01*
X540238Y261216D01*
X540148Y261148D01*
X540060Y261077D01*
X539974Y261002D01*
X539891Y260925D01*
X539811Y260845D01*
X539734Y260762D01*
X539659Y260676D01*
X539588Y260588D01*
X539520Y260498D01*
X539455Y260405D01*
X539393Y260310D01*
X539335Y260213D01*
X539280Y260114D01*
X539229Y260013D01*
X539181Y259910D01*
X539136Y259806D01*
X539096Y259700D01*
X539059Y259593D01*
X539026Y259485D01*
X538996Y259375D01*
X538971Y259265D01*
X538949Y259154D01*
X538932Y259042D01*
X538918Y258929D01*
X538908Y258816D01*
X538902Y258703D01*
X538900Y258590D01*
X538901Y258590D02*
X538901Y255345D01*
X538901Y259239D02*
X533708Y261836D01*
X533708Y266701D02*
X533708Y269946D01*
X533710Y270059D01*
X533716Y270172D01*
X533726Y270285D01*
X533740Y270398D01*
X533757Y270510D01*
X533779Y270621D01*
X533804Y270731D01*
X533834Y270841D01*
X533867Y270949D01*
X533904Y271056D01*
X533944Y271162D01*
X533989Y271266D01*
X534037Y271369D01*
X534088Y271470D01*
X534143Y271569D01*
X534201Y271666D01*
X534263Y271761D01*
X534328Y271854D01*
X534396Y271944D01*
X534467Y272032D01*
X534542Y272118D01*
X534619Y272201D01*
X534699Y272281D01*
X534782Y272358D01*
X534868Y272433D01*
X534956Y272504D01*
X535046Y272572D01*
X535139Y272637D01*
X535234Y272699D01*
X535331Y272757D01*
X535430Y272812D01*
X535531Y272863D01*
X535634Y272911D01*
X535738Y272956D01*
X535844Y272996D01*
X535951Y273033D01*
X536059Y273066D01*
X536169Y273096D01*
X536279Y273121D01*
X536390Y273143D01*
X536502Y273160D01*
X536615Y273174D01*
X536728Y273184D01*
X536841Y273190D01*
X536954Y273192D01*
X537067Y273190D01*
X537180Y273184D01*
X537293Y273174D01*
X537406Y273160D01*
X537518Y273143D01*
X537629Y273121D01*
X537739Y273096D01*
X537849Y273066D01*
X537957Y273033D01*
X538064Y272996D01*
X538170Y272956D01*
X538274Y272911D01*
X538377Y272863D01*
X538478Y272812D01*
X538577Y272757D01*
X538674Y272699D01*
X538769Y272637D01*
X538862Y272572D01*
X538952Y272504D01*
X539040Y272433D01*
X539126Y272358D01*
X539209Y272281D01*
X539289Y272201D01*
X539366Y272118D01*
X539441Y272032D01*
X539512Y271944D01*
X539580Y271854D01*
X539645Y271761D01*
X539707Y271666D01*
X539765Y271569D01*
X539820Y271470D01*
X539871Y271369D01*
X539919Y271266D01*
X539964Y271162D01*
X540004Y271056D01*
X540041Y270949D01*
X540074Y270841D01*
X540104Y270731D01*
X540129Y270621D01*
X540151Y270510D01*
X540168Y270398D01*
X540182Y270285D01*
X540192Y270172D01*
X540198Y270059D01*
X540200Y269946D01*
X545392Y270596D02*
X545392Y266701D01*
X545392Y270596D02*
X545390Y270697D01*
X545384Y270797D01*
X545374Y270897D01*
X545361Y270997D01*
X545343Y271096D01*
X545322Y271195D01*
X545297Y271292D01*
X545268Y271389D01*
X545235Y271484D01*
X545199Y271578D01*
X545159Y271670D01*
X545116Y271761D01*
X545069Y271850D01*
X545019Y271937D01*
X544965Y272023D01*
X544908Y272106D01*
X544848Y272186D01*
X544785Y272265D01*
X544718Y272341D01*
X544649Y272414D01*
X544577Y272484D01*
X544503Y272552D01*
X544426Y272617D01*
X544346Y272678D01*
X544264Y272737D01*
X544180Y272792D01*
X544094Y272844D01*
X544006Y272893D01*
X543916Y272938D01*
X543824Y272980D01*
X543731Y273018D01*
X543636Y273052D01*
X543541Y273083D01*
X543444Y273110D01*
X543346Y273133D01*
X543247Y273153D01*
X543147Y273168D01*
X543047Y273180D01*
X542947Y273188D01*
X542846Y273192D01*
X542746Y273192D01*
X542645Y273188D01*
X542545Y273180D01*
X542445Y273168D01*
X542345Y273153D01*
X542246Y273133D01*
X542148Y273110D01*
X542051Y273083D01*
X541956Y273052D01*
X541861Y273018D01*
X541768Y272980D01*
X541676Y272938D01*
X541586Y272893D01*
X541498Y272844D01*
X541412Y272792D01*
X541328Y272737D01*
X541246Y272678D01*
X541166Y272617D01*
X541089Y272552D01*
X541015Y272484D01*
X540943Y272414D01*
X540874Y272341D01*
X540807Y272265D01*
X540744Y272186D01*
X540684Y272106D01*
X540627Y272023D01*
X540573Y271937D01*
X540523Y271850D01*
X540476Y271761D01*
X540433Y271670D01*
X540393Y271578D01*
X540357Y271484D01*
X540324Y271389D01*
X540295Y271292D01*
X540270Y271195D01*
X540249Y271096D01*
X540231Y270997D01*
X540218Y270897D01*
X540208Y270797D01*
X540202Y270697D01*
X540200Y270596D01*
X540199Y270596D02*
X540199Y267999D01*
D11*
X176704Y67161D02*
X181219Y56324D01*
X172188Y56324D02*
X176704Y67161D01*
X170382Y74421D02*
X186638Y74421D01*
X170382Y83452D01*
X186638Y83452D01*
X186638Y95089D02*
X170382Y89670D01*
X170382Y100508D02*
X186638Y95089D01*
X174446Y99153D02*
X174446Y91025D01*
X170382Y106865D02*
X186638Y106865D01*
X177607Y112283D01*
X186638Y117702D01*
X170382Y117702D01*
X170382Y125513D02*
X170382Y132738D01*
X170382Y125513D02*
X186638Y125513D01*
X186638Y132738D01*
X179413Y130932D02*
X179413Y125513D01*
D12*
X479800Y231800D02*
X479800Y233800D01*
X479800Y231800D02*
X533800Y231800D01*
X533800Y233800D01*
X479800Y283800D02*
X479800Y285800D01*
X533800Y285800D01*
X533800Y283800D01*
D13*
X494638Y237546D02*
X494638Y228741D01*
X494639Y228741D02*
X494637Y228625D01*
X494631Y228510D01*
X494621Y228395D01*
X494607Y228280D01*
X494590Y228166D01*
X494568Y228052D01*
X494543Y227939D01*
X494513Y227827D01*
X494480Y227716D01*
X494443Y227607D01*
X494403Y227498D01*
X494359Y227392D01*
X494311Y227286D01*
X494259Y227183D01*
X494204Y227081D01*
X494146Y226981D01*
X494084Y226883D01*
X494019Y226788D01*
X493951Y226694D01*
X493879Y226604D01*
X493805Y226515D01*
X493727Y226429D01*
X493647Y226346D01*
X493564Y226266D01*
X493478Y226188D01*
X493389Y226114D01*
X493299Y226042D01*
X493205Y225974D01*
X493110Y225909D01*
X493012Y225847D01*
X492912Y225789D01*
X492810Y225734D01*
X492707Y225682D01*
X492601Y225634D01*
X492495Y225590D01*
X492386Y225550D01*
X492277Y225513D01*
X492166Y225480D01*
X492054Y225450D01*
X491941Y225425D01*
X491827Y225403D01*
X491713Y225386D01*
X491598Y225372D01*
X491483Y225362D01*
X491368Y225356D01*
X491252Y225354D01*
X491136Y225356D01*
X491021Y225362D01*
X490906Y225372D01*
X490791Y225386D01*
X490677Y225403D01*
X490563Y225425D01*
X490450Y225450D01*
X490338Y225480D01*
X490227Y225513D01*
X490118Y225550D01*
X490009Y225590D01*
X489903Y225634D01*
X489797Y225682D01*
X489694Y225734D01*
X489592Y225789D01*
X489492Y225847D01*
X489394Y225909D01*
X489299Y225974D01*
X489205Y226042D01*
X489115Y226114D01*
X489026Y226188D01*
X488940Y226266D01*
X488857Y226346D01*
X488777Y226429D01*
X488699Y226515D01*
X488625Y226604D01*
X488553Y226694D01*
X488485Y226788D01*
X488420Y226883D01*
X488358Y226981D01*
X488300Y227081D01*
X488245Y227183D01*
X488193Y227286D01*
X488145Y227392D01*
X488101Y227498D01*
X488061Y227607D01*
X488024Y227716D01*
X487991Y227827D01*
X487961Y227939D01*
X487936Y228052D01*
X487914Y228166D01*
X487897Y228280D01*
X487883Y228395D01*
X487873Y228510D01*
X487867Y228625D01*
X487865Y228741D01*
X487865Y237546D01*
X479102Y237546D02*
X478993Y237544D01*
X478885Y237538D01*
X478776Y237529D01*
X478668Y237515D01*
X478561Y237498D01*
X478454Y237476D01*
X478348Y237451D01*
X478243Y237423D01*
X478139Y237390D01*
X478037Y237354D01*
X477936Y237314D01*
X477836Y237271D01*
X477738Y237224D01*
X477641Y237173D01*
X477547Y237119D01*
X477454Y237062D01*
X477364Y237002D01*
X477275Y236938D01*
X477189Y236871D01*
X477106Y236802D01*
X477025Y236729D01*
X476947Y236653D01*
X476871Y236575D01*
X476798Y236494D01*
X476729Y236411D01*
X476662Y236325D01*
X476598Y236236D01*
X476538Y236146D01*
X476481Y236053D01*
X476427Y235959D01*
X476376Y235862D01*
X476329Y235764D01*
X476286Y235664D01*
X476246Y235563D01*
X476210Y235461D01*
X476177Y235357D01*
X476149Y235252D01*
X476124Y235146D01*
X476102Y235039D01*
X476085Y234932D01*
X476071Y234824D01*
X476062Y234715D01*
X476056Y234607D01*
X476054Y234498D01*
X479102Y237546D02*
X479225Y237544D01*
X479348Y237538D01*
X479471Y237529D01*
X479593Y237515D01*
X479715Y237498D01*
X479836Y237477D01*
X479957Y237452D01*
X480077Y237423D01*
X480195Y237390D01*
X480313Y237354D01*
X480429Y237314D01*
X480545Y237271D01*
X480658Y237223D01*
X480771Y237173D01*
X480881Y237119D01*
X480990Y237061D01*
X481097Y237000D01*
X481202Y236935D01*
X481305Y236868D01*
X481405Y236797D01*
X481504Y236723D01*
X481600Y236646D01*
X481693Y236566D01*
X481784Y236483D01*
X481873Y236397D01*
X481958Y236309D01*
X482041Y236218D01*
X482121Y236124D01*
X482198Y236028D01*
X482272Y235929D01*
X482342Y235829D01*
X482410Y235726D01*
X482474Y235621D01*
X482535Y235514D01*
X482593Y235405D01*
X482647Y235294D01*
X482697Y235182D01*
X482744Y235068D01*
X482788Y234953D01*
X482827Y234837D01*
X477070Y232127D02*
X476991Y232205D01*
X476915Y232285D01*
X476842Y232367D01*
X476772Y232453D01*
X476704Y232540D01*
X476639Y232630D01*
X476578Y232721D01*
X476520Y232815D01*
X476464Y232911D01*
X476413Y233008D01*
X476364Y233108D01*
X476319Y233208D01*
X476277Y233311D01*
X476239Y233414D01*
X476204Y233519D01*
X476173Y233625D01*
X476145Y233732D01*
X476121Y233840D01*
X476100Y233948D01*
X476084Y234057D01*
X476071Y234167D01*
X476061Y234277D01*
X476056Y234388D01*
X476054Y234498D01*
X477070Y232127D02*
X482827Y225354D01*
X476054Y225354D01*
D10*
X385655Y355108D02*
X385655Y366792D01*
X382410Y366792D01*
X382297Y366790D01*
X382184Y366784D01*
X382071Y366774D01*
X381958Y366760D01*
X381846Y366743D01*
X381735Y366721D01*
X381625Y366696D01*
X381515Y366666D01*
X381407Y366633D01*
X381300Y366596D01*
X381194Y366556D01*
X381090Y366511D01*
X380987Y366463D01*
X380886Y366412D01*
X380787Y366357D01*
X380690Y366299D01*
X380595Y366237D01*
X380502Y366172D01*
X380412Y366104D01*
X380324Y366033D01*
X380238Y365958D01*
X380155Y365881D01*
X380075Y365801D01*
X379998Y365718D01*
X379923Y365632D01*
X379852Y365544D01*
X379784Y365454D01*
X379719Y365361D01*
X379657Y365266D01*
X379599Y365169D01*
X379544Y365070D01*
X379493Y364969D01*
X379445Y364866D01*
X379400Y364762D01*
X379360Y364656D01*
X379323Y364549D01*
X379290Y364441D01*
X379260Y364331D01*
X379235Y364221D01*
X379213Y364110D01*
X379196Y363998D01*
X379182Y363885D01*
X379172Y363772D01*
X379166Y363659D01*
X379164Y363546D01*
X379166Y363433D01*
X379172Y363320D01*
X379182Y363207D01*
X379196Y363094D01*
X379213Y362982D01*
X379235Y362871D01*
X379260Y362761D01*
X379290Y362651D01*
X379323Y362543D01*
X379360Y362436D01*
X379400Y362330D01*
X379445Y362226D01*
X379493Y362123D01*
X379544Y362022D01*
X379599Y361923D01*
X379657Y361826D01*
X379719Y361731D01*
X379784Y361638D01*
X379852Y361548D01*
X379923Y361460D01*
X379998Y361374D01*
X380075Y361291D01*
X380155Y361211D01*
X380238Y361134D01*
X380324Y361059D01*
X380412Y360988D01*
X380502Y360920D01*
X380595Y360855D01*
X380690Y360793D01*
X380787Y360735D01*
X380886Y360680D01*
X380987Y360629D01*
X381090Y360581D01*
X381194Y360536D01*
X381300Y360496D01*
X381407Y360459D01*
X381515Y360426D01*
X381625Y360396D01*
X381735Y360371D01*
X381846Y360349D01*
X381958Y360332D01*
X382071Y360318D01*
X382184Y360308D01*
X382297Y360302D01*
X382410Y360300D01*
X382410Y360301D02*
X385655Y360301D01*
X381761Y360301D02*
X379164Y355108D01*
X374299Y364196D02*
X371054Y366792D01*
X371054Y355108D01*
X374299Y355108D02*
X367808Y355108D01*
M02*
