G04 EAGLE Gerber RS-274X export*
G75*
%MOMM*%
%FSLAX34Y34*%
%LPD*%
%INSilkscreen Top*%
%IPPOS*%
%AMOC8*
5,1,8,0,0,1.08239X$1,22.5*%
G01*
%ADD10C,0.127000*%
%ADD11C,0.101600*%
%ADD12C,0.152400*%
%ADD13R,1.100000X0.600000*%
%ADD14C,0.025400*%


D10*
X117665Y86765D02*
X115420Y84520D01*
X61538Y138401D01*
X63783Y140646D01*
X256859Y225959D02*
X259104Y228204D01*
X205222Y282085D01*
X202977Y279840D01*
D11*
X132612Y80079D02*
X128481Y80538D01*
X132612Y80079D02*
X124350Y71818D01*
X122055Y74113D02*
X126645Y69523D01*
X99515Y95216D02*
X93548Y89249D01*
X93469Y89168D01*
X93393Y89084D01*
X93320Y88997D01*
X93251Y88907D01*
X93184Y88816D01*
X93121Y88722D01*
X93061Y88626D01*
X93004Y88528D01*
X92951Y88428D01*
X92901Y88326D01*
X92855Y88222D01*
X92813Y88117D01*
X92774Y88011D01*
X92739Y87903D01*
X92708Y87794D01*
X92680Y87684D01*
X92657Y87573D01*
X92637Y87462D01*
X92621Y87350D01*
X92609Y87237D01*
X92601Y87124D01*
X92597Y87011D01*
X92597Y86897D01*
X92601Y86784D01*
X92609Y86671D01*
X92621Y86558D01*
X92637Y86446D01*
X92657Y86335D01*
X92680Y86224D01*
X92708Y86114D01*
X92739Y86005D01*
X92774Y85897D01*
X92813Y85791D01*
X92855Y85686D01*
X92901Y85582D01*
X92951Y85480D01*
X93004Y85380D01*
X93061Y85282D01*
X93121Y85186D01*
X93184Y85092D01*
X93251Y85001D01*
X93320Y84911D01*
X93393Y84824D01*
X93469Y84740D01*
X93548Y84659D01*
X93629Y84580D01*
X93713Y84504D01*
X93800Y84431D01*
X93890Y84362D01*
X93981Y84295D01*
X94075Y84232D01*
X94171Y84172D01*
X94269Y84115D01*
X94369Y84062D01*
X94471Y84012D01*
X94575Y83966D01*
X94680Y83924D01*
X94786Y83885D01*
X94894Y83850D01*
X95003Y83819D01*
X95113Y83791D01*
X95224Y83768D01*
X95335Y83748D01*
X95447Y83732D01*
X95560Y83720D01*
X95673Y83712D01*
X95786Y83708D01*
X95900Y83708D01*
X96013Y83712D01*
X96126Y83720D01*
X96239Y83732D01*
X96351Y83748D01*
X96462Y83768D01*
X96573Y83791D01*
X96683Y83819D01*
X96792Y83850D01*
X96900Y83885D01*
X97006Y83924D01*
X97111Y83966D01*
X97215Y84012D01*
X97317Y84062D01*
X97417Y84115D01*
X97515Y84172D01*
X97611Y84232D01*
X97705Y84295D01*
X97797Y84362D01*
X97886Y84431D01*
X97973Y84504D01*
X98057Y84580D01*
X98138Y84659D01*
X104105Y90626D01*
X99604Y78603D02*
X101899Y76308D01*
X101980Y76229D01*
X102064Y76153D01*
X102151Y76080D01*
X102240Y76011D01*
X102332Y75944D01*
X102426Y75881D01*
X102522Y75821D01*
X102620Y75764D01*
X102720Y75711D01*
X102822Y75661D01*
X102926Y75615D01*
X103031Y75573D01*
X103137Y75534D01*
X103245Y75499D01*
X103354Y75468D01*
X103464Y75440D01*
X103575Y75417D01*
X103686Y75397D01*
X103798Y75381D01*
X103911Y75369D01*
X104024Y75361D01*
X104137Y75357D01*
X104251Y75357D01*
X104364Y75361D01*
X104477Y75369D01*
X104590Y75381D01*
X104702Y75397D01*
X104813Y75417D01*
X104924Y75440D01*
X105034Y75468D01*
X105143Y75499D01*
X105251Y75534D01*
X105357Y75573D01*
X105462Y75615D01*
X105566Y75661D01*
X105668Y75711D01*
X105768Y75764D01*
X105866Y75821D01*
X105962Y75881D01*
X106056Y75944D01*
X106147Y76011D01*
X106237Y76080D01*
X106324Y76153D01*
X106408Y76229D01*
X106489Y76308D01*
X106568Y76389D01*
X106644Y76473D01*
X106717Y76560D01*
X106786Y76650D01*
X106853Y76741D01*
X106916Y76835D01*
X106976Y76931D01*
X107033Y77029D01*
X107086Y77129D01*
X107136Y77231D01*
X107182Y77335D01*
X107224Y77440D01*
X107263Y77546D01*
X107298Y77654D01*
X107329Y77763D01*
X107357Y77873D01*
X107380Y77984D01*
X107400Y78095D01*
X107416Y78207D01*
X107428Y78320D01*
X107436Y78433D01*
X107440Y78546D01*
X107440Y78660D01*
X107436Y78773D01*
X107428Y78886D01*
X107416Y78999D01*
X107400Y79111D01*
X107380Y79222D01*
X107357Y79333D01*
X107329Y79443D01*
X107298Y79552D01*
X107263Y79660D01*
X107224Y79766D01*
X107182Y79871D01*
X107136Y79975D01*
X107086Y80077D01*
X107033Y80177D01*
X106976Y80275D01*
X106916Y80371D01*
X106853Y80465D01*
X106786Y80557D01*
X106717Y80646D01*
X106644Y80733D01*
X106568Y80817D01*
X106489Y80898D01*
X110620Y84111D02*
X107866Y86865D01*
X110620Y84111D02*
X110689Y84038D01*
X110756Y83963D01*
X110820Y83885D01*
X110881Y83805D01*
X110939Y83722D01*
X110993Y83638D01*
X111045Y83551D01*
X111092Y83463D01*
X111137Y83372D01*
X111178Y83280D01*
X111215Y83186D01*
X111248Y83092D01*
X111278Y82995D01*
X111304Y82898D01*
X111326Y82800D01*
X111345Y82701D01*
X111359Y82601D01*
X111370Y82501D01*
X111377Y82401D01*
X111380Y82300D01*
X111379Y82199D01*
X111374Y82099D01*
X111365Y81999D01*
X111353Y81899D01*
X111336Y81799D01*
X111316Y81701D01*
X111292Y81603D01*
X111264Y81506D01*
X111232Y81411D01*
X111197Y81317D01*
X111158Y81224D01*
X111115Y81132D01*
X111069Y81043D01*
X111020Y80955D01*
X110967Y80870D01*
X110911Y80786D01*
X110851Y80705D01*
X110789Y80626D01*
X110723Y80549D01*
X110655Y80475D01*
X110584Y80404D01*
X110510Y80336D01*
X110433Y80270D01*
X110354Y80208D01*
X110273Y80148D01*
X110189Y80092D01*
X110104Y80039D01*
X110016Y79990D01*
X109927Y79944D01*
X109835Y79901D01*
X109742Y79862D01*
X109648Y79827D01*
X109553Y79795D01*
X109456Y79767D01*
X109358Y79743D01*
X109260Y79723D01*
X109160Y79706D01*
X109060Y79694D01*
X108960Y79685D01*
X108860Y79680D01*
X108759Y79679D01*
X108658Y79682D01*
X108558Y79689D01*
X108458Y79700D01*
X108358Y79714D01*
X108259Y79733D01*
X108161Y79755D01*
X108064Y79781D01*
X107967Y79811D01*
X107873Y79844D01*
X107779Y79881D01*
X107687Y79922D01*
X107596Y79967D01*
X107508Y80014D01*
X107421Y80066D01*
X107337Y80120D01*
X107254Y80178D01*
X107174Y80239D01*
X107096Y80303D01*
X107021Y80370D01*
X106948Y80439D01*
X105112Y82275D01*
X571298Y106388D02*
X571298Y114177D01*
X572596Y119610D02*
X564158Y119610D01*
X572596Y119610D02*
X572709Y119612D01*
X572822Y119618D01*
X572935Y119628D01*
X573048Y119642D01*
X573160Y119659D01*
X573271Y119681D01*
X573381Y119706D01*
X573491Y119736D01*
X573599Y119769D01*
X573706Y119806D01*
X573812Y119846D01*
X573916Y119891D01*
X574019Y119939D01*
X574120Y119990D01*
X574219Y120045D01*
X574316Y120103D01*
X574411Y120165D01*
X574504Y120230D01*
X574594Y120298D01*
X574682Y120369D01*
X574768Y120444D01*
X574851Y120521D01*
X574931Y120601D01*
X575008Y120684D01*
X575083Y120770D01*
X575154Y120858D01*
X575222Y120948D01*
X575287Y121041D01*
X575349Y121136D01*
X575407Y121233D01*
X575462Y121332D01*
X575513Y121433D01*
X575561Y121536D01*
X575606Y121640D01*
X575646Y121746D01*
X575683Y121853D01*
X575716Y121961D01*
X575746Y122071D01*
X575771Y122181D01*
X575793Y122292D01*
X575810Y122404D01*
X575824Y122517D01*
X575834Y122630D01*
X575840Y122743D01*
X575842Y122856D01*
X575840Y122969D01*
X575834Y123082D01*
X575824Y123195D01*
X575810Y123308D01*
X575793Y123420D01*
X575771Y123531D01*
X575746Y123641D01*
X575716Y123751D01*
X575683Y123859D01*
X575646Y123966D01*
X575606Y124072D01*
X575561Y124176D01*
X575513Y124279D01*
X575462Y124380D01*
X575407Y124479D01*
X575349Y124576D01*
X575287Y124671D01*
X575222Y124764D01*
X575154Y124854D01*
X575083Y124942D01*
X575008Y125028D01*
X574931Y125111D01*
X574851Y125191D01*
X574768Y125268D01*
X574682Y125343D01*
X574594Y125414D01*
X574504Y125482D01*
X574411Y125547D01*
X574316Y125609D01*
X574219Y125667D01*
X574120Y125722D01*
X574019Y125773D01*
X573916Y125821D01*
X573812Y125866D01*
X573706Y125906D01*
X573599Y125943D01*
X573491Y125976D01*
X573381Y126006D01*
X573271Y126031D01*
X573160Y126053D01*
X573048Y126070D01*
X572935Y126084D01*
X572822Y126094D01*
X572709Y126100D01*
X572596Y126102D01*
X572596Y126101D02*
X564158Y126101D01*
X573246Y137531D02*
X573345Y137529D01*
X573445Y137523D01*
X573544Y137514D01*
X573642Y137501D01*
X573740Y137484D01*
X573838Y137463D01*
X573934Y137438D01*
X574029Y137410D01*
X574123Y137378D01*
X574216Y137343D01*
X574308Y137304D01*
X574398Y137261D01*
X574486Y137216D01*
X574573Y137166D01*
X574657Y137114D01*
X574740Y137058D01*
X574820Y137000D01*
X574898Y136938D01*
X574973Y136873D01*
X575046Y136805D01*
X575116Y136735D01*
X575184Y136662D01*
X575249Y136587D01*
X575311Y136509D01*
X575369Y136429D01*
X575425Y136346D01*
X575477Y136262D01*
X575527Y136175D01*
X575572Y136087D01*
X575615Y135997D01*
X575654Y135905D01*
X575689Y135812D01*
X575721Y135718D01*
X575749Y135623D01*
X575774Y135527D01*
X575795Y135429D01*
X575812Y135331D01*
X575825Y135233D01*
X575834Y135134D01*
X575840Y135034D01*
X575842Y134935D01*
X575840Y134791D01*
X575834Y134646D01*
X575825Y134502D01*
X575812Y134359D01*
X575795Y134215D01*
X575774Y134072D01*
X575749Y133930D01*
X575721Y133789D01*
X575689Y133648D01*
X575653Y133508D01*
X575614Y133369D01*
X575571Y133231D01*
X575524Y133095D01*
X575474Y132959D01*
X575420Y132825D01*
X575363Y132693D01*
X575302Y132562D01*
X575238Y132433D01*
X575170Y132305D01*
X575100Y132179D01*
X575025Y132055D01*
X574948Y131934D01*
X574867Y131814D01*
X574784Y131696D01*
X574697Y131581D01*
X574607Y131468D01*
X574514Y131357D01*
X574419Y131249D01*
X574320Y131143D01*
X574219Y131040D01*
X566754Y131365D02*
X566655Y131367D01*
X566555Y131373D01*
X566456Y131382D01*
X566358Y131395D01*
X566260Y131412D01*
X566162Y131433D01*
X566066Y131458D01*
X565971Y131486D01*
X565877Y131518D01*
X565784Y131553D01*
X565692Y131592D01*
X565602Y131635D01*
X565514Y131680D01*
X565427Y131730D01*
X565343Y131782D01*
X565260Y131838D01*
X565180Y131896D01*
X565102Y131958D01*
X565027Y132023D01*
X564954Y132091D01*
X564884Y132161D01*
X564816Y132234D01*
X564751Y132309D01*
X564689Y132387D01*
X564631Y132467D01*
X564575Y132550D01*
X564523Y132634D01*
X564473Y132721D01*
X564428Y132809D01*
X564385Y132899D01*
X564346Y132991D01*
X564311Y133084D01*
X564279Y133178D01*
X564251Y133273D01*
X564226Y133369D01*
X564205Y133467D01*
X564188Y133565D01*
X564175Y133663D01*
X564166Y133762D01*
X564160Y133862D01*
X564158Y133961D01*
X564160Y134097D01*
X564166Y134233D01*
X564175Y134369D01*
X564188Y134505D01*
X564206Y134640D01*
X564226Y134774D01*
X564251Y134908D01*
X564279Y135042D01*
X564312Y135174D01*
X564347Y135305D01*
X564387Y135436D01*
X564430Y135565D01*
X564476Y135693D01*
X564527Y135819D01*
X564580Y135945D01*
X564638Y136068D01*
X564698Y136190D01*
X564762Y136310D01*
X564830Y136429D01*
X564900Y136545D01*
X564974Y136659D01*
X565051Y136772D01*
X565132Y136882D01*
X569026Y132663D02*
X568973Y132577D01*
X568916Y132493D01*
X568857Y132411D01*
X568794Y132331D01*
X568728Y132254D01*
X568660Y132179D01*
X568588Y132107D01*
X568514Y132038D01*
X568437Y131972D01*
X568358Y131909D01*
X568276Y131849D01*
X568192Y131792D01*
X568106Y131738D01*
X568018Y131688D01*
X567928Y131641D01*
X567837Y131597D01*
X567743Y131558D01*
X567649Y131521D01*
X567553Y131489D01*
X567455Y131460D01*
X567357Y131435D01*
X567258Y131414D01*
X567158Y131396D01*
X567058Y131383D01*
X566957Y131373D01*
X566855Y131367D01*
X566754Y131365D01*
X570974Y136233D02*
X571027Y136319D01*
X571084Y136403D01*
X571143Y136485D01*
X571206Y136565D01*
X571272Y136642D01*
X571340Y136717D01*
X571412Y136789D01*
X571486Y136858D01*
X571563Y136924D01*
X571642Y136987D01*
X571724Y137047D01*
X571808Y137104D01*
X571894Y137158D01*
X571982Y137208D01*
X572072Y137255D01*
X572163Y137299D01*
X572257Y137338D01*
X572351Y137375D01*
X572447Y137407D01*
X572545Y137436D01*
X572643Y137461D01*
X572742Y137482D01*
X572842Y137500D01*
X572942Y137513D01*
X573043Y137523D01*
X573145Y137529D01*
X573246Y137531D01*
X570974Y136233D02*
X569026Y132663D01*
X569351Y142639D02*
X569351Y145885D01*
X569350Y145885D02*
X569352Y145998D01*
X569358Y146111D01*
X569368Y146224D01*
X569382Y146337D01*
X569399Y146449D01*
X569421Y146560D01*
X569446Y146670D01*
X569476Y146780D01*
X569509Y146888D01*
X569546Y146995D01*
X569586Y147101D01*
X569631Y147205D01*
X569679Y147308D01*
X569730Y147409D01*
X569785Y147508D01*
X569843Y147605D01*
X569905Y147700D01*
X569970Y147793D01*
X570038Y147883D01*
X570109Y147971D01*
X570184Y148057D01*
X570261Y148140D01*
X570341Y148220D01*
X570424Y148297D01*
X570510Y148372D01*
X570598Y148443D01*
X570688Y148511D01*
X570781Y148576D01*
X570876Y148638D01*
X570973Y148696D01*
X571072Y148751D01*
X571173Y148802D01*
X571276Y148850D01*
X571380Y148895D01*
X571486Y148935D01*
X571593Y148972D01*
X571701Y149005D01*
X571811Y149035D01*
X571921Y149060D01*
X572032Y149082D01*
X572144Y149099D01*
X572257Y149113D01*
X572370Y149123D01*
X572483Y149129D01*
X572596Y149131D01*
X572709Y149129D01*
X572822Y149123D01*
X572935Y149113D01*
X573048Y149099D01*
X573160Y149082D01*
X573271Y149060D01*
X573381Y149035D01*
X573491Y149005D01*
X573599Y148972D01*
X573706Y148935D01*
X573812Y148895D01*
X573916Y148850D01*
X574019Y148802D01*
X574120Y148751D01*
X574219Y148696D01*
X574316Y148638D01*
X574411Y148576D01*
X574504Y148511D01*
X574594Y148443D01*
X574682Y148372D01*
X574768Y148297D01*
X574851Y148220D01*
X574931Y148140D01*
X575008Y148057D01*
X575083Y147971D01*
X575154Y147883D01*
X575222Y147793D01*
X575287Y147700D01*
X575349Y147605D01*
X575407Y147508D01*
X575462Y147409D01*
X575513Y147308D01*
X575561Y147205D01*
X575606Y147101D01*
X575646Y146995D01*
X575683Y146888D01*
X575716Y146780D01*
X575746Y146670D01*
X575771Y146560D01*
X575793Y146449D01*
X575810Y146337D01*
X575824Y146224D01*
X575834Y146111D01*
X575840Y145998D01*
X575842Y145885D01*
X575842Y142639D01*
X564158Y142639D01*
X564158Y145885D01*
X564160Y145986D01*
X564166Y146086D01*
X564176Y146186D01*
X564189Y146286D01*
X564207Y146385D01*
X564228Y146484D01*
X564253Y146581D01*
X564282Y146678D01*
X564315Y146773D01*
X564351Y146867D01*
X564391Y146959D01*
X564434Y147050D01*
X564481Y147139D01*
X564531Y147226D01*
X564585Y147312D01*
X564642Y147395D01*
X564702Y147475D01*
X564765Y147554D01*
X564832Y147630D01*
X564901Y147703D01*
X564973Y147773D01*
X565047Y147841D01*
X565124Y147906D01*
X565204Y147967D01*
X565286Y148026D01*
X565370Y148081D01*
X565456Y148133D01*
X565544Y148182D01*
X565634Y148227D01*
X565726Y148269D01*
X565819Y148307D01*
X565914Y148341D01*
X566009Y148372D01*
X566106Y148399D01*
X566204Y148422D01*
X566303Y148442D01*
X566403Y148457D01*
X566503Y148469D01*
X566603Y148477D01*
X566704Y148481D01*
X566804Y148481D01*
X566905Y148477D01*
X567005Y148469D01*
X567105Y148457D01*
X567205Y148442D01*
X567304Y148422D01*
X567402Y148399D01*
X567499Y148372D01*
X567594Y148341D01*
X567689Y148307D01*
X567782Y148269D01*
X567874Y148227D01*
X567964Y148182D01*
X568052Y148133D01*
X568138Y148081D01*
X568222Y148026D01*
X568304Y147967D01*
X568384Y147906D01*
X568461Y147841D01*
X568535Y147773D01*
X568607Y147703D01*
X568676Y147630D01*
X568743Y147554D01*
X568806Y147475D01*
X568866Y147395D01*
X568923Y147312D01*
X568977Y147226D01*
X569027Y147139D01*
X569074Y147050D01*
X569117Y146959D01*
X569157Y146867D01*
X569193Y146773D01*
X569226Y146678D01*
X569255Y146581D01*
X569280Y146484D01*
X569301Y146385D01*
X569319Y146286D01*
X569332Y146186D01*
X569342Y146086D01*
X569348Y145986D01*
X569350Y145885D01*
X571298Y153632D02*
X571298Y161421D01*
X341456Y96228D02*
X333018Y96228D01*
X341456Y96228D02*
X341569Y96230D01*
X341682Y96236D01*
X341795Y96246D01*
X341908Y96260D01*
X342020Y96277D01*
X342131Y96299D01*
X342241Y96324D01*
X342351Y96354D01*
X342459Y96387D01*
X342566Y96424D01*
X342672Y96464D01*
X342776Y96509D01*
X342879Y96557D01*
X342980Y96608D01*
X343079Y96663D01*
X343176Y96721D01*
X343271Y96783D01*
X343364Y96848D01*
X343454Y96916D01*
X343542Y96987D01*
X343628Y97062D01*
X343711Y97139D01*
X343791Y97219D01*
X343868Y97302D01*
X343943Y97388D01*
X344014Y97476D01*
X344082Y97566D01*
X344147Y97659D01*
X344209Y97754D01*
X344267Y97851D01*
X344322Y97950D01*
X344373Y98051D01*
X344421Y98154D01*
X344466Y98258D01*
X344506Y98364D01*
X344543Y98471D01*
X344576Y98579D01*
X344606Y98689D01*
X344631Y98799D01*
X344653Y98910D01*
X344670Y99022D01*
X344684Y99135D01*
X344694Y99248D01*
X344700Y99361D01*
X344702Y99474D01*
X344700Y99587D01*
X344694Y99700D01*
X344684Y99813D01*
X344670Y99926D01*
X344653Y100038D01*
X344631Y100149D01*
X344606Y100259D01*
X344576Y100369D01*
X344543Y100477D01*
X344506Y100584D01*
X344466Y100690D01*
X344421Y100794D01*
X344373Y100897D01*
X344322Y100998D01*
X344267Y101097D01*
X344209Y101194D01*
X344147Y101289D01*
X344082Y101382D01*
X344014Y101472D01*
X343943Y101560D01*
X343868Y101646D01*
X343791Y101729D01*
X343711Y101809D01*
X343628Y101886D01*
X343542Y101961D01*
X343454Y102032D01*
X343364Y102100D01*
X343271Y102165D01*
X343176Y102227D01*
X343079Y102285D01*
X342980Y102340D01*
X342879Y102391D01*
X342776Y102439D01*
X342672Y102484D01*
X342566Y102524D01*
X342459Y102561D01*
X342351Y102594D01*
X342241Y102624D01*
X342131Y102649D01*
X342020Y102671D01*
X341908Y102688D01*
X341795Y102702D01*
X341682Y102712D01*
X341569Y102718D01*
X341456Y102720D01*
X341456Y102719D02*
X333018Y102719D01*
X335614Y108039D02*
X333018Y111285D01*
X344702Y111285D01*
X344702Y114530D02*
X344702Y108039D01*
D10*
X455000Y420000D02*
X600000Y420000D01*
X600000Y320000D02*
X455000Y320000D01*
X600000Y320000D02*
X600000Y420000D01*
X455000Y420000D02*
X455000Y320000D01*
D11*
X592192Y372417D02*
X592192Y375014D01*
X592192Y372417D02*
X592190Y372318D01*
X592184Y372218D01*
X592175Y372119D01*
X592162Y372021D01*
X592145Y371923D01*
X592124Y371825D01*
X592099Y371729D01*
X592071Y371634D01*
X592039Y371540D01*
X592004Y371447D01*
X591965Y371355D01*
X591922Y371265D01*
X591877Y371177D01*
X591827Y371090D01*
X591775Y371006D01*
X591719Y370923D01*
X591661Y370843D01*
X591599Y370765D01*
X591534Y370690D01*
X591466Y370617D01*
X591396Y370547D01*
X591323Y370479D01*
X591248Y370414D01*
X591170Y370352D01*
X591090Y370294D01*
X591007Y370238D01*
X590923Y370186D01*
X590836Y370136D01*
X590748Y370091D01*
X590658Y370048D01*
X590566Y370009D01*
X590473Y369974D01*
X590379Y369942D01*
X590284Y369914D01*
X590188Y369889D01*
X590090Y369868D01*
X589992Y369851D01*
X589894Y369838D01*
X589795Y369829D01*
X589695Y369823D01*
X589596Y369821D01*
X583104Y369821D01*
X583104Y369820D02*
X583005Y369822D01*
X582905Y369828D01*
X582806Y369837D01*
X582708Y369850D01*
X582610Y369868D01*
X582512Y369888D01*
X582416Y369913D01*
X582320Y369941D01*
X582226Y369973D01*
X582133Y370008D01*
X582042Y370047D01*
X581952Y370090D01*
X581863Y370135D01*
X581777Y370185D01*
X581692Y370237D01*
X581610Y370293D01*
X581530Y370352D01*
X581452Y370413D01*
X581376Y370478D01*
X581303Y370546D01*
X581233Y370616D01*
X581165Y370689D01*
X581100Y370765D01*
X581039Y370843D01*
X580980Y370923D01*
X580924Y371005D01*
X580872Y371090D01*
X580823Y371176D01*
X580777Y371265D01*
X580734Y371355D01*
X580695Y371446D01*
X580660Y371539D01*
X580628Y371633D01*
X580600Y371729D01*
X580575Y371825D01*
X580555Y371923D01*
X580537Y372021D01*
X580524Y372119D01*
X580515Y372218D01*
X580509Y372317D01*
X580507Y372417D01*
X580508Y372417D02*
X580508Y375014D01*
X583754Y379379D02*
X588946Y379379D01*
X583754Y379379D02*
X583641Y379381D01*
X583528Y379387D01*
X583415Y379397D01*
X583302Y379411D01*
X583190Y379428D01*
X583079Y379450D01*
X582969Y379475D01*
X582859Y379505D01*
X582751Y379538D01*
X582644Y379575D01*
X582538Y379615D01*
X582434Y379660D01*
X582331Y379708D01*
X582230Y379759D01*
X582131Y379814D01*
X582034Y379872D01*
X581939Y379934D01*
X581846Y379999D01*
X581756Y380067D01*
X581668Y380138D01*
X581582Y380213D01*
X581499Y380290D01*
X581419Y380370D01*
X581342Y380453D01*
X581267Y380539D01*
X581196Y380627D01*
X581128Y380717D01*
X581063Y380810D01*
X581001Y380905D01*
X580943Y381002D01*
X580888Y381101D01*
X580837Y381202D01*
X580789Y381305D01*
X580744Y381409D01*
X580704Y381515D01*
X580667Y381622D01*
X580634Y381730D01*
X580604Y381840D01*
X580579Y381950D01*
X580557Y382061D01*
X580540Y382173D01*
X580526Y382286D01*
X580516Y382399D01*
X580510Y382512D01*
X580508Y382625D01*
X580510Y382738D01*
X580516Y382851D01*
X580526Y382964D01*
X580540Y383077D01*
X580557Y383189D01*
X580579Y383300D01*
X580604Y383410D01*
X580634Y383520D01*
X580667Y383628D01*
X580704Y383735D01*
X580744Y383841D01*
X580789Y383945D01*
X580837Y384048D01*
X580888Y384149D01*
X580943Y384248D01*
X581001Y384345D01*
X581063Y384440D01*
X581128Y384533D01*
X581196Y384623D01*
X581267Y384711D01*
X581342Y384797D01*
X581419Y384880D01*
X581499Y384960D01*
X581582Y385037D01*
X581668Y385112D01*
X581756Y385183D01*
X581846Y385251D01*
X581939Y385316D01*
X582034Y385378D01*
X582131Y385436D01*
X582230Y385491D01*
X582331Y385542D01*
X582434Y385590D01*
X582538Y385635D01*
X582644Y385675D01*
X582751Y385712D01*
X582859Y385745D01*
X582969Y385775D01*
X583079Y385800D01*
X583190Y385822D01*
X583302Y385839D01*
X583415Y385853D01*
X583528Y385863D01*
X583641Y385869D01*
X583754Y385871D01*
X583754Y385870D02*
X588946Y385870D01*
X588946Y385871D02*
X589059Y385869D01*
X589172Y385863D01*
X589285Y385853D01*
X589398Y385839D01*
X589510Y385822D01*
X589621Y385800D01*
X589731Y385775D01*
X589841Y385745D01*
X589949Y385712D01*
X590056Y385675D01*
X590162Y385635D01*
X590266Y385590D01*
X590369Y385542D01*
X590470Y385491D01*
X590569Y385436D01*
X590666Y385378D01*
X590761Y385316D01*
X590854Y385251D01*
X590944Y385183D01*
X591032Y385112D01*
X591118Y385037D01*
X591201Y384960D01*
X591281Y384880D01*
X591358Y384797D01*
X591433Y384711D01*
X591504Y384623D01*
X591572Y384533D01*
X591637Y384440D01*
X591699Y384345D01*
X591757Y384248D01*
X591812Y384149D01*
X591863Y384048D01*
X591911Y383945D01*
X591956Y383841D01*
X591996Y383735D01*
X592033Y383628D01*
X592066Y383520D01*
X592096Y383410D01*
X592121Y383300D01*
X592143Y383189D01*
X592160Y383077D01*
X592174Y382964D01*
X592184Y382851D01*
X592190Y382738D01*
X592192Y382625D01*
X592190Y382512D01*
X592184Y382399D01*
X592174Y382286D01*
X592160Y382173D01*
X592143Y382061D01*
X592121Y381950D01*
X592096Y381840D01*
X592066Y381730D01*
X592033Y381622D01*
X591996Y381515D01*
X591956Y381409D01*
X591911Y381305D01*
X591863Y381202D01*
X591812Y381101D01*
X591757Y381002D01*
X591699Y380905D01*
X591637Y380810D01*
X591572Y380717D01*
X591504Y380627D01*
X591433Y380539D01*
X591358Y380453D01*
X591281Y380370D01*
X591201Y380290D01*
X591118Y380213D01*
X591032Y380138D01*
X590944Y380067D01*
X590854Y379999D01*
X590761Y379934D01*
X590666Y379872D01*
X590569Y379814D01*
X590470Y379759D01*
X590369Y379708D01*
X590266Y379660D01*
X590162Y379615D01*
X590056Y379575D01*
X589949Y379538D01*
X589841Y379505D01*
X589731Y379475D01*
X589621Y379450D01*
X589510Y379428D01*
X589398Y379411D01*
X589285Y379397D01*
X589172Y379387D01*
X589059Y379381D01*
X588946Y379379D01*
X592192Y391190D02*
X580508Y391190D01*
X592192Y397681D01*
X580508Y397681D01*
X583104Y403001D02*
X580508Y406246D01*
X592192Y406246D01*
X592192Y403001D02*
X592192Y409492D01*
D12*
X569050Y287300D02*
X556350Y287300D01*
X550000Y293650D01*
X550000Y306350D01*
X556350Y312700D01*
X575400Y306350D02*
X575400Y293650D01*
X569050Y287300D01*
X575400Y306350D02*
X569050Y312700D01*
X556350Y312700D01*
X550000Y293650D02*
X543650Y287300D01*
X530950Y287300D01*
X524600Y293650D01*
X524600Y306350D01*
X530950Y312700D01*
X543650Y312700D01*
X550000Y306350D01*
D10*
X552338Y281077D02*
X552338Y272187D01*
X552336Y272087D01*
X552330Y271988D01*
X552320Y271888D01*
X552307Y271790D01*
X552289Y271691D01*
X552268Y271594D01*
X552243Y271498D01*
X552214Y271402D01*
X552181Y271308D01*
X552145Y271215D01*
X552105Y271124D01*
X552061Y271034D01*
X552014Y270946D01*
X551964Y270860D01*
X551910Y270776D01*
X551853Y270694D01*
X551793Y270615D01*
X551729Y270537D01*
X551663Y270463D01*
X551594Y270391D01*
X551522Y270322D01*
X551448Y270256D01*
X551370Y270192D01*
X551291Y270132D01*
X551209Y270075D01*
X551125Y270021D01*
X551039Y269971D01*
X550951Y269924D01*
X550861Y269880D01*
X550770Y269840D01*
X550677Y269804D01*
X550583Y269771D01*
X550487Y269742D01*
X550391Y269717D01*
X550294Y269696D01*
X550195Y269678D01*
X550097Y269665D01*
X549997Y269655D01*
X549898Y269649D01*
X549798Y269647D01*
X548528Y269647D01*
X558319Y269647D02*
X558319Y281077D01*
X561494Y281077D01*
X561605Y281075D01*
X561715Y281069D01*
X561826Y281060D01*
X561936Y281046D01*
X562045Y281029D01*
X562154Y281008D01*
X562262Y280983D01*
X562369Y280954D01*
X562475Y280922D01*
X562580Y280886D01*
X562683Y280846D01*
X562785Y280803D01*
X562886Y280756D01*
X562985Y280705D01*
X563082Y280652D01*
X563176Y280595D01*
X563269Y280534D01*
X563360Y280471D01*
X563449Y280404D01*
X563535Y280334D01*
X563618Y280261D01*
X563700Y280186D01*
X563778Y280108D01*
X563853Y280026D01*
X563926Y279943D01*
X563996Y279857D01*
X564063Y279768D01*
X564126Y279677D01*
X564187Y279584D01*
X564244Y279489D01*
X564297Y279393D01*
X564348Y279294D01*
X564395Y279193D01*
X564438Y279091D01*
X564478Y278988D01*
X564514Y278883D01*
X564546Y278777D01*
X564575Y278670D01*
X564600Y278562D01*
X564621Y278453D01*
X564638Y278344D01*
X564652Y278234D01*
X564661Y278123D01*
X564667Y278013D01*
X564669Y277902D01*
X564667Y277791D01*
X564661Y277681D01*
X564652Y277570D01*
X564638Y277460D01*
X564621Y277351D01*
X564600Y277242D01*
X564575Y277134D01*
X564546Y277027D01*
X564514Y276921D01*
X564478Y276816D01*
X564438Y276713D01*
X564395Y276611D01*
X564348Y276510D01*
X564297Y276411D01*
X564244Y276314D01*
X564187Y276220D01*
X564126Y276127D01*
X564063Y276036D01*
X563996Y275947D01*
X563926Y275861D01*
X563853Y275778D01*
X563778Y275696D01*
X563700Y275618D01*
X563618Y275543D01*
X563535Y275470D01*
X563449Y275400D01*
X563360Y275333D01*
X563269Y275270D01*
X563176Y275209D01*
X563082Y275152D01*
X562985Y275099D01*
X562886Y275048D01*
X562785Y275001D01*
X562683Y274958D01*
X562580Y274918D01*
X562475Y274882D01*
X562369Y274850D01*
X562262Y274821D01*
X562154Y274796D01*
X562045Y274775D01*
X561936Y274758D01*
X561826Y274744D01*
X561715Y274735D01*
X561605Y274729D01*
X561494Y274727D01*
X558319Y274727D01*
X569177Y278537D02*
X572352Y281077D01*
X572352Y269647D01*
X569177Y269647D02*
X575527Y269647D01*
D12*
X356350Y352700D02*
X350000Y346350D01*
X356350Y352700D02*
X369050Y352700D01*
X375400Y346350D01*
X375400Y333650D01*
X369050Y327300D01*
X356350Y327300D01*
X350000Y333650D01*
X318250Y352700D02*
X305550Y352700D01*
X318250Y352700D02*
X324600Y346350D01*
X324600Y333650D01*
X318250Y327300D01*
X324600Y346350D02*
X330950Y352700D01*
X343650Y352700D01*
X350000Y346350D01*
X350000Y333650D01*
X343650Y327300D01*
X330950Y327300D01*
X324600Y333650D01*
X299200Y333650D02*
X299200Y346350D01*
X305550Y352700D01*
X299200Y333650D02*
X305550Y327300D01*
X318250Y327300D01*
X381750Y352700D02*
X394450Y352700D01*
X400800Y346350D01*
X400800Y333650D01*
X394450Y327300D01*
X375400Y346350D02*
X381750Y352700D01*
X375400Y333650D02*
X381750Y327300D01*
X394450Y327300D01*
D10*
X302883Y361463D02*
X302883Y370353D01*
X302883Y361463D02*
X302881Y361363D01*
X302875Y361264D01*
X302865Y361164D01*
X302852Y361066D01*
X302834Y360967D01*
X302813Y360870D01*
X302788Y360774D01*
X302759Y360678D01*
X302726Y360584D01*
X302690Y360491D01*
X302650Y360400D01*
X302606Y360310D01*
X302559Y360222D01*
X302509Y360136D01*
X302455Y360052D01*
X302398Y359970D01*
X302338Y359891D01*
X302274Y359813D01*
X302208Y359739D01*
X302139Y359667D01*
X302067Y359598D01*
X301993Y359532D01*
X301915Y359468D01*
X301836Y359408D01*
X301754Y359351D01*
X301670Y359297D01*
X301584Y359247D01*
X301496Y359200D01*
X301406Y359156D01*
X301315Y359116D01*
X301222Y359080D01*
X301128Y359047D01*
X301032Y359018D01*
X300936Y358993D01*
X300839Y358972D01*
X300740Y358954D01*
X300642Y358941D01*
X300542Y358931D01*
X300443Y358925D01*
X300343Y358923D01*
X299073Y358923D01*
X308863Y358923D02*
X308863Y370353D01*
X312038Y370353D01*
X312149Y370351D01*
X312259Y370345D01*
X312370Y370336D01*
X312480Y370322D01*
X312589Y370305D01*
X312698Y370284D01*
X312806Y370259D01*
X312913Y370230D01*
X313019Y370198D01*
X313124Y370162D01*
X313227Y370122D01*
X313329Y370079D01*
X313430Y370032D01*
X313529Y369981D01*
X313626Y369928D01*
X313720Y369871D01*
X313813Y369810D01*
X313904Y369747D01*
X313993Y369680D01*
X314079Y369610D01*
X314162Y369537D01*
X314244Y369462D01*
X314322Y369384D01*
X314397Y369302D01*
X314470Y369219D01*
X314540Y369133D01*
X314607Y369044D01*
X314670Y368953D01*
X314731Y368860D01*
X314788Y368765D01*
X314841Y368669D01*
X314892Y368570D01*
X314939Y368469D01*
X314982Y368367D01*
X315022Y368264D01*
X315058Y368159D01*
X315090Y368053D01*
X315119Y367946D01*
X315144Y367838D01*
X315165Y367729D01*
X315182Y367620D01*
X315196Y367510D01*
X315205Y367399D01*
X315211Y367289D01*
X315213Y367178D01*
X315211Y367067D01*
X315205Y366957D01*
X315196Y366846D01*
X315182Y366736D01*
X315165Y366627D01*
X315144Y366518D01*
X315119Y366410D01*
X315090Y366303D01*
X315058Y366197D01*
X315022Y366092D01*
X314982Y365989D01*
X314939Y365887D01*
X314892Y365786D01*
X314841Y365687D01*
X314788Y365590D01*
X314731Y365496D01*
X314670Y365403D01*
X314607Y365312D01*
X314540Y365223D01*
X314470Y365137D01*
X314397Y365054D01*
X314322Y364972D01*
X314244Y364894D01*
X314162Y364819D01*
X314079Y364746D01*
X313993Y364676D01*
X313904Y364609D01*
X313813Y364546D01*
X313720Y364485D01*
X313626Y364428D01*
X313529Y364375D01*
X313430Y364324D01*
X313329Y364277D01*
X313227Y364234D01*
X313124Y364194D01*
X313019Y364158D01*
X312913Y364126D01*
X312806Y364097D01*
X312698Y364072D01*
X312589Y364051D01*
X312480Y364034D01*
X312370Y364020D01*
X312259Y364011D01*
X312149Y364005D01*
X312038Y364003D01*
X308863Y364003D01*
X323214Y370354D02*
X323318Y370352D01*
X323423Y370346D01*
X323527Y370337D01*
X323630Y370324D01*
X323733Y370306D01*
X323835Y370286D01*
X323937Y370261D01*
X324037Y370233D01*
X324137Y370201D01*
X324235Y370165D01*
X324332Y370126D01*
X324427Y370084D01*
X324521Y370038D01*
X324613Y369988D01*
X324703Y369936D01*
X324791Y369880D01*
X324877Y369820D01*
X324961Y369758D01*
X325042Y369693D01*
X325121Y369625D01*
X325198Y369553D01*
X325271Y369480D01*
X325343Y369403D01*
X325411Y369324D01*
X325476Y369243D01*
X325538Y369159D01*
X325598Y369073D01*
X325654Y368985D01*
X325706Y368895D01*
X325756Y368803D01*
X325802Y368709D01*
X325844Y368614D01*
X325883Y368517D01*
X325919Y368419D01*
X325951Y368319D01*
X325979Y368219D01*
X326004Y368117D01*
X326024Y368015D01*
X326042Y367912D01*
X326055Y367809D01*
X326064Y367705D01*
X326070Y367600D01*
X326072Y367496D01*
X323214Y370353D02*
X323096Y370351D01*
X322977Y370345D01*
X322859Y370336D01*
X322742Y370323D01*
X322625Y370305D01*
X322508Y370285D01*
X322392Y370260D01*
X322277Y370232D01*
X322164Y370199D01*
X322051Y370164D01*
X321939Y370124D01*
X321829Y370082D01*
X321720Y370035D01*
X321612Y369985D01*
X321507Y369932D01*
X321403Y369875D01*
X321301Y369815D01*
X321201Y369752D01*
X321103Y369685D01*
X321007Y369616D01*
X320914Y369543D01*
X320823Y369467D01*
X320734Y369389D01*
X320648Y369307D01*
X320565Y369223D01*
X320484Y369137D01*
X320407Y369047D01*
X320332Y368956D01*
X320260Y368862D01*
X320191Y368765D01*
X320126Y368667D01*
X320063Y368566D01*
X320004Y368463D01*
X319948Y368359D01*
X319896Y368253D01*
X319847Y368145D01*
X319802Y368036D01*
X319760Y367925D01*
X319722Y367813D01*
X325120Y365274D02*
X325196Y365349D01*
X325271Y365428D01*
X325342Y365509D01*
X325411Y365593D01*
X325476Y365679D01*
X325538Y365767D01*
X325598Y365857D01*
X325654Y365949D01*
X325707Y366044D01*
X325756Y366140D01*
X325802Y366238D01*
X325845Y366337D01*
X325884Y366438D01*
X325919Y366540D01*
X325951Y366643D01*
X325979Y366747D01*
X326004Y366852D01*
X326025Y366959D01*
X326042Y367065D01*
X326055Y367172D01*
X326064Y367280D01*
X326070Y367388D01*
X326072Y367496D01*
X325119Y365273D02*
X319722Y358923D01*
X326072Y358923D01*
D12*
X356350Y302700D02*
X350000Y296350D01*
X356350Y302700D02*
X369050Y302700D01*
X375400Y296350D01*
X375400Y283650D01*
X369050Y277300D01*
X356350Y277300D01*
X350000Y283650D01*
X318250Y302700D02*
X305550Y302700D01*
X318250Y302700D02*
X324600Y296350D01*
X324600Y283650D01*
X318250Y277300D01*
X324600Y296350D02*
X330950Y302700D01*
X343650Y302700D01*
X350000Y296350D01*
X350000Y283650D01*
X343650Y277300D01*
X330950Y277300D01*
X324600Y283650D01*
X299200Y283650D02*
X299200Y296350D01*
X305550Y302700D01*
X299200Y283650D02*
X305550Y277300D01*
X318250Y277300D01*
X381750Y302700D02*
X394450Y302700D01*
X400800Y296350D01*
X400800Y283650D01*
X394450Y277300D01*
X375400Y296350D02*
X381750Y302700D01*
X375400Y283650D02*
X381750Y277300D01*
X394450Y277300D01*
D10*
X302883Y311463D02*
X302883Y320353D01*
X302883Y311463D02*
X302881Y311363D01*
X302875Y311264D01*
X302865Y311164D01*
X302852Y311066D01*
X302834Y310967D01*
X302813Y310870D01*
X302788Y310774D01*
X302759Y310678D01*
X302726Y310584D01*
X302690Y310491D01*
X302650Y310400D01*
X302606Y310310D01*
X302559Y310222D01*
X302509Y310136D01*
X302455Y310052D01*
X302398Y309970D01*
X302338Y309891D01*
X302274Y309813D01*
X302208Y309739D01*
X302139Y309667D01*
X302067Y309598D01*
X301993Y309532D01*
X301915Y309468D01*
X301836Y309408D01*
X301754Y309351D01*
X301670Y309297D01*
X301584Y309247D01*
X301496Y309200D01*
X301406Y309156D01*
X301315Y309116D01*
X301222Y309080D01*
X301128Y309047D01*
X301032Y309018D01*
X300936Y308993D01*
X300839Y308972D01*
X300740Y308954D01*
X300642Y308941D01*
X300542Y308931D01*
X300443Y308925D01*
X300343Y308923D01*
X299073Y308923D01*
X308863Y308923D02*
X308863Y320353D01*
X312038Y320353D01*
X312149Y320351D01*
X312259Y320345D01*
X312370Y320336D01*
X312480Y320322D01*
X312589Y320305D01*
X312698Y320284D01*
X312806Y320259D01*
X312913Y320230D01*
X313019Y320198D01*
X313124Y320162D01*
X313227Y320122D01*
X313329Y320079D01*
X313430Y320032D01*
X313529Y319981D01*
X313626Y319928D01*
X313720Y319871D01*
X313813Y319810D01*
X313904Y319747D01*
X313993Y319680D01*
X314079Y319610D01*
X314162Y319537D01*
X314244Y319462D01*
X314322Y319384D01*
X314397Y319302D01*
X314470Y319219D01*
X314540Y319133D01*
X314607Y319044D01*
X314670Y318953D01*
X314731Y318860D01*
X314788Y318765D01*
X314841Y318669D01*
X314892Y318570D01*
X314939Y318469D01*
X314982Y318367D01*
X315022Y318264D01*
X315058Y318159D01*
X315090Y318053D01*
X315119Y317946D01*
X315144Y317838D01*
X315165Y317729D01*
X315182Y317620D01*
X315196Y317510D01*
X315205Y317399D01*
X315211Y317289D01*
X315213Y317178D01*
X315211Y317067D01*
X315205Y316957D01*
X315196Y316846D01*
X315182Y316736D01*
X315165Y316627D01*
X315144Y316518D01*
X315119Y316410D01*
X315090Y316303D01*
X315058Y316197D01*
X315022Y316092D01*
X314982Y315989D01*
X314939Y315887D01*
X314892Y315786D01*
X314841Y315687D01*
X314788Y315590D01*
X314731Y315496D01*
X314670Y315403D01*
X314607Y315312D01*
X314540Y315223D01*
X314470Y315137D01*
X314397Y315054D01*
X314322Y314972D01*
X314244Y314894D01*
X314162Y314819D01*
X314079Y314746D01*
X313993Y314676D01*
X313904Y314609D01*
X313813Y314546D01*
X313720Y314485D01*
X313626Y314428D01*
X313529Y314375D01*
X313430Y314324D01*
X313329Y314277D01*
X313227Y314234D01*
X313124Y314194D01*
X313019Y314158D01*
X312913Y314126D01*
X312806Y314097D01*
X312698Y314072D01*
X312589Y314051D01*
X312480Y314034D01*
X312370Y314020D01*
X312259Y314011D01*
X312149Y314005D01*
X312038Y314003D01*
X308863Y314003D01*
X319722Y308923D02*
X322897Y308923D01*
X323008Y308925D01*
X323118Y308931D01*
X323229Y308940D01*
X323339Y308954D01*
X323448Y308971D01*
X323557Y308992D01*
X323665Y309017D01*
X323772Y309046D01*
X323878Y309078D01*
X323983Y309114D01*
X324086Y309154D01*
X324188Y309197D01*
X324289Y309244D01*
X324388Y309295D01*
X324485Y309348D01*
X324579Y309405D01*
X324672Y309466D01*
X324763Y309529D01*
X324852Y309596D01*
X324938Y309666D01*
X325021Y309739D01*
X325103Y309814D01*
X325181Y309892D01*
X325256Y309974D01*
X325329Y310057D01*
X325399Y310143D01*
X325466Y310232D01*
X325529Y310323D01*
X325590Y310416D01*
X325647Y310510D01*
X325700Y310607D01*
X325751Y310706D01*
X325798Y310807D01*
X325841Y310909D01*
X325881Y311012D01*
X325917Y311117D01*
X325949Y311223D01*
X325978Y311330D01*
X326003Y311438D01*
X326024Y311547D01*
X326041Y311656D01*
X326055Y311766D01*
X326064Y311877D01*
X326070Y311987D01*
X326072Y312098D01*
X326070Y312209D01*
X326064Y312319D01*
X326055Y312430D01*
X326041Y312540D01*
X326024Y312649D01*
X326003Y312758D01*
X325978Y312866D01*
X325949Y312973D01*
X325917Y313079D01*
X325881Y313184D01*
X325841Y313287D01*
X325798Y313389D01*
X325751Y313490D01*
X325700Y313589D01*
X325647Y313685D01*
X325590Y313780D01*
X325529Y313873D01*
X325466Y313964D01*
X325399Y314053D01*
X325329Y314139D01*
X325256Y314222D01*
X325181Y314304D01*
X325103Y314382D01*
X325021Y314457D01*
X324938Y314530D01*
X324852Y314600D01*
X324763Y314667D01*
X324672Y314730D01*
X324579Y314791D01*
X324485Y314848D01*
X324388Y314901D01*
X324289Y314952D01*
X324188Y314999D01*
X324086Y315042D01*
X323983Y315082D01*
X323878Y315118D01*
X323772Y315150D01*
X323665Y315179D01*
X323557Y315204D01*
X323448Y315225D01*
X323339Y315242D01*
X323229Y315256D01*
X323118Y315265D01*
X323008Y315271D01*
X322897Y315273D01*
X323532Y320353D02*
X319722Y320353D01*
X323532Y320353D02*
X323632Y320351D01*
X323731Y320345D01*
X323831Y320335D01*
X323929Y320322D01*
X324028Y320304D01*
X324125Y320283D01*
X324221Y320258D01*
X324317Y320229D01*
X324411Y320196D01*
X324504Y320160D01*
X324595Y320120D01*
X324685Y320076D01*
X324773Y320029D01*
X324859Y319979D01*
X324943Y319925D01*
X325025Y319868D01*
X325104Y319808D01*
X325182Y319744D01*
X325256Y319678D01*
X325328Y319609D01*
X325397Y319537D01*
X325463Y319463D01*
X325527Y319385D01*
X325587Y319306D01*
X325644Y319224D01*
X325698Y319140D01*
X325748Y319054D01*
X325795Y318966D01*
X325839Y318876D01*
X325879Y318785D01*
X325915Y318692D01*
X325948Y318598D01*
X325977Y318502D01*
X326002Y318406D01*
X326023Y318309D01*
X326041Y318210D01*
X326054Y318112D01*
X326064Y318012D01*
X326070Y317913D01*
X326072Y317813D01*
X326070Y317713D01*
X326064Y317614D01*
X326054Y317514D01*
X326041Y317416D01*
X326023Y317317D01*
X326002Y317220D01*
X325977Y317124D01*
X325948Y317028D01*
X325915Y316934D01*
X325879Y316841D01*
X325839Y316750D01*
X325795Y316660D01*
X325748Y316572D01*
X325698Y316486D01*
X325644Y316402D01*
X325587Y316320D01*
X325527Y316241D01*
X325463Y316163D01*
X325397Y316089D01*
X325328Y316017D01*
X325256Y315948D01*
X325182Y315882D01*
X325104Y315818D01*
X325025Y315758D01*
X324943Y315701D01*
X324859Y315647D01*
X324773Y315597D01*
X324685Y315550D01*
X324595Y315506D01*
X324504Y315466D01*
X324411Y315430D01*
X324317Y315397D01*
X324221Y315368D01*
X324125Y315343D01*
X324028Y315322D01*
X323929Y315304D01*
X323831Y315291D01*
X323731Y315281D01*
X323632Y315275D01*
X323532Y315273D01*
X320992Y315273D01*
D12*
X272451Y294490D02*
X263470Y285510D01*
X254490Y285510D01*
X245510Y294490D01*
X245510Y303470D01*
X263470Y312451D02*
X272451Y303470D01*
X272451Y294490D01*
X263470Y312451D02*
X254490Y312451D01*
X245510Y303470D01*
X254490Y285510D02*
X254490Y276530D01*
X245510Y267549D01*
X236530Y267549D01*
X227549Y276530D01*
X227549Y285510D01*
X236530Y294490D01*
X245510Y294490D01*
D10*
X265034Y278273D02*
X271320Y271987D01*
X271389Y271915D01*
X271455Y271841D01*
X271519Y271763D01*
X271579Y271684D01*
X271636Y271602D01*
X271690Y271518D01*
X271740Y271432D01*
X271787Y271344D01*
X271831Y271254D01*
X271871Y271163D01*
X271907Y271070D01*
X271940Y270976D01*
X271969Y270880D01*
X271994Y270784D01*
X272015Y270687D01*
X272033Y270588D01*
X272046Y270490D01*
X272056Y270390D01*
X272062Y270291D01*
X272064Y270191D01*
X272062Y270091D01*
X272056Y269992D01*
X272046Y269892D01*
X272033Y269794D01*
X272015Y269695D01*
X271994Y269598D01*
X271969Y269502D01*
X271940Y269406D01*
X271907Y269312D01*
X271871Y269219D01*
X271831Y269128D01*
X271787Y269038D01*
X271740Y268950D01*
X271690Y268864D01*
X271636Y268780D01*
X271579Y268698D01*
X271519Y268619D01*
X271455Y268541D01*
X271389Y268467D01*
X271320Y268395D01*
X270422Y267497D01*
X277345Y274419D02*
X269263Y282501D01*
X271508Y284746D01*
X271589Y284824D01*
X271672Y284899D01*
X271758Y284971D01*
X271846Y285040D01*
X271937Y285105D01*
X272030Y285168D01*
X272125Y285227D01*
X272222Y285283D01*
X272322Y285335D01*
X272422Y285384D01*
X272525Y285429D01*
X272629Y285470D01*
X272735Y285508D01*
X272841Y285542D01*
X272949Y285573D01*
X273058Y285599D01*
X273168Y285622D01*
X273278Y285640D01*
X273390Y285655D01*
X273501Y285666D01*
X273613Y285673D01*
X273725Y285676D01*
X273837Y285675D01*
X273949Y285670D01*
X274061Y285661D01*
X274172Y285648D01*
X274283Y285631D01*
X274393Y285611D01*
X274502Y285586D01*
X274611Y285558D01*
X274718Y285526D01*
X274824Y285490D01*
X274929Y285450D01*
X275032Y285407D01*
X275134Y285360D01*
X275234Y285309D01*
X275332Y285255D01*
X275429Y285198D01*
X275523Y285137D01*
X275615Y285073D01*
X275704Y285006D01*
X275791Y284935D01*
X275876Y284862D01*
X275958Y284785D01*
X276037Y284706D01*
X276114Y284624D01*
X276187Y284539D01*
X276258Y284452D01*
X276325Y284363D01*
X276389Y284271D01*
X276450Y284177D01*
X276507Y284080D01*
X276561Y283982D01*
X276612Y283882D01*
X276659Y283780D01*
X276702Y283677D01*
X276742Y283572D01*
X276778Y283466D01*
X276810Y283359D01*
X276838Y283250D01*
X276863Y283141D01*
X276883Y283031D01*
X276900Y282920D01*
X276913Y282809D01*
X276922Y282697D01*
X276927Y282585D01*
X276928Y282473D01*
X276925Y282361D01*
X276918Y282249D01*
X276907Y282138D01*
X276892Y282026D01*
X276874Y281916D01*
X276851Y281806D01*
X276825Y281697D01*
X276794Y281589D01*
X276760Y281483D01*
X276722Y281377D01*
X276681Y281273D01*
X276636Y281170D01*
X276587Y281070D01*
X276535Y280970D01*
X276479Y280873D01*
X276420Y280778D01*
X276357Y280685D01*
X276292Y280594D01*
X276223Y280506D01*
X276151Y280420D01*
X276076Y280337D01*
X275998Y280256D01*
X273753Y278011D01*
X283227Y283893D02*
X278737Y291976D01*
X283227Y283893D02*
X287717Y288383D01*
X284574Y288832D02*
X288166Y285240D01*
D11*
X565500Y173500D02*
X565500Y156500D01*
X554500Y156500D02*
X554500Y173500D01*
D13*
X560000Y168500D03*
D11*
X568008Y162690D02*
X579692Y162690D01*
X568008Y162690D02*
X568008Y165935D01*
X568010Y166048D01*
X568016Y166161D01*
X568026Y166274D01*
X568040Y166387D01*
X568057Y166499D01*
X568079Y166610D01*
X568104Y166720D01*
X568134Y166830D01*
X568167Y166938D01*
X568204Y167045D01*
X568244Y167151D01*
X568289Y167255D01*
X568337Y167358D01*
X568388Y167459D01*
X568443Y167558D01*
X568501Y167655D01*
X568563Y167750D01*
X568628Y167843D01*
X568696Y167933D01*
X568767Y168021D01*
X568842Y168107D01*
X568919Y168190D01*
X568999Y168270D01*
X569082Y168347D01*
X569168Y168422D01*
X569256Y168493D01*
X569346Y168561D01*
X569439Y168626D01*
X569534Y168688D01*
X569631Y168746D01*
X569730Y168801D01*
X569831Y168852D01*
X569934Y168900D01*
X570038Y168945D01*
X570144Y168985D01*
X570251Y169022D01*
X570359Y169055D01*
X570469Y169085D01*
X570579Y169110D01*
X570690Y169132D01*
X570802Y169149D01*
X570915Y169163D01*
X571028Y169173D01*
X571141Y169179D01*
X571254Y169181D01*
X576446Y169181D01*
X576446Y169182D02*
X576559Y169180D01*
X576672Y169174D01*
X576785Y169164D01*
X576898Y169150D01*
X577010Y169133D01*
X577121Y169111D01*
X577231Y169086D01*
X577341Y169056D01*
X577449Y169023D01*
X577556Y168986D01*
X577662Y168946D01*
X577766Y168901D01*
X577869Y168853D01*
X577970Y168802D01*
X578069Y168747D01*
X578166Y168689D01*
X578261Y168627D01*
X578354Y168562D01*
X578444Y168494D01*
X578532Y168423D01*
X578618Y168348D01*
X578701Y168271D01*
X578781Y168191D01*
X578858Y168108D01*
X578933Y168022D01*
X579004Y167934D01*
X579072Y167844D01*
X579137Y167751D01*
X579199Y167656D01*
X579257Y167559D01*
X579312Y167460D01*
X579363Y167359D01*
X579411Y167256D01*
X579456Y167152D01*
X579496Y167046D01*
X579533Y166939D01*
X579566Y166831D01*
X579596Y166721D01*
X579621Y166611D01*
X579643Y166500D01*
X579660Y166388D01*
X579674Y166275D01*
X579684Y166162D01*
X579690Y166049D01*
X579692Y165936D01*
X579692Y165935D02*
X579692Y162690D01*
X570604Y174501D02*
X568008Y177746D01*
X579692Y177746D01*
X579692Y174501D02*
X579692Y180992D01*
D14*
X471127Y256127D02*
X471127Y259937D01*
X471127Y256127D02*
X472820Y256127D01*
X474297Y256127D02*
X475990Y256127D01*
X474297Y256127D02*
X474297Y259937D01*
X475990Y259937D01*
X475567Y258244D02*
X474297Y258244D01*
X477460Y259937D02*
X477460Y256127D01*
X477460Y259937D02*
X478519Y259937D01*
X478583Y259935D01*
X478647Y259929D01*
X478710Y259920D01*
X478772Y259906D01*
X478834Y259889D01*
X478894Y259868D01*
X478953Y259844D01*
X479011Y259816D01*
X479066Y259784D01*
X479120Y259750D01*
X479171Y259712D01*
X479221Y259671D01*
X479267Y259627D01*
X479311Y259581D01*
X479352Y259531D01*
X479390Y259480D01*
X479424Y259426D01*
X479456Y259371D01*
X479484Y259313D01*
X479508Y259254D01*
X479529Y259194D01*
X479546Y259132D01*
X479560Y259070D01*
X479569Y259007D01*
X479575Y258943D01*
X479577Y258879D01*
X479577Y257185D01*
X479575Y257121D01*
X479569Y257057D01*
X479560Y256994D01*
X479546Y256932D01*
X479529Y256870D01*
X479508Y256810D01*
X479484Y256751D01*
X479456Y256693D01*
X479424Y256638D01*
X479390Y256584D01*
X479352Y256533D01*
X479311Y256483D01*
X479267Y256437D01*
X479221Y256393D01*
X479171Y256352D01*
X479120Y256314D01*
X479066Y256280D01*
X479011Y256248D01*
X478953Y256220D01*
X478894Y256196D01*
X478834Y256175D01*
X478772Y256158D01*
X478710Y256144D01*
X478647Y256135D01*
X478583Y256129D01*
X478519Y256127D01*
X477460Y256127D01*
X481240Y259090D02*
X482298Y259937D01*
X482298Y256127D01*
X481240Y256127D02*
X483356Y256127D01*
D11*
X477808Y283208D02*
X477808Y294892D01*
X481054Y294892D01*
X481167Y294890D01*
X481280Y294884D01*
X481393Y294874D01*
X481506Y294860D01*
X481618Y294843D01*
X481729Y294821D01*
X481839Y294796D01*
X481949Y294766D01*
X482057Y294733D01*
X482164Y294696D01*
X482270Y294656D01*
X482374Y294611D01*
X482477Y294563D01*
X482578Y294512D01*
X482677Y294457D01*
X482774Y294399D01*
X482869Y294337D01*
X482962Y294272D01*
X483052Y294204D01*
X483140Y294133D01*
X483226Y294058D01*
X483309Y293981D01*
X483389Y293901D01*
X483466Y293818D01*
X483541Y293732D01*
X483612Y293644D01*
X483680Y293554D01*
X483745Y293461D01*
X483807Y293366D01*
X483865Y293269D01*
X483920Y293170D01*
X483971Y293069D01*
X484019Y292966D01*
X484064Y292862D01*
X484104Y292756D01*
X484141Y292649D01*
X484174Y292541D01*
X484204Y292431D01*
X484229Y292321D01*
X484251Y292210D01*
X484268Y292098D01*
X484282Y291985D01*
X484292Y291872D01*
X484298Y291759D01*
X484300Y291646D01*
X484298Y291533D01*
X484292Y291420D01*
X484282Y291307D01*
X484268Y291194D01*
X484251Y291082D01*
X484229Y290971D01*
X484204Y290861D01*
X484174Y290751D01*
X484141Y290643D01*
X484104Y290536D01*
X484064Y290430D01*
X484019Y290326D01*
X483971Y290223D01*
X483920Y290122D01*
X483865Y290023D01*
X483807Y289926D01*
X483745Y289831D01*
X483680Y289738D01*
X483612Y289648D01*
X483541Y289560D01*
X483466Y289474D01*
X483389Y289391D01*
X483309Y289311D01*
X483226Y289234D01*
X483140Y289159D01*
X483052Y289088D01*
X482962Y289020D01*
X482869Y288955D01*
X482774Y288893D01*
X482677Y288835D01*
X482578Y288780D01*
X482477Y288729D01*
X482374Y288681D01*
X482270Y288636D01*
X482164Y288596D01*
X482057Y288559D01*
X481949Y288526D01*
X481839Y288496D01*
X481729Y288471D01*
X481618Y288449D01*
X481506Y288432D01*
X481393Y288418D01*
X481280Y288408D01*
X481167Y288402D01*
X481054Y288400D01*
X481054Y288401D02*
X477808Y288401D01*
X481703Y288401D02*
X484299Y283208D01*
X489164Y285804D02*
X491761Y294892D01*
X489164Y285804D02*
X495655Y285804D01*
X493708Y288401D02*
X493708Y283208D01*
M02*
