G04 EAGLE Gerber RS-274X export*
G75*
%MOMM*%
%FSLAX34Y34*%
%LPD*%
%INSoldermask Top*%
%IPPOS*%
%AMOC8*
5,1,8,0,0,1.08239X$1,22.5*%
G01*
%ADD10C,3.203200*%
%ADD11P,1.635708X8X157.500000*%
%ADD12P,1.635708X8X337.500000*%
%ADD13C,1.711200*%
%ADD14P,4.343848X8X292.500000*%
%ADD15C,1.727200*%
%ADD16R,0.803200X1.003200*%
%ADD17R,1.203200X1.453200*%
%ADD18R,1.503200X1.803200*%
%ADD19C,1.403200*%


D10*
X40000Y50000D03*
X500000Y120000D03*
X440000Y300000D03*
D11*
X124400Y93500D03*
X142361Y111461D03*
X160321Y129421D03*
X178282Y147382D03*
X196242Y165342D03*
X214203Y183303D03*
X232163Y201263D03*
X250124Y219224D03*
D12*
X196242Y273105D03*
X178282Y255145D03*
X160321Y237184D03*
X142361Y219224D03*
X124400Y201263D03*
X106439Y183303D03*
X88479Y165342D03*
X70518Y147382D03*
D13*
X544600Y202400D02*
X544600Y217480D01*
X519200Y217480D02*
X519200Y202400D01*
X493800Y202400D02*
X493800Y217480D01*
X468400Y217480D02*
X468400Y202400D01*
X417600Y202400D02*
X417600Y217480D01*
X443000Y217480D02*
X443000Y202400D01*
X366800Y50000D02*
X366800Y34920D01*
X366800Y202400D02*
X366800Y217480D01*
X392200Y50000D02*
X392200Y34920D01*
X417600Y34920D02*
X417600Y50000D01*
X443000Y50000D02*
X443000Y34920D01*
X468400Y34920D02*
X468400Y50000D01*
X493800Y50000D02*
X493800Y34920D01*
X519200Y34920D02*
X519200Y50000D01*
X544600Y50000D02*
X544600Y34920D01*
X570000Y202400D02*
X570000Y217480D01*
X570000Y50000D02*
X570000Y34920D01*
X392200Y202400D02*
X392200Y217480D01*
D14*
X460000Y370000D03*
X523500Y370000D03*
X491750Y420800D03*
D15*
X562700Y307620D02*
X562700Y292380D01*
X537300Y292380D02*
X537300Y307620D01*
X311900Y332380D02*
X311900Y347620D01*
X337300Y347620D02*
X337300Y332380D01*
X362700Y332380D02*
X362700Y347620D01*
X388100Y347620D02*
X388100Y332380D01*
X311900Y297620D02*
X311900Y282380D01*
X337300Y282380D02*
X337300Y297620D01*
X362700Y297620D02*
X362700Y282380D01*
X388100Y282380D02*
X388100Y297620D01*
X264368Y293592D02*
X253592Y304368D01*
X235632Y286408D02*
X246408Y275632D01*
D16*
X560000Y177500D03*
X560000Y152500D03*
D17*
X476000Y246000D03*
X496000Y246000D03*
D18*
X480500Y270000D03*
X499500Y270000D03*
D19*
X487000Y303000D03*
X410000Y410000D03*
X517000Y173000D03*
D10*
X430000Y370000D03*
X260000Y180000D03*
D19*
X234692Y23942D03*
X267000Y243000D03*
X290000Y200000D03*
M02*
